<svg width="480" height="294" viewBox="0 0 480 294" fill="none" xmlns="http://www.w3.org/2000/svg">
<rect opacity="0.3" y="24" width="480" height="30" rx="15" fill="#454459"/>
<rect x="0.25" y="24.25" width="317.5" height="29.5" rx="14.75" fill="url(#paint0_linear_28_20)" stroke="white" stroke-width="0.5"/>
<rect opacity="0.3" y="184" width="480" height="30" rx="15" fill="#454459"/>
<rect x="0.25" y="184.25" width="209.5" height="29.5" rx="14.75" fill="url(#paint1_linear_28_20)" stroke="white" stroke-width="0.5"/>
<rect opacity="0.3" y="104" width="480" height="30" rx="15" fill="#454459"/>
<rect x="0.25" y="104.25" width="384.5" height="29.5" rx="14.75" fill="url(#paint2_linear_28_20)" stroke="white" stroke-width="0.5"/>
<rect opacity="0.3" y="264" width="480" height="30" rx="15" fill="#454459"/>
<rect x="0.25" y="264.25" width="280.5" height="29.5" rx="14.75" fill="url(#paint3_linear_28_20)" stroke="white" stroke-width="0.5"/>
<rect x="372" y="114" width="3" height="10" rx="1.5" fill="white"/>
<rect x="197" y="194" width="3" height="10" rx="1.5" fill="white"/>
<rect x="268" y="274" width="3" height="10" rx="1.5" fill="white"/>
<rect x="302" y="34" width="3" height="10" rx="1.5" fill="white"/>
<path d="M7.776 4.624V13H6.096V9.436H2.508V13H0.828V4.624H2.508V8.068H6.096V4.624H7.776ZM15.7056 6.352V13H14.0136V12.16C13.7976 12.448 13.5136 12.676 13.1616 12.844C12.8176 13.004 12.4416 13.084 12.0336 13.084C11.5136 13.084 11.0536 12.976 10.6536 12.76C10.2536 12.536 9.93756 12.212 9.70556 11.788C9.48156 11.356 9.36956 10.844 9.36956 10.252V6.352H11.0496V10.012C11.0496 10.54 11.1816 10.948 11.4456 11.236C11.7096 11.516 12.0696 11.656 12.5256 11.656C12.9896 11.656 13.3536 11.516 13.6176 11.236C13.8816 10.948 14.0136 10.54 14.0136 10.012V6.352H15.7056ZM25.6192 6.256C26.4352 6.256 27.0912 6.508 27.5872 7.012C28.0912 7.508 28.3432 8.204 28.3432 9.1V13H26.6632V9.328C26.6632 8.808 26.5312 8.412 26.2672 8.14C26.0032 7.86 25.6432 7.72 25.1872 7.72C24.7312 7.72 24.3672 7.86 24.0952 8.14C23.8312 8.412 23.6992 8.808 23.6992 9.328V13H22.0192V9.328C22.0192 8.808 21.8872 8.412 21.6232 8.14C21.3592 7.86 20.9992 7.72 20.5432 7.72C20.0792 7.72 19.7112 7.86 19.4392 8.14C19.1752 8.412 19.0432 8.808 19.0432 9.328V13H17.3632V6.352H19.0432V7.156C19.2592 6.876 19.5352 6.656 19.8712 6.496C20.2152 6.336 20.5912 6.256 20.9992 6.256C21.5192 6.256 21.9832 6.368 22.3912 6.592C22.7992 6.808 23.1152 7.12 23.3392 7.528C23.5552 7.144 23.8672 6.836 24.2752 6.604C24.6912 6.372 25.1392 6.256 25.6192 6.256ZM29.5054 9.652C29.5054 8.98 29.6374 8.384 29.9014 7.864C30.1734 7.344 30.5374 6.944 30.9934 6.664C31.4574 6.384 31.9734 6.244 32.5414 6.244C33.0374 6.244 33.4694 6.344 33.8374 6.544C34.2134 6.744 34.5134 6.996 34.7374 7.3V6.352H36.4294V13H34.7374V12.028C34.5214 12.34 34.2214 12.6 33.8374 12.808C33.4614 13.008 33.0254 13.108 32.5294 13.108C31.9694 13.108 31.4574 12.964 30.9934 12.676C30.5374 12.388 30.1734 11.984 29.9014 11.464C29.6374 10.936 29.5054 10.332 29.5054 9.652ZM34.7374 9.676C34.7374 9.268 34.6574 8.92 34.4974 8.632C34.3374 8.336 34.1214 8.112 33.8494 7.96C33.5774 7.8 33.2854 7.72 32.9734 7.72C32.6614 7.72 32.3734 7.796 32.1094 7.948C31.8454 8.1 31.6294 8.324 31.4614 8.62C31.3014 8.908 31.2214 9.252 31.2214 9.652C31.2214 10.052 31.3014 10.404 31.4614 10.708C31.6294 11.004 31.8454 11.232 32.1094 11.392C32.3814 11.552 32.6694 11.632 32.9734 11.632C33.2854 11.632 33.5774 11.556 33.8494 11.404C34.1214 11.244 34.3374 11.02 34.4974 10.732C34.6574 10.436 34.7374 10.084 34.7374 9.676ZM41.7542 6.256C42.5462 6.256 43.1862 6.508 43.6742 7.012C44.1622 7.508 44.4062 8.204 44.4062 9.1V13H42.7262V9.328C42.7262 8.8 42.5942 8.396 42.3302 8.116C42.0662 7.828 41.7062 7.684 41.2502 7.684C40.7862 7.684 40.4182 7.828 40.1462 8.116C39.8822 8.396 39.7502 8.8 39.7502 9.328V13H38.0702V6.352H39.7502V7.18C39.9742 6.892 40.2582 6.668 40.6022 6.508C40.9542 6.34 41.3382 6.256 41.7542 6.256ZM50.5432 7.384C50.7592 7.032 51.0392 6.756 51.3832 6.556C51.7352 6.356 52.1352 6.256 52.5832 6.256V8.02H52.1392C51.6112 8.02 51.2112 8.144 50.9392 8.392C50.6752 8.64 50.5432 9.072 50.5432 9.688V13H48.8632V6.352H50.5432V7.384ZM59.8947 9.532C59.8947 9.772 59.8787 9.988 59.8467 10.18H54.9867C55.0267 10.66 55.1947 11.036 55.4907 11.308C55.7867 11.58 56.1507 11.716 56.5827 11.716C57.2067 11.716 57.6507 11.448 57.9147 10.912H59.7267C59.5347 11.552 59.1667 12.08 58.6227 12.496C58.0787 12.904 57.4107 13.108 56.6187 13.108C55.9787 13.108 55.4027 12.968 54.8907 12.688C54.3867 12.4 53.9907 11.996 53.7027 11.476C53.4227 10.956 53.2827 10.356 53.2827 9.676C53.2827 8.988 53.4227 8.384 53.7027 7.864C53.9827 7.344 54.3747 6.944 54.8787 6.664C55.3827 6.384 55.9627 6.244 56.6187 6.244C57.2507 6.244 57.8147 6.38 58.3107 6.652C58.8147 6.924 59.2027 7.312 59.4747 7.816C59.7547 8.312 59.8947 8.884 59.8947 9.532ZM58.1547 9.052C58.1467 8.62 57.9907 8.276 57.6867 8.02C57.3827 7.756 57.0107 7.624 56.5707 7.624C56.1547 7.624 55.8027 7.752 55.5147 8.008C55.2347 8.256 55.0627 8.604 54.9987 9.052H58.1547ZM63.665 13.108C63.121 13.108 62.633 13.012 62.201 12.82C61.769 12.62 61.425 12.352 61.169 12.016C60.921 11.68 60.785 11.308 60.761 10.9H62.453C62.485 11.156 62.609 11.368 62.825 11.536C63.049 11.704 63.325 11.788 63.653 11.788C63.973 11.788 64.221 11.724 64.397 11.596C64.581 11.468 64.673 11.304 64.673 11.104C64.673 10.888 64.561 10.728 64.337 10.624C64.121 10.512 63.773 10.392 63.293 10.264C62.797 10.144 62.389 10.02 62.069 9.892C61.757 9.764 61.485 9.568 61.253 9.304C61.029 9.04 60.917 8.684 60.917 8.236C60.917 7.868 61.021 7.532 61.229 7.228C61.445 6.924 61.749 6.684 62.141 6.508C62.541 6.332 63.009 6.244 63.545 6.244C64.337 6.244 64.969 6.444 65.441 6.844C65.913 7.236 66.173 7.768 66.221 8.44H64.613C64.589 8.176 64.477 7.968 64.277 7.816C64.085 7.656 63.825 7.576 63.497 7.576C63.193 7.576 62.957 7.632 62.789 7.744C62.629 7.856 62.549 8.012 62.549 8.212C62.549 8.436 62.661 8.608 62.885 8.728C63.109 8.84 63.457 8.956 63.929 9.076C64.409 9.196 64.805 9.32 65.117 9.448C65.429 9.576 65.697 9.776 65.921 10.048C66.153 10.312 66.273 10.664 66.281 11.104C66.281 11.488 66.173 11.832 65.957 12.136C65.749 12.44 65.445 12.68 65.045 12.856C64.653 13.024 64.193 13.108 63.665 13.108ZM70.612 13.108C69.972 13.108 69.396 12.968 68.884 12.688C68.372 12.4 67.968 11.996 67.672 11.476C67.384 10.956 67.24 10.356 67.24 9.676C67.24 8.996 67.388 8.396 67.684 7.876C67.988 7.356 68.4 6.956 68.92 6.676C69.44 6.388 70.02 6.244 70.66 6.244C71.3 6.244 71.88 6.388 72.4 6.676C72.92 6.956 73.328 7.356 73.624 7.876C73.928 8.396 74.08 8.996 74.08 9.676C74.08 10.356 73.924 10.956 73.612 11.476C73.308 11.996 72.892 12.4 72.364 12.688C71.844 12.968 71.26 13.108 70.612 13.108ZM70.612 11.644C70.916 11.644 71.2 11.572 71.464 11.428C71.736 11.276 71.952 11.052 72.112 10.756C72.272 10.46 72.352 10.1 72.352 9.676C72.352 9.044 72.184 8.56 71.848 8.224C71.52 7.88 71.116 7.708 70.636 7.708C70.156 7.708 69.752 7.88 69.424 8.224C69.104 8.56 68.944 9.044 68.944 9.676C68.944 10.308 69.1 10.796 69.412 11.14C69.732 11.476 70.132 11.644 70.612 11.644ZM81.5884 6.352V13H79.8964V12.16C79.6804 12.448 79.3964 12.676 79.0444 12.844C78.7004 13.004 78.3244 13.084 77.9164 13.084C77.3964 13.084 76.9364 12.976 76.5364 12.76C76.1364 12.536 75.8204 12.212 75.5884 11.788C75.3644 11.356 75.2524 10.844 75.2524 10.252V6.352H76.9324V10.012C76.9324 10.54 77.0644 10.948 77.3284 11.236C77.5924 11.516 77.9524 11.656 78.4084 11.656C78.8724 11.656 79.2364 11.516 79.5004 11.236C79.7644 10.948 79.8964 10.54 79.8964 10.012V6.352H81.5884ZM84.926 7.384C85.142 7.032 85.422 6.756 85.766 6.556C86.118 6.356 86.518 6.256 86.966 6.256V8.02H86.522C85.994 8.02 85.594 8.144 85.322 8.392C85.058 8.64 84.926 9.072 84.926 9.688V13H83.246V6.352H84.926V7.384ZM87.6655 9.676C87.6655 8.988 87.8055 8.388 88.0855 7.876C88.3655 7.356 88.7535 6.956 89.2495 6.676C89.7455 6.388 90.3135 6.244 90.9535 6.244C91.7775 6.244 92.4575 6.452 92.9935 6.868C93.5375 7.276 93.9015 7.852 94.0855 8.596H92.2735C92.1775 8.308 92.0135 8.084 91.7815 7.924C91.5575 7.756 91.2775 7.672 90.9415 7.672C90.4615 7.672 90.0815 7.848 89.8015 8.2C89.5215 8.544 89.3815 9.036 89.3815 9.676C89.3815 10.308 89.5215 10.8 89.8015 11.152C90.0815 11.496 90.4615 11.668 90.9415 11.668C91.6215 11.668 92.0655 11.364 92.2735 10.756H94.0855C93.9015 11.476 93.5375 12.048 92.9935 12.472C92.4495 12.896 91.7695 13.108 90.9535 13.108C90.3135 13.108 89.7455 12.968 89.2495 12.688C88.7535 12.4 88.3655 12 88.0855 11.488C87.8055 10.968 87.6655 10.364 87.6655 9.676ZM101.496 9.532C101.496 9.772 101.48 9.988 101.448 10.18H96.5883C96.6283 10.66 96.7963 11.036 97.0923 11.308C97.3883 11.58 97.7523 11.716 98.1843 11.716C98.8083 11.716 99.2523 11.448 99.5163 10.912H101.328C101.136 11.552 100.768 12.08 100.224 12.496C99.6803 12.904 99.0123 13.108 98.2203 13.108C97.5803 13.108 97.0043 12.968 96.4923 12.688C95.9883 12.4 95.5923 11.996 95.3043 11.476C95.0243 10.956 94.8843 10.356 94.8843 9.676C94.8843 8.988 95.0243 8.384 95.3043 7.864C95.5843 7.344 95.9763 6.944 96.4803 6.664C96.9843 6.384 97.5643 6.244 98.2203 6.244C98.8523 6.244 99.4163 6.38 99.9123 6.652C100.416 6.924 100.804 7.312 101.076 7.816C101.356 8.312 101.496 8.884 101.496 9.532ZM99.7563 9.052C99.7483 8.62 99.5923 8.276 99.2883 8.02C98.9843 7.756 98.6123 7.624 98.1723 7.624C97.7563 7.624 97.4043 7.752 97.1163 8.008C96.8363 8.256 96.6643 8.604 96.6003 9.052H99.7563Z" fill="#383838"/>
<path d="M3.72 173.084C3.136 173.084 2.608 172.984 2.136 172.784C1.672 172.584 1.304 172.296 1.032 171.92C0.76 171.544 0.62 171.1 0.612 170.588H2.412C2.436 170.932 2.556 171.204 2.772 171.404C2.996 171.604 3.3 171.704 3.684 171.704C4.076 171.704 4.384 171.612 4.608 171.428C4.832 171.236 4.944 170.988 4.944 170.684C4.944 170.436 4.868 170.232 4.716 170.072C4.564 169.912 4.372 169.788 4.14 169.7C3.916 169.604 3.604 169.5 3.204 169.388C2.66 169.228 2.216 169.072 1.872 168.92C1.536 168.76 1.244 168.524 0.996 168.212C0.756 167.892 0.636 167.468 0.636 166.94C0.636 166.444 0.76 166.012 1.008 165.644C1.256 165.276 1.604 164.996 2.052 164.804C2.5 164.604 3.012 164.504 3.588 164.504C4.452 164.504 5.152 164.716 5.688 165.14C6.232 165.556 6.532 166.14 6.588 166.892H4.74C4.724 166.604 4.6 166.368 4.368 166.184C4.144 165.992 3.844 165.896 3.468 165.896C3.14 165.896 2.876 165.98 2.676 166.148C2.484 166.316 2.388 166.56 2.388 166.88C2.388 167.104 2.46 167.292 2.604 167.444C2.756 167.588 2.94 167.708 3.156 167.804C3.38 167.892 3.692 167.996 4.092 168.116C4.636 168.276 5.08 168.436 5.424 168.596C5.768 168.756 6.064 168.996 6.312 169.316C6.56 169.636 6.684 170.056 6.684 170.576C6.684 171.024 6.568 171.44 6.336 171.824C6.104 172.208 5.764 172.516 5.316 172.748C4.868 172.972 4.336 173.084 3.72 173.084ZM11.0925 173.108C10.4525 173.108 9.8765 172.968 9.3645 172.688C8.8525 172.4 8.4485 171.996 8.1525 171.476C7.8645 170.956 7.7205 170.356 7.7205 169.676C7.7205 168.996 7.8685 168.396 8.1645 167.876C8.4685 167.356 8.8805 166.956 9.4005 166.676C9.9205 166.388 10.5005 166.244 11.1405 166.244C11.7805 166.244 12.3605 166.388 12.8805 166.676C13.4005 166.956 13.8085 167.356 14.1045 167.876C14.4085 168.396 14.5605 168.996 14.5605 169.676C14.5605 170.356 14.4045 170.956 14.0925 171.476C13.7885 171.996 13.3725 172.4 12.8445 172.688C12.3245 172.968 11.7405 173.108 11.0925 173.108ZM11.0925 171.644C11.3965 171.644 11.6805 171.572 11.9445 171.428C12.2165 171.276 12.4325 171.052 12.5925 170.756C12.7525 170.46 12.8325 170.1 12.8325 169.676C12.8325 169.044 12.6645 168.56 12.3285 168.224C12.0005 167.88 11.5965 167.708 11.1165 167.708C10.6365 167.708 10.2325 167.88 9.9045 168.224C9.5845 168.56 9.4245 169.044 9.4245 169.676C9.4245 170.308 9.5805 170.796 9.8925 171.14C10.2125 171.476 10.6125 171.644 11.0925 171.644ZM18.8408 167.732H17.6768V173H15.9728V167.732H15.2168V166.352H15.9728V166.016C15.9728 165.2 16.2048 164.6 16.6688 164.216C17.1328 163.832 17.8328 163.652 18.7688 163.676V165.092C18.3608 165.084 18.0768 165.152 17.9168 165.296C17.7568 165.44 17.6768 165.7 17.6768 166.076V166.352H18.8408V167.732ZM21.8856 167.732V170.948C21.8856 171.172 21.9376 171.336 22.0416 171.44C22.1536 171.536 22.3376 171.584 22.5936 171.584H23.3736V173H22.3176C20.9016 173 20.1936 172.312 20.1936 170.936V167.732H19.4016V166.352H20.1936V164.708H21.8856V166.352H23.3736V167.732H21.8856ZM33.7979 166.352L31.8539 173H30.0419L28.8299 168.356L27.6179 173H25.7939L23.8379 166.352H25.5419L26.7179 171.416L27.9899 166.352H29.7659L31.0139 171.404L32.1899 166.352H33.7979ZM34.2749 169.652C34.2749 168.98 34.4069 168.384 34.6709 167.864C34.9429 167.344 35.3069 166.944 35.7629 166.664C36.2269 166.384 36.7429 166.244 37.3109 166.244C37.8069 166.244 38.2389 166.344 38.6069 166.544C38.9829 166.744 39.2829 166.996 39.5069 167.3V166.352H41.1989V173H39.5069V172.028C39.2909 172.34 38.9909 172.6 38.6069 172.808C38.2309 173.008 37.7949 173.108 37.2989 173.108C36.7389 173.108 36.2269 172.964 35.7629 172.676C35.3069 172.388 34.9429 171.984 34.6709 171.464C34.4069 170.936 34.2749 170.332 34.2749 169.652ZM39.5069 169.676C39.5069 169.268 39.4269 168.92 39.2669 168.632C39.1069 168.336 38.8909 168.112 38.6189 167.96C38.3469 167.8 38.0549 167.72 37.7429 167.72C37.4309 167.72 37.1429 167.796 36.8789 167.948C36.6149 168.1 36.3989 168.324 36.2309 168.62C36.0709 168.908 35.9909 169.252 35.9909 169.652C35.9909 170.052 36.0709 170.404 36.2309 170.708C36.3989 171.004 36.6149 171.232 36.8789 171.392C37.1509 171.552 37.4389 171.632 37.7429 171.632C38.0549 171.632 38.3469 171.556 38.6189 171.404C38.8909 171.244 39.1069 171.02 39.2669 170.732C39.4269 170.436 39.5069 170.084 39.5069 169.676ZM44.5197 167.384C44.7357 167.032 45.0157 166.756 45.3597 166.556C45.7117 166.356 46.1117 166.256 46.5597 166.256V168.02H46.1157C45.5877 168.02 45.1877 168.144 44.9157 168.392C44.6517 168.64 44.5197 169.072 44.5197 169.688V173H42.8397V166.352H44.5197V167.384ZM53.8713 169.532C53.8713 169.772 53.8553 169.988 53.8233 170.18H48.9633C49.0033 170.66 49.1713 171.036 49.4673 171.308C49.7633 171.58 50.1273 171.716 50.5593 171.716C51.1833 171.716 51.6273 171.448 51.8913 170.912H53.7033C53.5113 171.552 53.1433 172.08 52.5993 172.496C52.0553 172.904 51.3873 173.108 50.5953 173.108C49.9553 173.108 49.3793 172.968 48.8673 172.688C48.3633 172.4 47.9673 171.996 47.6793 171.476C47.3993 170.956 47.2593 170.356 47.2593 169.676C47.2593 168.988 47.3993 168.384 47.6793 167.864C47.9593 167.344 48.3513 166.944 48.8553 166.664C49.3593 166.384 49.9393 166.244 50.5953 166.244C51.2273 166.244 51.7913 166.38 52.2873 166.652C52.7913 166.924 53.1793 167.312 53.4513 167.816C53.7313 168.312 53.8713 168.884 53.8713 169.532ZM52.1313 169.052C52.1233 168.62 51.9673 168.276 51.6633 168.02C51.3593 167.756 50.9873 167.624 50.5473 167.624C50.1313 167.624 49.7793 167.752 49.4913 168.008C49.2113 168.256 49.0393 168.604 48.9753 169.052H52.1313ZM59.9129 167.732V170.948C59.9129 171.172 59.9649 171.336 60.0689 171.44C60.1809 171.536 60.3649 171.584 60.6209 171.584H61.4009V173H60.3449C58.9289 173 58.2209 172.312 58.2209 170.936V167.732H57.4289V166.352H58.2209V164.708H59.9129V166.352H61.4009V167.732H59.9129ZM68.7893 169.532C68.7893 169.772 68.7733 169.988 68.7413 170.18H63.8813C63.9213 170.66 64.0893 171.036 64.3853 171.308C64.6813 171.58 65.0453 171.716 65.4773 171.716C66.1013 171.716 66.5453 171.448 66.8093 170.912H68.6213C68.4293 171.552 68.0613 172.08 67.5173 172.496C66.9733 172.904 66.3053 173.108 65.5133 173.108C64.8733 173.108 64.2973 172.968 63.7853 172.688C63.2813 172.4 62.8853 171.996 62.5973 171.476C62.3173 170.956 62.1772 170.356 62.1772 169.676C62.1772 168.988 62.3173 168.384 62.5973 167.864C62.8773 167.344 63.2693 166.944 63.7733 166.664C64.2773 166.384 64.8573 166.244 65.5133 166.244C66.1453 166.244 66.7093 166.38 67.2053 166.652C67.7093 166.924 68.0973 167.312 68.3693 167.816C68.6493 168.312 68.7893 168.884 68.7893 169.532ZM67.0493 169.052C67.0413 168.62 66.8853 168.276 66.5813 168.02C66.2773 167.756 65.9053 167.624 65.4653 167.624C65.0493 167.624 64.6973 167.752 64.4093 168.008C64.1293 168.256 63.9573 168.604 63.8933 169.052H67.0493ZM69.5835 169.652C69.5835 168.98 69.7155 168.384 69.9795 167.864C70.2515 167.344 70.6155 166.944 71.0715 166.664C71.5355 166.384 72.0515 166.244 72.6195 166.244C73.1155 166.244 73.5475 166.344 73.9155 166.544C74.2915 166.744 74.5915 166.996 74.8155 167.3V166.352H76.5075V173H74.8155V172.028C74.5995 172.34 74.2995 172.6 73.9155 172.808C73.5395 173.008 73.1035 173.108 72.6075 173.108C72.0475 173.108 71.5355 172.964 71.0715 172.676C70.6155 172.388 70.2515 171.984 69.9795 171.464C69.7155 170.936 69.5835 170.332 69.5835 169.652ZM74.8155 169.676C74.8155 169.268 74.7355 168.92 74.5755 168.632C74.4155 168.336 74.1995 168.112 73.9275 167.96C73.6555 167.8 73.3635 167.72 73.0515 167.72C72.7395 167.72 72.4515 167.796 72.1875 167.948C71.9235 168.1 71.7075 168.324 71.5395 168.62C71.3795 168.908 71.2995 169.252 71.2995 169.652C71.2995 170.052 71.3795 170.404 71.5395 170.708C71.7075 171.004 71.9235 171.232 72.1875 171.392C72.4595 171.552 72.7475 171.632 73.0515 171.632C73.3635 171.632 73.6555 171.556 73.9275 171.404C74.1995 171.244 74.4155 171.02 74.5755 170.732C74.7355 170.436 74.8155 170.084 74.8155 169.676ZM86.4043 166.256C87.2203 166.256 87.8763 166.508 88.3723 167.012C88.8763 167.508 89.1283 168.204 89.1283 169.1V173H87.4483V169.328C87.4483 168.808 87.3163 168.412 87.0523 168.14C86.7883 167.86 86.4283 167.72 85.9723 167.72C85.5163 167.72 85.1523 167.86 84.8803 168.14C84.6163 168.412 84.4843 168.808 84.4843 169.328V173H82.8043V169.328C82.8043 168.808 82.6723 168.412 82.4083 168.14C82.1443 167.86 81.7843 167.72 81.3283 167.72C80.8643 167.72 80.4963 167.86 80.2243 168.14C79.9603 168.412 79.8283 168.808 79.8283 169.328V173H78.1483V166.352H79.8283V167.156C80.0443 166.876 80.3203 166.656 80.6563 166.496C81.0003 166.336 81.3763 166.256 81.7843 166.256C82.3043 166.256 82.7683 166.368 83.1763 166.592C83.5843 166.808 83.9003 167.12 84.1243 167.528C84.3403 167.144 84.6523 166.836 85.0603 166.604C85.4763 166.372 85.9243 166.256 86.4043 166.256Z" fill="#383838"/>
<path d="M7.776 84.624V93H6.096V89.436H2.508V93H0.828V84.624H2.508V88.068H6.096V84.624H7.776ZM8.99756 89.652C8.99756 88.98 9.12956 88.384 9.39356 87.864C9.66556 87.344 10.0296 86.944 10.4856 86.664C10.9496 86.384 11.4656 86.244 12.0336 86.244C12.5296 86.244 12.9616 86.344 13.3296 86.544C13.7056 86.744 14.0056 86.996 14.2296 87.3V86.352H15.9216V93H14.2296V92.028C14.0136 92.34 13.7136 92.6 13.3296 92.808C12.9536 93.008 12.5176 93.108 12.0216 93.108C11.4616 93.108 10.9496 92.964 10.4856 92.676C10.0296 92.388 9.66556 91.984 9.39356 91.464C9.12956 90.936 8.99756 90.332 8.99756 89.652ZM14.2296 89.676C14.2296 89.268 14.1496 88.92 13.9896 88.632C13.8296 88.336 13.6136 88.112 13.3416 87.96C13.0696 87.8 12.7776 87.72 12.4656 87.72C12.1536 87.72 11.8656 87.796 11.6016 87.948C11.3376 88.1 11.1216 88.324 10.9536 88.62C10.7936 88.908 10.7136 89.252 10.7136 89.652C10.7136 90.052 10.7936 90.404 10.9536 90.708C11.1216 91.004 11.3376 91.232 11.6016 91.392C11.8736 91.552 12.1616 91.632 12.4656 91.632C12.7776 91.632 13.0696 91.556 13.3416 91.404C13.6136 91.244 13.8296 91.02 13.9896 90.732C14.1496 90.436 14.2296 90.084 14.2296 89.676ZM19.2424 87.384C19.4584 87.032 19.7384 86.756 20.0824 86.556C20.4344 86.356 20.8344 86.256 21.2824 86.256V88.02H20.8384C20.3104 88.02 19.9104 88.144 19.6384 88.392C19.3744 88.64 19.2424 89.072 19.2424 89.688V93H17.5624V86.352H19.2424V87.384ZM21.9819 89.652C21.9819 88.98 22.1139 88.384 22.3779 87.864C22.6499 87.344 23.0179 86.944 23.4819 86.664C23.9459 86.384 24.4619 86.244 25.0299 86.244C25.4619 86.244 25.8739 86.34 26.2659 86.532C26.6579 86.716 26.9699 86.964 27.2019 87.276V84.12H28.9059V93H27.2019V92.016C26.9939 92.344 26.7019 92.608 26.3259 92.808C25.9499 93.008 25.5139 93.108 25.0179 93.108C24.4579 93.108 23.9459 92.964 23.4819 92.676C23.0179 92.388 22.6499 91.984 22.3779 91.464C22.1139 90.936 21.9819 90.332 21.9819 89.652ZM27.2139 89.676C27.2139 89.268 27.1339 88.92 26.9739 88.632C26.8139 88.336 26.5979 88.112 26.3259 87.96C26.0539 87.8 25.7619 87.72 25.4499 87.72C25.1379 87.72 24.8499 87.796 24.5859 87.948C24.3219 88.1 24.1059 88.324 23.9379 88.62C23.7779 88.908 23.6979 89.252 23.6979 89.652C23.6979 90.052 23.7779 90.404 23.9379 90.708C24.1059 91.004 24.3219 91.232 24.5859 91.392C24.8579 91.552 25.1459 91.632 25.4499 91.632C25.7619 91.632 26.0539 91.556 26.3259 91.404C26.5979 91.244 26.8139 91.02 26.9739 90.732C27.1339 90.436 27.2139 90.084 27.2139 89.676ZM39.7628 86.352L37.8188 93H36.0068L34.7948 88.356L33.5828 93H31.7588L29.8028 86.352H31.5068L32.6828 91.416L33.9548 86.352H35.7308L36.9788 91.404L38.1548 86.352H39.7628ZM40.2397 89.652C40.2397 88.98 40.3717 88.384 40.6357 87.864C40.9078 87.344 41.2718 86.944 41.7278 86.664C42.1918 86.384 42.7078 86.244 43.2758 86.244C43.7718 86.244 44.2038 86.344 44.5718 86.544C44.9478 86.744 45.2478 86.996 45.4718 87.3V86.352H47.1638V93H45.4718V92.028C45.2558 92.34 44.9558 92.6 44.5718 92.808C44.1958 93.008 43.7598 93.108 43.2638 93.108C42.7038 93.108 42.1918 92.964 41.7278 92.676C41.2718 92.388 40.9078 91.984 40.6357 91.464C40.3717 90.936 40.2397 90.332 40.2397 89.652ZM45.4718 89.676C45.4718 89.268 45.3918 88.92 45.2318 88.632C45.0718 88.336 44.8558 88.112 44.5838 87.96C44.3118 87.8 44.0198 87.72 43.7078 87.72C43.3958 87.72 43.1078 87.796 42.8438 87.948C42.5798 88.1 42.3638 88.324 42.1958 88.62C42.0358 88.908 41.9558 89.252 41.9558 89.652C41.9558 90.052 42.0358 90.404 42.1958 90.708C42.3638 91.004 42.5798 91.232 42.8438 91.392C43.1158 91.552 43.4038 91.632 43.7078 91.632C44.0198 91.632 44.3118 91.556 44.5838 91.404C44.8558 91.244 45.0718 91.02 45.2318 90.732C45.3918 90.436 45.4718 90.084 45.4718 89.676ZM50.4846 87.384C50.7006 87.032 50.9806 86.756 51.3246 86.556C51.6766 86.356 52.0766 86.256 52.5246 86.256V88.02H52.0806C51.5526 88.02 51.1526 88.144 50.8806 88.392C50.6166 88.64 50.4846 89.072 50.4846 89.688V93H48.8046V86.352H50.4846V87.384ZM59.8361 89.532C59.8361 89.772 59.8201 89.988 59.7881 90.18H54.9281C54.9681 90.66 55.1361 91.036 55.4321 91.308C55.7281 91.58 56.0921 91.716 56.5241 91.716C57.1481 91.716 57.5921 91.448 57.8561 90.912H59.6681C59.4761 91.552 59.1081 92.08 58.5641 92.496C58.0201 92.904 57.3521 93.108 56.5601 93.108C55.9201 93.108 55.3441 92.968 54.8321 92.688C54.3281 92.4 53.9321 91.996 53.6441 91.476C53.3641 90.956 53.2241 90.356 53.2241 89.676C53.2241 88.988 53.3641 88.384 53.6441 87.864C53.9241 87.344 54.3161 86.944 54.8201 86.664C55.3241 86.384 55.9041 86.244 56.5601 86.244C57.1921 86.244 57.7561 86.38 58.2521 86.652C58.7561 86.924 59.1441 87.312 59.4161 87.816C59.6961 88.312 59.8361 88.884 59.8361 89.532ZM58.0961 89.052C58.0881 88.62 57.9321 88.276 57.6281 88.02C57.3241 87.756 56.9521 87.624 56.5121 87.624C56.0961 87.624 55.7441 87.752 55.4561 88.008C55.1761 88.256 55.0041 88.604 54.9401 89.052H58.0961ZM65.8778 87.732V90.948C65.8778 91.172 65.9298 91.336 66.0338 91.44C66.1458 91.536 66.3298 91.584 66.5858 91.584H67.3658V93H66.3098C64.8938 93 64.1858 92.312 64.1858 90.936V87.732H63.3938V86.352H64.1858V84.708H65.8778V86.352H67.3658V87.732H65.8778ZM74.7541 89.532C74.7541 89.772 74.7381 89.988 74.7061 90.18H69.8461C69.8861 90.66 70.0541 91.036 70.3501 91.308C70.6461 91.58 71.0101 91.716 71.4421 91.716C72.0661 91.716 72.5101 91.448 72.7741 90.912H74.5861C74.3941 91.552 74.0261 92.08 73.4821 92.496C72.9381 92.904 72.2701 93.108 71.4781 93.108C70.8381 93.108 70.2621 92.968 69.7501 92.688C69.2461 92.4 68.8501 91.996 68.5621 91.476C68.2821 90.956 68.1421 90.356 68.1421 89.676C68.1421 88.988 68.2821 88.384 68.5621 87.864C68.8421 87.344 69.2341 86.944 69.7381 86.664C70.2421 86.384 70.8221 86.244 71.4781 86.244C72.1101 86.244 72.6741 86.38 73.1701 86.652C73.6741 86.924 74.0621 87.312 74.3341 87.816C74.6141 88.312 74.7541 88.884 74.7541 89.532ZM73.0141 89.052C73.0061 88.62 72.8501 88.276 72.5461 88.02C72.2421 87.756 71.8701 87.624 71.4301 87.624C71.0141 87.624 70.6621 87.752 70.3741 88.008C70.0941 88.256 69.9221 88.604 69.8581 89.052H73.0141ZM75.5483 89.652C75.5483 88.98 75.6803 88.384 75.9443 87.864C76.2163 87.344 76.5803 86.944 77.0363 86.664C77.5003 86.384 78.0163 86.244 78.5843 86.244C79.0803 86.244 79.5123 86.344 79.8803 86.544C80.2563 86.744 80.5563 86.996 80.7803 87.3V86.352H82.4723V93H80.7803V92.028C80.5643 92.34 80.2643 92.6 79.8803 92.808C79.5043 93.008 79.0683 93.108 78.5723 93.108C78.0123 93.108 77.5003 92.964 77.0363 92.676C76.5803 92.388 76.2163 91.984 75.9443 91.464C75.6803 90.936 75.5483 90.332 75.5483 89.652ZM80.7803 89.676C80.7803 89.268 80.7003 88.92 80.5403 88.632C80.3803 88.336 80.1643 88.112 79.8923 87.96C79.6203 87.8 79.3283 87.72 79.0163 87.72C78.7043 87.72 78.4163 87.796 78.1523 87.948C77.8883 88.1 77.6723 88.324 77.5043 88.62C77.3443 88.908 77.2643 89.252 77.2643 89.652C77.2643 90.052 77.3443 90.404 77.5043 90.708C77.6723 91.004 77.8883 91.232 78.1523 91.392C78.4243 91.552 78.7123 91.632 79.0163 91.632C79.3283 91.632 79.6203 91.556 79.8923 91.404C80.1643 91.244 80.3803 91.02 80.5403 90.732C80.7003 90.436 80.7803 90.084 80.7803 89.676ZM92.3692 86.256C93.1852 86.256 93.8412 86.508 94.3372 87.012C94.8412 87.508 95.0932 88.204 95.0932 89.1V93H93.4132V89.328C93.4132 88.808 93.2812 88.412 93.0172 88.14C92.7532 87.86 92.3932 87.72 91.9372 87.72C91.4812 87.72 91.1172 87.86 90.8452 88.14C90.5812 88.412 90.4492 88.808 90.4492 89.328V93H88.7692V89.328C88.7692 88.808 88.6372 88.412 88.3732 88.14C88.1092 87.86 87.7492 87.72 87.2932 87.72C86.8292 87.72 86.4612 87.86 86.1892 88.14C85.9252 88.412 85.7932 88.808 85.7932 89.328V93H84.1132V86.352H85.7932V87.156C86.0092 86.876 86.2852 86.656 86.6212 86.496C86.9652 86.336 87.3412 86.256 87.7492 86.256C88.2692 86.256 88.7332 86.368 89.1412 86.592C89.5492 86.808 89.8652 87.12 90.0892 87.528C90.3052 87.144 90.6172 86.836 91.0252 86.604C91.4412 86.372 91.8892 86.256 92.3692 86.256Z" fill="#383838"/>
<path d="M7.992 253H6.312L2.508 247.252V253H0.828V244.612H2.508L6.312 250.372V244.612H7.992V253ZM15.8322 249.532C15.8322 249.772 15.8162 249.988 15.7842 250.18H10.9242C10.9642 250.66 11.1322 251.036 11.4282 251.308C11.7242 251.58 12.0882 251.716 12.5202 251.716C13.1442 251.716 13.5882 251.448 13.8522 250.912H15.6642C15.4722 251.552 15.1042 252.08 14.5602 252.496C14.0162 252.904 13.3482 253.108 12.5562 253.108C11.9162 253.108 11.3402 252.968 10.8282 252.688C10.3242 252.4 9.92822 251.996 9.64022 251.476C9.36022 250.956 9.22022 250.356 9.22022 249.676C9.22022 248.988 9.36022 248.384 9.64022 247.864C9.92022 247.344 10.3122 246.944 10.8162 246.664C11.3202 246.384 11.9002 246.244 12.5562 246.244C13.1882 246.244 13.7522 246.38 14.2482 246.652C14.7522 246.924 15.1402 247.312 15.4122 247.816C15.6922 248.312 15.8322 248.884 15.8322 249.532ZM14.0922 249.052C14.0842 248.62 13.9282 248.276 13.6242 248.02C13.3202 247.756 12.9482 247.624 12.5082 247.624C12.0922 247.624 11.7402 247.752 11.4522 248.008C11.1722 248.256 11.0002 248.604 10.9362 249.052H14.0922ZM19.0145 247.732V250.948C19.0145 251.172 19.0665 251.336 19.1705 251.44C19.2825 251.536 19.4665 251.584 19.7225 251.584H20.5025V253H19.4465C18.0305 253 17.3225 252.312 17.3225 250.936V247.732H16.5305V246.352H17.3225V244.708H19.0145V246.352H20.5025V247.732H19.0145ZM30.9268 246.352L28.9828 253H27.1708L25.9588 248.356L24.7468 253H22.9228L20.9668 246.352H22.6708L23.8468 251.416L25.1188 246.352H26.8948L28.1428 251.404L29.3188 246.352H30.9268ZM34.7878 253.108C34.1478 253.108 33.5718 252.968 33.0598 252.688C32.5478 252.4 32.1438 251.996 31.8478 251.476C31.5598 250.956 31.4158 250.356 31.4158 249.676C31.4158 248.996 31.5638 248.396 31.8598 247.876C32.1638 247.356 32.5758 246.956 33.0958 246.676C33.6158 246.388 34.1958 246.244 34.8358 246.244C35.4758 246.244 36.0558 246.388 36.5758 246.676C37.0958 246.956 37.5038 247.356 37.7998 247.876C38.1038 248.396 38.2558 248.996 38.2558 249.676C38.2558 250.356 38.0998 250.956 37.7878 251.476C37.4838 251.996 37.0678 252.4 36.5398 252.688C36.0198 252.968 35.4358 253.108 34.7878 253.108ZM34.7878 251.644C35.0918 251.644 35.3758 251.572 35.6398 251.428C35.9118 251.276 36.1278 251.052 36.2878 250.756C36.4478 250.46 36.5278 250.1 36.5278 249.676C36.5278 249.044 36.3598 248.56 36.0238 248.224C35.6958 247.88 35.2918 247.708 34.8118 247.708C34.3318 247.708 33.9278 247.88 33.5998 248.224C33.2798 248.56 33.1198 249.044 33.1198 249.676C33.1198 250.308 33.2758 250.796 33.5878 251.14C33.9078 251.476 34.3078 251.644 34.7878 251.644ZM41.1682 247.384C41.3842 247.032 41.6642 246.756 42.0082 246.556C42.3602 246.356 42.7602 246.256 43.2082 246.256V248.02H42.7642C42.2362 248.02 41.8362 248.144 41.5642 248.392C41.3002 248.64 41.1682 249.072 41.1682 249.688V253H39.4882V246.352H41.1682V247.384ZM48.2757 253L46.0197 250.168V253H44.3397V244.12H46.0197V249.172L48.2517 246.352H50.4357L47.5077 249.688L50.4597 253H48.2757ZM56.1629 247.732V250.948C56.1629 251.172 56.2149 251.336 56.3189 251.44C56.4309 251.536 56.6149 251.584 56.8709 251.584H57.6509V253H56.5949C55.1789 253 54.4709 252.312 54.4709 250.936V247.732H53.6789V246.352H54.4709V244.708H56.1629V246.352H57.6509V247.732H56.1629ZM65.0393 249.532C65.0393 249.772 65.0233 249.988 64.9913 250.18H60.1313C60.1713 250.66 60.3393 251.036 60.6353 251.308C60.9313 251.58 61.2953 251.716 61.7273 251.716C62.3513 251.716 62.7953 251.448 63.0593 250.912H64.8713C64.6793 251.552 64.3113 252.08 63.7673 252.496C63.2233 252.904 62.5553 253.108 61.7633 253.108C61.1233 253.108 60.5473 252.968 60.0353 252.688C59.5313 252.4 59.1353 251.996 58.8473 251.476C58.5673 250.956 58.4272 250.356 58.4272 249.676C58.4272 248.988 58.5673 248.384 58.8473 247.864C59.1273 247.344 59.5193 246.944 60.0233 246.664C60.5273 246.384 61.1073 246.244 61.7633 246.244C62.3953 246.244 62.9593 246.38 63.4553 246.652C63.9593 246.924 64.3473 247.312 64.6193 247.816C64.8993 248.312 65.0393 248.884 65.0393 249.532ZM63.2993 249.052C63.2913 248.62 63.1353 248.276 62.8313 248.02C62.5273 247.756 62.1553 247.624 61.7153 247.624C61.2993 247.624 60.9473 247.752 60.6593 248.008C60.3793 248.256 60.2073 248.604 60.1433 249.052H63.2993ZM65.8335 249.652C65.8335 248.98 65.9655 248.384 66.2295 247.864C66.5015 247.344 66.8655 246.944 67.3215 246.664C67.7855 246.384 68.3015 246.244 68.8695 246.244C69.3655 246.244 69.7975 246.344 70.1655 246.544C70.5415 246.744 70.8415 246.996 71.0655 247.3V246.352H72.7575V253H71.0655V252.028C70.8495 252.34 70.5495 252.6 70.1655 252.808C69.7895 253.008 69.3535 253.108 68.8575 253.108C68.2975 253.108 67.7855 252.964 67.3215 252.676C66.8655 252.388 66.5015 251.984 66.2295 251.464C65.9655 250.936 65.8335 250.332 65.8335 249.652ZM71.0655 249.676C71.0655 249.268 70.9855 248.92 70.8255 248.632C70.6655 248.336 70.4495 248.112 70.1775 247.96C69.9055 247.8 69.6135 247.72 69.3015 247.72C68.9895 247.72 68.7015 247.796 68.4375 247.948C68.1735 248.1 67.9575 248.324 67.7895 248.62C67.6295 248.908 67.5495 249.252 67.5495 249.652C67.5495 250.052 67.6295 250.404 67.7895 250.708C67.9575 251.004 68.1735 251.232 68.4375 251.392C68.7095 251.552 68.9975 251.632 69.3015 251.632C69.6135 251.632 69.9055 251.556 70.1775 251.404C70.4495 251.244 70.6655 251.02 70.8255 250.732C70.9855 250.436 71.0655 250.084 71.0655 249.676ZM82.6543 246.256C83.4703 246.256 84.1263 246.508 84.6223 247.012C85.1263 247.508 85.3783 248.204 85.3783 249.1V253H83.6983V249.328C83.6983 248.808 83.5663 248.412 83.3023 248.14C83.0383 247.86 82.6783 247.72 82.2223 247.72C81.7663 247.72 81.4023 247.86 81.1303 248.14C80.8663 248.412 80.7343 248.808 80.7343 249.328V253H79.0543V249.328C79.0543 248.808 78.9223 248.412 78.6583 248.14C78.3943 247.86 78.0343 247.72 77.5783 247.72C77.1143 247.72 76.7463 247.86 76.4743 248.14C76.2103 248.412 76.0783 248.808 76.0783 249.328V253H74.3983V246.352H76.0783V247.156C76.2943 246.876 76.5703 246.656 76.9063 246.496C77.2503 246.336 77.6263 246.256 78.0343 246.256C78.5543 246.256 79.0183 246.368 79.4263 246.592C79.8343 246.808 80.1503 247.12 80.3743 247.528C80.5903 247.144 80.9023 246.836 81.3103 246.604C81.7263 246.372 82.1743 246.256 82.6543 246.256Z" fill="#383838"/>
<circle opacity="0.4" cx="336" cy="39" r="3" fill="#454459"/>
<circle opacity="0.4" cx="357" cy="39" r="3" fill="#454459"/>
<circle opacity="0.4" cx="378" cy="39" r="3" fill="#454459"/>
<circle opacity="0.4" cx="399" cy="39" r="3" fill="#454459"/>
<circle opacity="0.4" cx="420" cy="39" r="3" fill="#454459"/>
<circle opacity="0.4" cx="441" cy="39" r="3" fill="#454459"/>
<circle opacity="0.4" cx="462" cy="39" r="3" fill="#454459"/>
<circle opacity="0.4" cx="399" cy="119" r="3" fill="#454459"/>
<circle opacity="0.4" cx="420" cy="119" r="3" fill="#454459"/>
<circle opacity="0.4" cx="441" cy="119" r="3" fill="#454459"/>
<circle opacity="0.4" cx="462" cy="119" r="3" fill="#454459"/>
<circle opacity="0.4" cx="231" cy="199" r="3" fill="#454459"/>
<circle opacity="0.4" cx="378" cy="199" r="3" fill="#454459"/>
<circle opacity="0.4" cx="252" cy="199" r="3" fill="#454459"/>
<circle opacity="0.4" cx="399" cy="199" r="3" fill="#454459"/>
<circle opacity="0.4" cx="273" cy="199" r="3" fill="#454459"/>
<circle opacity="0.4" cx="420" cy="199" r="3" fill="#454459"/>
<circle opacity="0.4" cx="294" cy="199" r="3" fill="#454459"/>
<circle opacity="0.4" cx="441" cy="199" r="3" fill="#454459"/>
<circle opacity="0.4" cx="315" cy="199" r="3" fill="#454459"/>
<circle opacity="0.4" cx="462" cy="199" r="3" fill="#454459"/>
<circle opacity="0.4" cx="336" cy="199" r="3" fill="#454459"/>
<circle opacity="0.4" cx="357" cy="199" r="3" fill="#454459"/>
<circle opacity="0.4" cx="378" cy="279" r="3" fill="#454459"/>
<circle opacity="0.4" cx="399" cy="279" r="3" fill="#454459"/>
<circle opacity="0.4" cx="420" cy="279" r="3" fill="#454459"/>
<circle opacity="0.4" cx="294" cy="279" r="3" fill="#454459"/>
<circle opacity="0.4" cx="441" cy="279" r="3" fill="#454459"/>
<circle opacity="0.4" cx="315" cy="279" r="3" fill="#454459"/>
<circle opacity="0.4" cx="462" cy="279" r="3" fill="#454459"/>
<circle opacity="0.4" cx="336" cy="279" r="3" fill="#454459"/>
<circle opacity="0.4" cx="357" cy="279" r="3" fill="#454459"/>
<defs>
<linearGradient id="paint0_linear_28_20" x1="159" y1="24" x2="159" y2="54" gradientUnits="userSpaceOnUse">
<stop stop-color="#7AD3FF"/>
<stop offset="1" stop-color="#4FBAF0"/>
</linearGradient>
<linearGradient id="paint1_linear_28_20" x1="105" y1="184" x2="105" y2="214" gradientUnits="userSpaceOnUse">
<stop stop-color="#FE6C6C"/>
<stop offset="1" stop-color="#FE464B"/>
</linearGradient>
<linearGradient id="paint2_linear_28_20" x1="192.5" y1="104" x2="192.5" y2="134" gradientUnits="userSpaceOnUse">
<stop stop-color="#99FFA3"/>
<stop offset="1" stop-color="#68EE76"/>
</linearGradient>
<linearGradient id="paint3_linear_28_20" x1="140.5" y1="264" x2="140.5" y2="294" gradientUnits="userSpaceOnUse">
<stop stop-color="#B09FFF"/>
<stop offset="1" stop-color="#8D79F6"/>
</linearGradient>
</defs>
</svg>
