<svg width="296" height="265" viewBox="0 0 296 265" fill="none" xmlns="http://www.w3.org/2000/svg">
<rect x="0.945572" y="0.173271" width="294.754" height="264.779" rx="8.32639" fill="white"/>
<path d="M18 66.3264C18 61.7278 21.7279 58 26.3264 58H42.9792C47.5777 58 51.3056 61.7279 51.3056 66.3264V81.9596C51.3056 86.5582 47.5777 90.286 42.9792 90.286H18V66.3264Z" fill="#E7E7E7"/>
<path d="M71.9937 64.1791V71.1233H70.8546V68.0859H67.5873V71.1233H66.4483V64.1791H67.5873V67.1566H70.8546V64.1791H71.9937ZM78.479 65.6179V71.1233H77.34V70.4739C77.1601 70.7003 76.9237 70.8802 76.6306 71.0134C76.3442 71.14 76.0377 71.2033 75.7113 71.2033C75.2784 71.2033 74.8887 71.1133 74.5423 70.9335C74.2026 70.7536 73.9328 70.4872 73.733 70.1342C73.5398 69.7811 73.4432 69.3548 73.4432 68.8552V65.6179H74.5723V68.6854C74.5723 69.1783 74.6955 69.558 74.942 69.8244C75.1884 70.0842 75.5248 70.2141 75.9511 70.2141C76.3775 70.2141 76.7138 70.0842 76.9603 69.8244C77.2134 69.558 77.34 69.1783 77.34 68.6854V65.6179H78.479ZM86.6464 65.528C87.0793 65.528 87.4657 65.6179 87.8054 65.7978C88.1518 65.9776 88.4216 66.2441 88.6147 66.5971C88.8146 66.9501 88.9145 67.3765 88.9145 67.876V71.1233H87.7854V68.0459C87.7854 67.553 87.6622 67.1766 87.4157 66.9168C87.1693 66.6504 86.8329 66.5172 86.4066 66.5172C85.9803 66.5172 85.6405 66.6504 85.3874 66.9168C85.141 67.1766 85.0177 67.553 85.0177 68.0459V71.1233H83.8887V68.0459C83.8887 67.553 83.7654 67.1766 83.519 66.9168C83.2725 66.6504 82.9361 66.5172 82.5098 66.5172C82.0835 66.5172 81.7438 66.6504 81.4907 66.9168C81.2442 67.1766 81.121 67.553 81.121 68.0459V71.1233H79.9819V65.6179H81.121V66.2474C81.3075 66.0209 81.544 65.8444 81.8304 65.7178C82.1168 65.5913 82.4232 65.528 82.7496 65.528C83.1892 65.528 83.5823 65.6212 83.9286 65.8078C84.275 65.9943 84.5415 66.264 84.728 66.6171C84.8945 66.284 85.1543 66.0209 85.5073 65.8277C85.8604 65.6279 86.24 65.528 86.6464 65.528ZM89.9842 68.3456C89.9842 67.7928 90.0974 67.3032 90.3239 66.8769C90.5571 66.4506 90.8701 66.1208 91.2631 65.8877C91.6628 65.6479 92.1024 65.528 92.582 65.528C93.015 65.528 93.3914 65.6146 93.7111 65.7878C94.0375 65.9543 94.2973 66.1641 94.4904 66.4173V65.6179H95.6395V71.1233H94.4904V70.304C94.2973 70.5638 94.0342 70.7803 93.7011 70.9535C93.3681 71.1267 92.9884 71.2133 92.5621 71.2133C92.0891 71.2133 91.6561 71.0934 91.2631 70.8536C90.8701 70.6071 90.5571 70.2674 90.3239 69.8344C90.0974 69.3948 89.9842 68.8985 89.9842 68.3456ZM94.4904 68.3656C94.4904 67.9859 94.4105 67.6562 94.2506 67.3765C94.0974 67.0967 93.8943 66.8835 93.6412 66.737C93.388 66.5904 93.1149 66.5172 92.8218 66.5172C92.5288 66.5172 92.2556 66.5904 92.0025 66.737C91.7494 66.8769 91.5429 67.0867 91.383 67.3665C91.2298 67.6396 91.1532 67.966 91.1532 68.3456C91.1532 68.7253 91.2298 69.0584 91.383 69.3448C91.5429 69.6312 91.7494 69.8511 92.0025 70.0043C92.2623 70.1508 92.5354 70.2241 92.8218 70.2241C93.1149 70.2241 93.388 70.1508 93.6412 70.0043C93.8943 69.8577 94.0974 69.6446 94.2506 69.3648C94.4105 69.0784 94.4904 68.7453 94.4904 68.3656ZM99.9133 65.528C100.346 65.528 100.733 65.6179 101.072 65.7978C101.419 65.9776 101.688 66.2441 101.882 66.5971C102.075 66.9501 102.171 67.3765 102.171 67.876V71.1233H101.042V68.0459C101.042 67.553 100.919 67.1766 100.673 66.9168C100.426 66.6504 100.09 66.5172 99.6635 66.5172C99.2372 66.5172 98.8975 66.6504 98.6443 66.9168C98.3979 67.1766 98.2746 67.553 98.2746 68.0459V71.1233H97.1356V65.6179H98.2746V66.2474C98.4611 66.0209 98.6976 65.8444 98.984 65.7178C99.2771 65.5913 99.5869 65.528 99.9133 65.528ZM107.359 66.4173C107.525 66.1375 107.745 65.921 108.018 65.7678C108.298 65.6079 108.628 65.528 109.007 65.528V66.707H108.718C108.271 66.707 107.932 66.8202 107.699 67.0467C107.472 67.2732 107.359 67.6662 107.359 68.2257V71.1233H106.22V65.6179H107.359V66.4173ZM115.1 68.2357C115.1 68.4422 115.087 68.6287 115.06 68.7953H110.854C110.887 69.2349 111.05 69.5879 111.343 69.8544C111.637 70.1208 111.996 70.2541 112.423 70.2541C113.035 70.2541 113.468 69.9976 113.721 69.4847H114.95C114.784 69.9909 114.481 70.4073 114.041 70.7337C113.608 71.0534 113.069 71.2133 112.423 71.2133C111.896 71.2133 111.423 71.0967 111.004 70.8635C110.591 70.6237 110.264 70.2907 110.025 69.8644C109.791 69.4314 109.675 68.9318 109.675 68.3656C109.675 67.7994 109.788 67.3032 110.015 66.8769C110.248 66.4439 110.571 66.1108 110.984 65.8777C111.403 65.6446 111.883 65.528 112.423 65.528C112.942 65.528 113.405 65.6412 113.811 65.8677C114.218 66.0942 114.534 66.4139 114.761 66.8269C114.987 67.2332 115.1 67.7028 115.1 68.2357ZM113.911 67.876C113.905 67.4564 113.755 67.12 113.462 66.8669C113.169 66.6138 112.806 66.4872 112.373 66.4872C111.98 66.4872 111.643 66.6138 111.363 66.8669C111.084 67.1133 110.917 67.4497 110.864 67.876H113.911ZM118.22 71.2133C117.787 71.2133 117.397 71.1366 117.051 70.9834C116.711 70.8236 116.441 70.6104 116.241 70.344C116.041 70.0709 115.935 69.7678 115.921 69.4347H117.1C117.12 69.6679 117.23 69.8644 117.43 70.0242C117.637 70.1774 117.893 70.2541 118.2 70.2541C118.519 70.2541 118.766 70.1941 118.939 70.0742C119.119 69.9476 119.209 69.7878 119.209 69.5946C119.209 69.3881 119.109 69.2349 118.909 69.135C118.716 69.0351 118.406 68.9252 117.98 68.8053C117.567 68.692 117.23 68.5821 116.971 68.4755C116.711 68.369 116.484 68.2058 116.291 67.9859C116.105 67.7661 116.011 67.4764 116.011 67.1167C116.011 66.8236 116.098 66.5571 116.271 66.3173C116.444 66.0709 116.691 65.8777 117.011 65.7378C117.337 65.5979 117.71 65.528 118.13 65.528C118.756 65.528 119.259 65.6879 119.638 66.0076C120.025 66.3207 120.231 66.7503 120.258 67.2965H119.119C119.099 67.0501 118.999 66.8536 118.819 66.707C118.639 66.5605 118.396 66.4872 118.09 66.4872C117.79 66.4872 117.56 66.5438 117.4 66.6571C117.24 66.7703 117.16 66.9202 117.16 67.1067C117.16 67.2532 117.214 67.3765 117.32 67.4764C117.427 67.5763 117.557 67.6562 117.71 67.7162C117.863 67.7695 118.09 67.8394 118.389 67.926C118.789 68.0326 119.115 68.1425 119.369 68.2557C119.628 68.3623 119.852 68.5222 120.038 68.7353C120.225 68.9485 120.321 69.2316 120.328 69.5846C120.328 69.8977 120.241 70.1774 120.068 70.4239C119.895 70.6704 119.648 70.8635 119.329 71.0034C119.016 71.1433 118.646 71.2133 118.22 71.2133ZM123.947 71.2133C123.427 71.2133 122.957 71.0967 122.538 70.8635C122.118 70.6237 121.788 70.2907 121.549 69.8644C121.309 69.4314 121.189 68.9318 121.189 68.3656C121.189 67.8061 121.312 67.3098 121.559 66.8769C121.805 66.4439 122.141 66.1108 122.568 65.8777C122.994 65.6446 123.47 65.528 123.997 65.528C124.523 65.528 124.999 65.6446 125.425 65.8777C125.852 66.1108 126.188 66.4439 126.435 66.8769C126.681 67.3098 126.804 67.8061 126.804 68.3656C126.804 68.9252 126.678 69.4214 126.425 69.8544C126.171 70.2874 125.825 70.6237 125.385 70.8635C124.952 71.0967 124.473 71.2133 123.947 71.2133ZM123.947 70.2241C124.24 70.2241 124.513 70.1541 124.766 70.0143C125.026 69.8744 125.236 69.6645 125.395 69.3848C125.555 69.105 125.635 68.7653 125.635 68.3656C125.635 67.966 125.559 67.6296 125.405 67.3565C125.252 67.0767 125.049 66.8669 124.796 66.727C124.543 66.5871 124.27 66.5172 123.977 66.5172C123.683 66.5172 123.41 66.5871 123.157 66.727C122.911 66.8669 122.714 67.0767 122.568 67.3565C122.421 67.6296 122.348 67.966 122.348 68.3656C122.348 68.9585 122.498 69.4181 122.798 69.7445C123.104 70.0642 123.487 70.2241 123.947 70.2241ZM132.916 65.6179V71.1233H131.777V70.4739C131.597 70.7003 131.361 70.8802 131.068 71.0134C130.781 71.14 130.475 71.2033 130.148 71.2033C129.715 71.2033 129.326 71.1133 128.979 70.9335C128.64 70.7536 128.37 70.4872 128.17 70.1342C127.977 69.7811 127.88 69.3548 127.88 68.8552V65.6179H129.009V68.6854C129.009 69.1783 129.133 69.558 129.379 69.8244C129.625 70.0842 129.962 70.2141 130.388 70.2141C130.814 70.2141 131.151 70.0842 131.397 69.8244C131.65 69.558 131.777 69.1783 131.777 68.6854V65.6179H132.916ZM135.558 66.4173C135.725 66.1375 135.944 65.921 136.217 65.7678C136.497 65.6079 136.827 65.528 137.207 65.528V66.707H136.917C136.471 66.707 136.131 66.8202 135.898 67.0467C135.671 67.2732 135.558 67.6662 135.558 68.2257V71.1233H134.419V65.6179H135.558V66.4173ZM137.874 68.3656C137.874 67.7994 137.987 67.3032 138.214 66.8769C138.447 66.4439 138.767 66.1108 139.173 65.8777C139.579 65.6446 140.045 65.528 140.572 65.528C141.238 65.528 141.787 65.6879 142.22 66.0076C142.66 66.3207 142.956 66.7703 143.11 67.3565H141.881C141.781 67.0834 141.621 66.8702 141.401 66.717C141.181 66.5638 140.905 66.4872 140.572 66.4872C140.105 66.4872 139.732 66.6537 139.453 66.9868C139.18 67.3132 139.043 67.7728 139.043 68.3656C139.043 68.9585 139.18 69.4214 139.453 69.7545C139.732 70.0875 140.105 70.2541 140.572 70.2541C141.231 70.2541 141.667 69.9643 141.881 69.3848H143.11C142.95 69.9443 142.65 70.3906 142.21 70.7237C141.771 71.0501 141.224 71.2133 140.572 71.2133C140.045 71.2133 139.579 71.0967 139.173 70.8635C138.767 70.6237 138.447 70.2907 138.214 69.8644C137.987 69.4314 137.874 68.9318 137.874 68.3656ZM149.291 68.2357C149.291 68.4422 149.277 68.6287 149.251 68.7953H145.044C145.077 69.2349 145.241 69.5879 145.534 69.8544C145.827 70.1208 146.186 70.2541 146.613 70.2541C147.226 70.2541 147.659 69.9976 147.912 69.4847H149.141C148.974 69.9909 148.671 70.4073 148.231 70.7337C147.798 71.0534 147.259 71.2133 146.613 71.2133C146.087 71.2133 145.614 71.0967 145.194 70.8635C144.781 70.6237 144.455 70.2907 144.215 69.8644C143.982 69.4314 143.865 68.9318 143.865 68.3656C143.865 67.7994 143.978 67.3032 144.205 66.8769C144.438 66.4439 144.761 66.1108 145.174 65.8777C145.594 65.6446 146.073 65.528 146.613 65.528C147.132 65.528 147.595 65.6412 148.002 65.8677C148.408 66.0942 148.724 66.4139 148.951 66.8269C149.177 67.2332 149.291 67.7028 149.291 68.2357ZM148.102 67.876C148.095 67.4564 147.945 67.12 147.652 66.8669C147.359 66.6138 146.996 66.4872 146.563 66.4872C146.17 66.4872 145.833 66.6138 145.554 66.8669C145.274 67.1133 145.107 67.4497 145.054 67.876H148.102Z" fill="#383838"/>
<path d="M244.926 62.9859H241.579V64.9743C241.718 64.7878 241.925 64.6312 242.198 64.5047C242.478 64.3781 242.774 64.3148 243.087 64.3148C243.647 64.3148 244.1 64.4347 244.446 64.6745C244.799 64.9143 245.049 65.2174 245.196 65.5838C245.349 65.9501 245.425 66.3365 245.425 66.7428C245.425 67.2357 245.329 67.6754 245.136 68.0617C244.949 68.4414 244.666 68.7411 244.286 68.961C243.913 69.1808 243.454 69.2907 242.907 69.2907C242.181 69.2907 241.599 69.1108 241.159 68.7511C240.719 68.3914 240.456 67.9152 240.37 67.3223H241.479C241.552 67.6354 241.715 67.8852 241.968 68.0717C242.221 68.2516 242.538 68.3415 242.917 68.3415C243.39 68.3415 243.743 68.1983 243.977 67.9118C244.216 67.6254 244.336 67.2457 244.336 66.7728C244.336 66.2932 244.216 65.9268 243.977 65.6737C243.737 65.4139 243.384 65.284 242.917 65.284C242.591 65.284 242.315 65.3673 242.088 65.5338C241.868 65.6937 241.708 65.9135 241.609 66.1933H240.529V61.9868H244.926V62.9859Z" fill="#383838"/>
<path d="M250.178 59.8785L247.44 70.9893H246.541L249.269 59.8785H250.178ZM251.363 63.8852C251.41 63.2724 251.646 62.7928 252.072 62.4464C252.499 62.1 253.052 61.9268 253.731 61.9268C254.184 61.9268 254.574 62.0101 254.9 62.1766C255.233 62.3365 255.483 62.5563 255.649 62.8361C255.823 63.1158 255.909 63.4322 255.909 63.7853C255.909 64.1983 255.789 64.5546 255.549 64.8544C255.316 65.1541 255.01 65.3473 254.63 65.4339V65.4839C255.063 65.5904 255.406 65.8003 255.659 66.1133C255.913 66.4264 256.039 66.8361 256.039 67.3423C256.039 67.722 255.952 68.065 255.779 68.3715C255.606 68.6712 255.346 68.9077 255 69.0809C254.654 69.2541 254.237 69.3406 253.751 69.3406C253.045 69.3406 252.465 69.1575 252.012 68.7911C251.559 68.4181 251.306 67.8919 251.253 67.2124H252.132C252.179 67.6121 252.342 67.9385 252.622 68.1916C252.902 68.4447 253.275 68.5713 253.741 68.5713C254.207 68.5713 254.56 68.4514 254.8 68.2116C255.047 67.9651 255.17 67.6487 255.17 67.2624C255.17 66.7628 255.003 66.4031 254.67 66.1833C254.337 65.9635 253.834 65.8536 253.161 65.8536H252.932V65.0942H253.171C253.784 65.0875 254.247 64.9876 254.56 64.7944C254.873 64.5946 255.03 64.2882 255.03 63.8752C255.03 63.5222 254.913 63.2391 254.68 63.0259C254.454 62.8128 254.127 62.7062 253.701 62.7062C253.288 62.7062 252.955 62.8128 252.702 63.0259C252.449 63.2391 252.299 63.5255 252.252 63.8852H251.363ZM257.157 68.5613C258.003 67.8819 258.666 67.3257 259.145 66.8927C259.625 66.4531 260.028 65.9968 260.354 65.5238C260.687 65.0442 260.854 64.5746 260.854 64.115C260.854 63.682 260.747 63.3423 260.534 63.0959C260.328 62.8427 259.991 62.7162 259.525 62.7162C259.072 62.7162 258.719 62.8594 258.466 63.1458C258.219 63.4256 258.086 63.8019 258.066 64.2749H257.187C257.213 63.5288 257.44 62.9526 257.866 62.5463C258.293 62.14 258.842 61.9368 259.515 61.9368C260.201 61.9368 260.744 62.1267 261.143 62.5063C261.55 62.886 261.753 63.4089 261.753 64.075C261.753 64.6279 261.586 65.1675 261.253 65.6937C260.927 66.2133 260.554 66.6729 260.134 67.0725C259.715 67.4655 259.178 67.9252 258.526 68.4514H261.963V69.2108H257.157V68.5613Z" fill="#A9A9A9"/>
<rect x="65.6989" y="84.2699" width="196.696" height="4.99583" rx="0.832639" fill="#E7E7E7"/>
<rect x="66" y="84" width="31" height="5" rx="0.832639" fill="#0061FE"/>
<path d="M17.5986 121.739C17.5986 117.14 21.3264 113.412 25.9249 113.412H42.5777C47.1763 113.412 50.9041 117.14 50.9041 121.739V137.372C50.9041 141.97 47.1763 145.698 42.5777 145.698H17.5986V121.739Z" fill="#E7E7E7"/>
<path d="M71.9936 117.468V124.412H70.8546V121.375H67.5873V124.412H66.4483V117.468H67.5873V120.445H70.8546V117.468H71.9936ZM73.1135 121.634C73.1135 121.082 73.2267 120.592 73.4532 120.166C73.6864 119.739 73.9994 119.41 74.3924 119.177C74.7921 118.937 75.2317 118.817 75.7113 118.817C76.1443 118.817 76.5207 118.903 76.8404 119.077C77.1668 119.243 77.4266 119.453 77.6197 119.706V118.907H78.7688V124.412H77.6197V123.593C77.4266 123.853 77.1635 124.069 76.8304 124.242C76.4973 124.415 76.1177 124.502 75.6913 124.502C75.2184 124.502 74.7854 124.382 74.3924 124.142C73.9994 123.896 73.6864 123.556 73.4532 123.123C73.2267 122.684 73.1135 122.187 73.1135 121.634ZM77.6197 121.654C77.6197 121.275 77.5398 120.945 77.3799 120.665C77.2267 120.386 77.0236 120.172 76.7704 120.026C76.5173 119.879 76.2442 119.806 75.9511 119.806C75.658 119.806 75.3849 119.879 75.1318 120.026C74.8787 120.166 74.6722 120.376 74.5123 120.655C74.3591 120.928 74.2825 121.255 74.2825 121.634C74.2825 122.014 74.3591 122.347 74.5123 122.634C74.6722 122.92 74.8787 123.14 75.1318 123.293C75.3916 123.44 75.6647 123.513 75.9511 123.513C76.2442 123.513 76.5173 123.44 76.7704 123.293C77.0236 123.147 77.2267 122.933 77.3799 122.654C77.5398 122.367 77.6197 122.034 77.6197 121.654ZM81.4039 119.706C81.5705 119.426 81.7903 119.21 82.0634 119.057C82.3431 118.897 82.6729 118.817 83.0526 118.817V119.996H82.7628C82.3165 119.996 81.9768 120.109 81.7436 120.336C81.5172 120.562 81.4039 120.955 81.4039 121.515V124.412H80.2649V118.907H81.4039V119.706ZM83.7199 121.634C83.7199 121.082 83.8331 120.592 84.0596 120.166C84.2927 119.739 84.6058 119.41 84.9988 119.177C85.3985 118.937 85.8414 118.817 86.3277 118.817C86.6874 118.817 87.0404 118.897 87.3868 119.057C87.7399 119.21 88.0196 119.416 88.2261 119.676V117.018H89.3752V124.412H88.2261V123.583C88.0396 123.849 87.7798 124.069 87.4468 124.242C87.1204 124.415 86.744 124.502 86.3177 124.502C85.8381 124.502 85.3985 124.382 84.9988 124.142C84.6058 123.896 84.2927 123.556 84.0596 123.123C83.8331 122.684 83.7199 122.187 83.7199 121.634ZM88.2261 121.654C88.2261 121.275 88.1462 120.945 87.9863 120.665C87.8331 120.386 87.63 120.172 87.3768 120.026C87.1237 119.879 86.8506 119.806 86.5575 119.806C86.2644 119.806 85.9913 119.879 85.7382 120.026C85.4851 120.166 85.2786 120.376 85.1187 120.655C84.9655 120.928 84.8889 121.255 84.8889 121.634C84.8889 122.014 84.9655 122.347 85.1187 122.634C85.2786 122.92 85.4851 123.14 85.7382 123.293C85.998 123.44 86.2711 123.513 86.5575 123.513C86.8506 123.513 87.1237 123.44 87.3768 123.293C87.63 123.147 87.8331 122.933 87.9863 122.654C88.1462 122.367 88.2261 122.034 88.2261 121.654ZM98.2651 118.907L96.5565 124.412H95.3575L94.2484 120.346L93.1394 124.412H91.9404L90.2218 118.907H91.3808L92.5299 123.333L93.6989 118.907H94.8879L96.007 123.313L97.146 118.907H98.2651ZM98.7367 121.634C98.7367 121.082 98.8499 120.592 99.0764 120.166C99.3095 119.739 99.6226 119.41 100.016 119.177C100.415 118.937 100.855 118.817 101.334 118.817C101.767 118.817 102.144 118.903 102.464 119.077C102.79 119.243 103.05 119.453 103.243 119.706V118.907H104.392V124.412H103.243V123.593C103.05 123.853 102.787 124.069 102.454 124.242C102.121 124.415 101.741 124.502 101.315 124.502C100.842 124.502 100.409 124.382 100.016 124.142C99.6226 123.896 99.3095 123.556 99.0764 123.123C98.8499 122.684 98.7367 122.187 98.7367 121.634ZM103.243 121.654C103.243 121.275 103.163 120.945 103.003 120.665C102.85 120.386 102.647 120.172 102.394 120.026C102.14 119.879 101.867 119.806 101.574 119.806C101.281 119.806 101.008 119.879 100.755 120.026C100.502 120.166 100.295 120.376 100.135 120.655C99.9823 120.928 99.9057 121.255 99.9057 121.634C99.9057 122.014 99.9823 122.347 100.135 122.634C100.295 122.92 100.502 123.14 100.755 123.293C101.015 123.44 101.288 123.513 101.574 123.513C101.867 123.513 102.14 123.44 102.394 123.293C102.647 123.147 102.85 122.933 103.003 122.654C103.163 122.367 103.243 122.034 103.243 121.654ZM107.027 119.706C107.194 119.426 107.413 119.21 107.687 119.057C107.966 118.897 108.296 118.817 108.676 118.817V119.996H108.386C107.94 119.996 107.6 120.109 107.367 120.336C107.14 120.562 107.027 120.955 107.027 121.515V124.412H105.888V118.907H107.027V119.706ZM114.769 121.525C114.769 121.731 114.755 121.918 114.729 122.084H110.522C110.555 122.524 110.719 122.877 111.012 123.143C111.305 123.41 111.664 123.543 112.091 123.543C112.704 123.543 113.137 123.286 113.39 122.774H114.619C114.452 123.28 114.149 123.696 113.709 124.022C113.276 124.342 112.737 124.502 112.091 124.502C111.565 124.502 111.092 124.386 110.672 124.152C110.259 123.913 109.933 123.58 109.693 123.153C109.46 122.72 109.343 122.221 109.343 121.654C109.343 121.088 109.456 120.592 109.683 120.166C109.916 119.733 110.239 119.4 110.652 119.167C111.072 118.933 111.551 118.817 112.091 118.817C112.61 118.817 113.073 118.93 113.48 119.157C113.886 119.383 114.202 119.703 114.429 120.116C114.655 120.522 114.769 120.992 114.769 121.525ZM113.58 121.165C113.573 120.745 113.423 120.409 113.13 120.156C112.837 119.903 112.474 119.776 112.041 119.776C111.648 119.776 111.311 119.903 111.032 120.156C110.752 120.402 110.585 120.739 110.532 121.165H113.58ZM119.814 119.836V122.883C119.814 123.09 119.86 123.24 119.954 123.333C120.054 123.42 120.22 123.463 120.453 123.463H121.153V124.412H120.253C119.741 124.412 119.348 124.292 119.074 124.052C118.801 123.813 118.665 123.423 118.665 122.883V119.836H118.015V118.907H118.665V117.538H119.814V118.907H121.153V119.836H119.814ZM127.248 121.525C127.248 121.731 127.235 121.918 127.208 122.084H123.002C123.035 122.524 123.198 122.877 123.491 123.143C123.785 123.41 124.144 123.543 124.571 123.543C125.183 123.543 125.616 123.286 125.869 122.774H127.098C126.932 123.28 126.629 123.696 126.189 124.022C125.756 124.342 125.217 124.502 124.571 124.502C124.044 124.502 123.571 124.386 123.152 124.152C122.739 123.913 122.412 123.58 122.173 123.153C121.939 122.72 121.823 122.221 121.823 121.654C121.823 121.088 121.936 120.592 122.163 120.166C122.396 119.733 122.719 119.4 123.132 119.167C123.551 118.933 124.031 118.817 124.571 118.817C125.09 118.817 125.553 118.93 125.959 119.157C126.366 119.383 126.682 119.703 126.909 120.116C127.135 120.522 127.248 120.992 127.248 121.525ZM126.059 121.165C126.053 120.745 125.903 120.409 125.61 120.156C125.317 119.903 124.954 119.776 124.521 119.776C124.128 119.776 123.791 119.903 123.511 120.156C123.232 120.402 123.065 120.739 123.012 121.165H126.059ZM127.99 121.634C127.99 121.082 128.103 120.592 128.329 120.166C128.562 119.739 128.876 119.41 129.269 119.177C129.668 118.937 130.108 118.817 130.587 118.817C131.02 118.817 131.397 118.903 131.716 119.077C132.043 119.243 132.303 119.453 132.496 119.706V118.907H133.645V124.412H132.496V123.593C132.303 123.853 132.04 124.069 131.707 124.242C131.373 124.415 130.994 124.502 130.567 124.502C130.095 124.502 129.662 124.382 129.269 124.142C128.876 123.896 128.562 123.556 128.329 123.123C128.103 122.684 127.99 122.187 127.99 121.634ZM132.496 121.654C132.496 121.275 132.416 120.945 132.256 120.665C132.103 120.386 131.9 120.172 131.647 120.026C131.393 119.879 131.12 119.806 130.827 119.806C130.534 119.806 130.261 119.879 130.008 120.026C129.755 120.166 129.548 120.376 129.388 120.655C129.235 120.928 129.159 121.255 129.159 121.634C129.159 122.014 129.235 122.347 129.388 122.634C129.548 122.92 129.755 123.14 130.008 123.293C130.268 123.44 130.541 123.513 130.827 123.513C131.12 123.513 131.393 123.44 131.647 123.293C131.9 123.147 132.103 122.933 132.256 122.654C132.416 122.367 132.496 122.034 132.496 121.654ZM141.805 118.817C142.238 118.817 142.625 118.907 142.964 119.087C143.311 119.266 143.581 119.533 143.774 119.886C143.974 120.239 144.074 120.665 144.074 121.165V124.412H142.944V121.335C142.944 120.842 142.821 120.465 142.575 120.206C142.328 119.939 141.992 119.806 141.566 119.806C141.139 119.806 140.8 119.939 140.546 120.206C140.3 120.465 140.177 120.842 140.177 121.335V124.412H139.048V121.335C139.048 120.842 138.924 120.465 138.678 120.206C138.432 119.939 138.095 119.806 137.669 119.806C137.243 119.806 136.903 119.939 136.65 120.206C136.403 120.465 136.28 120.842 136.28 121.335V124.412H135.141V118.907H136.28V119.536C136.467 119.31 136.703 119.133 136.989 119.007C137.276 118.88 137.582 118.817 137.909 118.817C138.348 118.817 138.741 118.91 139.088 119.097C139.434 119.283 139.701 119.553 139.887 119.906C140.054 119.573 140.313 119.31 140.666 119.117C141.019 118.917 141.399 118.817 141.805 118.817Z" fill="#383838"/>
<path d="M242.451 118V116.961H244.529V124.245H243.38V118H242.451ZM245.944 118V116.961H248.022V124.245H246.873V118H245.944Z" fill="#383838"/>
<path d="M253.154 114.833L250.416 125.943H249.517L252.245 114.833H253.154ZM254.119 117.85V117.021H255.998V124.245H255.078V117.85H254.119ZM262.006 117.73L259.228 124.245H258.309L261.126 117.82H257.27V117.041H262.006V117.73Z" fill="#A9A9A9"/>
<path d="M65.6989 138.391C65.6989 137.931 66.0717 137.559 66.5315 137.559H261.562C262.022 137.559 262.395 137.931 262.395 138.391V141.722C262.395 142.182 262.022 142.555 261.562 142.555H66.5315C66.0717 142.555 65.6989 142.182 65.6989 141.722V138.391Z" fill="#E7E7E7"/>
<rect x="66" y="138" width="124" height="5" rx="0.832639" fill="#0061FE"/>
<path d="M17.5986 175.027C17.5986 170.429 21.3264 166.701 25.9249 166.701H42.5777C47.1763 166.701 50.9041 170.429 50.9041 175.027V190.661C50.9041 195.259 47.1763 198.987 42.5777 198.987H17.5986V175.027Z" fill="#E7E7E7"/>
<path d="M68.7364 177.771C68.2701 177.771 67.8504 177.691 67.4774 177.531C67.1044 177.365 66.8113 177.131 66.5981 176.832C66.385 176.532 66.2784 176.182 66.2784 175.783H67.4974C67.524 176.082 67.6406 176.329 67.8471 176.522C68.0603 176.715 68.3567 176.812 68.7364 176.812C69.1294 176.812 69.4358 176.718 69.6556 176.532C69.8754 176.339 69.9853 176.092 69.9853 175.793C69.9853 175.559 69.9154 175.37 69.7755 175.223C69.6423 175.077 69.4724 174.963 69.2659 174.883C69.0661 174.803 68.7863 174.717 68.4266 174.624C67.9737 174.504 67.604 174.384 67.3175 174.264C67.0378 174.137 66.798 173.944 66.5981 173.684C66.3983 173.425 66.2984 173.078 66.2984 172.645C66.2984 172.246 66.3983 171.896 66.5981 171.596C66.798 171.296 67.0777 171.067 67.4374 170.907C67.7971 170.747 68.2135 170.667 68.6864 170.667C69.3592 170.667 69.9087 170.837 70.335 171.176C70.768 171.509 71.0078 171.969 71.0544 172.555H69.7955C69.7755 172.302 69.6556 172.086 69.4358 171.906C69.216 171.726 68.9262 171.636 68.5665 171.636C68.2401 171.636 67.9737 171.719 67.7672 171.886C67.5607 172.052 67.4574 172.292 67.4574 172.605C67.4574 172.818 67.5207 172.995 67.6473 173.135C67.7805 173.268 67.947 173.375 68.1469 173.455C68.3467 173.534 68.6198 173.621 68.9662 173.714C69.4258 173.841 69.7988 173.967 70.0852 174.094C70.3783 174.221 70.6248 174.417 70.8246 174.684C71.0311 174.943 71.1344 175.293 71.1344 175.733C71.1344 176.086 71.0378 176.419 70.8446 176.732C70.6581 177.045 70.3817 177.298 70.0153 177.491C69.6556 177.678 69.2293 177.771 68.7364 177.771ZM74.8664 177.791C74.3468 177.791 73.8772 177.674 73.4576 177.441C73.0379 177.201 72.7082 176.868 72.4684 176.442C72.2286 176.009 72.1087 175.509 72.1087 174.943C72.1087 174.384 72.2319 173.888 72.4784 173.455C72.7249 173.022 73.0612 172.689 73.4876 172.455C73.9139 172.222 74.3901 172.106 74.9164 172.106C75.4426 172.106 75.9189 172.222 76.3452 172.455C76.7715 172.689 77.1079 173.022 77.3543 173.455C77.6008 173.888 77.724 174.384 77.724 174.943C77.724 175.503 77.5975 175.999 77.3443 176.432C77.0912 176.865 76.7448 177.201 76.3052 177.441C75.8722 177.674 75.3926 177.791 74.8664 177.791ZM74.8664 176.802C75.1595 176.802 75.4326 176.732 75.6857 176.592C75.9455 176.452 76.1553 176.242 76.3152 175.962C76.4751 175.683 76.555 175.343 76.555 174.943C76.555 174.544 76.4784 174.207 76.3252 173.934C76.172 173.654 75.9688 173.445 75.7157 173.305C75.4626 173.165 75.1895 173.095 74.8964 173.095C74.6033 173.095 74.3302 173.165 74.0771 173.305C73.8306 173.445 73.6341 173.654 73.4876 173.934C73.341 174.207 73.2677 174.544 73.2677 174.943C73.2677 175.536 73.4176 175.996 73.7174 176.322C74.0238 176.642 74.4068 176.802 74.8664 176.802ZM81.1581 173.125H80.139V177.701H78.9899V173.125H78.3405V172.196H78.9899V171.806C78.9899 171.173 79.1565 170.713 79.4895 170.427C79.8292 170.134 80.3588 169.987 81.0782 169.987V170.937C80.7318 170.937 80.4887 171.003 80.3488 171.136C80.2089 171.263 80.139 171.486 80.139 171.806V172.196H81.1581V173.125ZM83.4965 173.125V176.172C83.4965 176.379 83.5431 176.529 83.6364 176.622C83.7363 176.708 83.9028 176.752 84.1359 176.752H84.8354V177.701H83.9361C83.4232 177.701 83.0302 177.581 82.7571 177.341C82.484 177.101 82.3474 176.712 82.3474 176.172V173.125H81.698V172.196H82.3474V170.827H83.4965V172.196H84.8354V173.125H83.4965ZM93.279 172.196L91.5704 177.701H90.3714L89.2624 173.634L88.1533 177.701H86.9543L85.2357 172.196H86.3948L87.5438 176.622L88.7128 172.196H89.9018L91.0209 176.602L92.16 172.196H93.279ZM93.7506 174.923C93.7506 174.37 93.8638 173.881 94.0903 173.455C94.3234 173.028 94.6365 172.698 95.0295 172.465C95.4292 172.226 95.8688 172.106 96.3484 172.106C96.7814 172.106 97.1577 172.192 97.4775 172.365C97.8039 172.532 98.0637 172.742 98.2568 172.995V172.196H99.4059V177.701H98.2568V176.882C98.0637 177.141 97.8005 177.358 97.4675 177.531C97.1344 177.704 96.7547 177.791 96.3284 177.791C95.8555 177.791 95.4225 177.671 95.0295 177.431C94.6365 177.185 94.3234 176.845 94.0903 176.412C93.8638 175.972 93.7506 175.476 93.7506 174.923ZM98.2568 174.943C98.2568 174.564 98.1769 174.234 98.017 173.954C97.8638 173.674 97.6607 173.461 97.4075 173.315C97.1544 173.168 96.8813 173.095 96.5882 173.095C96.2951 173.095 96.022 173.168 95.7689 173.315C95.5158 173.455 95.3093 173.664 95.1494 173.944C94.9962 174.217 94.9196 174.544 94.9196 174.923C94.9196 175.303 94.9962 175.636 95.1494 175.922C95.3093 176.209 95.5158 176.429 95.7689 176.582C96.0287 176.728 96.3018 176.802 96.5882 176.802C96.8813 176.802 97.1544 176.728 97.4075 176.582C97.6607 176.435 97.8638 176.222 98.017 175.942C98.1769 175.656 98.2568 175.323 98.2568 174.943ZM102.041 172.995C102.208 172.715 102.427 172.499 102.7 172.345C102.98 172.186 103.31 172.106 103.69 172.106V173.285H103.4C102.954 173.285 102.614 173.398 102.381 173.624C102.154 173.851 102.041 174.244 102.041 174.803V177.701H100.902V172.196H102.041V172.995ZM109.782 174.813C109.782 175.02 109.769 175.206 109.742 175.373H105.536C105.569 175.813 105.732 176.166 106.026 176.432C106.319 176.698 106.678 176.832 107.105 176.832C107.718 176.832 108.15 176.575 108.404 176.062H109.633C109.466 176.569 109.163 176.985 108.723 177.311C108.29 177.631 107.751 177.791 107.105 177.791C106.578 177.791 106.106 177.674 105.686 177.441C105.273 177.201 104.946 176.868 104.707 176.442C104.474 176.009 104.357 175.509 104.357 174.943C104.357 174.377 104.47 173.881 104.697 173.455C104.93 173.022 105.253 172.689 105.666 172.455C106.086 172.222 106.565 172.106 107.105 172.106C107.624 172.106 108.087 172.219 108.494 172.445C108.9 172.672 109.216 172.992 109.443 173.405C109.669 173.811 109.782 174.281 109.782 174.813ZM108.593 174.454C108.587 174.034 108.437 173.698 108.144 173.445C107.851 173.191 107.488 173.065 107.055 173.065C106.662 173.065 106.325 173.191 106.046 173.445C105.766 173.691 105.599 174.027 105.546 174.454H108.593ZM114.828 173.125V176.172C114.828 176.379 114.874 176.529 114.968 176.622C115.068 176.708 115.234 176.752 115.467 176.752H116.167V177.701H115.267C114.754 177.701 114.361 177.581 114.088 177.341C113.815 177.101 113.679 176.712 113.679 176.172V173.125H113.029V172.196H113.679V170.827H114.828V172.196H116.167V173.125H114.828ZM122.262 174.813C122.262 175.02 122.249 175.206 122.222 175.373H118.016C118.049 175.813 118.212 176.166 118.505 176.432C118.798 176.698 119.158 176.832 119.585 176.832C120.197 176.832 120.63 176.575 120.883 176.062H122.112C121.946 176.569 121.643 176.985 121.203 177.311C120.77 177.631 120.231 177.791 119.585 177.791C119.058 177.791 118.585 177.674 118.166 177.441C117.753 177.201 117.426 176.868 117.187 176.442C116.953 176.009 116.837 175.509 116.837 174.943C116.837 174.377 116.95 173.881 117.177 173.455C117.41 173.022 117.733 172.689 118.146 172.455C118.565 172.222 119.045 172.106 119.585 172.106C120.104 172.106 120.567 172.219 120.973 172.445C121.38 172.672 121.696 172.992 121.923 173.405C122.149 173.811 122.262 174.281 122.262 174.813ZM121.073 174.454C121.067 174.034 120.917 173.698 120.624 173.445C120.331 173.191 119.968 173.065 119.535 173.065C119.142 173.065 118.805 173.191 118.525 173.445C118.246 173.691 118.079 174.027 118.026 174.454H121.073ZM123.004 174.923C123.004 174.37 123.117 173.881 123.343 173.455C123.576 173.028 123.889 172.698 124.282 172.465C124.682 172.226 125.122 172.106 125.601 172.106C126.034 172.106 126.411 172.192 126.73 172.365C127.057 172.532 127.317 172.742 127.51 172.995V172.196H128.659V177.701H127.51V176.882C127.317 177.141 127.053 177.358 126.72 177.531C126.387 177.704 126.008 177.791 125.581 177.791C125.108 177.791 124.675 177.671 124.282 177.431C123.889 177.185 123.576 176.845 123.343 176.412C123.117 175.972 123.004 175.476 123.004 174.923ZM127.51 174.943C127.51 174.564 127.43 174.234 127.27 173.954C127.117 173.674 126.914 173.461 126.66 173.315C126.407 173.168 126.134 173.095 125.841 173.095C125.548 173.095 125.275 173.168 125.022 173.315C124.769 173.455 124.562 173.664 124.402 173.944C124.249 174.217 124.173 174.544 124.173 174.923C124.173 175.303 124.249 175.636 124.402 175.922C124.562 176.209 124.769 176.429 125.022 176.582C125.282 176.728 125.555 176.802 125.841 176.802C126.134 176.802 126.407 176.728 126.66 176.582C126.914 176.435 127.117 176.222 127.27 175.942C127.43 175.656 127.51 175.323 127.51 174.943ZM136.819 172.106C137.252 172.106 137.639 172.196 137.978 172.375C138.325 172.555 138.595 172.822 138.788 173.175C138.988 173.528 139.087 173.954 139.087 174.454V177.701H137.958V174.624C137.958 174.131 137.835 173.754 137.589 173.495C137.342 173.228 137.006 173.095 136.58 173.095C136.153 173.095 135.814 173.228 135.56 173.495C135.314 173.754 135.191 174.131 135.191 174.624V177.701H134.062V174.624C134.062 174.131 133.938 173.754 133.692 173.495C133.445 173.228 133.109 173.095 132.683 173.095C132.256 173.095 131.917 173.228 131.664 173.495C131.417 173.754 131.294 174.131 131.294 174.624V177.701H130.155V172.196H131.294V172.825C131.48 172.599 131.717 172.422 132.003 172.296C132.29 172.169 132.596 172.106 132.923 172.106C133.362 172.106 133.755 172.199 134.102 172.385C134.448 172.572 134.714 172.842 134.901 173.195C135.067 172.862 135.327 172.599 135.68 172.405C136.033 172.206 136.413 172.106 136.819 172.106Z" fill="#383838"/>
<path d="M229.356 171.289V170.25H231.435V177.534H230.286V171.289H229.356ZM232.849 171.289V170.25H234.928V177.534H233.779V171.289H232.849ZM236.473 172.048C236.513 171.429 236.749 170.946 237.182 170.599C237.622 170.253 238.181 170.08 238.861 170.08C239.327 170.08 239.73 170.163 240.07 170.33C240.409 170.496 240.666 170.723 240.839 171.009C241.012 171.295 241.099 171.619 241.099 171.978C241.099 172.391 240.989 172.744 240.769 173.037C240.549 173.33 240.286 173.527 239.98 173.627V173.667C240.373 173.787 240.679 174.007 240.899 174.326C241.119 174.639 241.229 175.042 241.229 175.535C241.229 175.928 241.139 176.278 240.959 176.584C240.779 176.891 240.513 177.134 240.159 177.314C239.806 177.487 239.383 177.574 238.891 177.574C238.171 177.574 237.578 177.39 237.112 177.024C236.652 176.651 236.406 176.118 236.373 175.425H237.472C237.498 175.778 237.635 176.068 237.881 176.295C238.128 176.514 238.461 176.624 238.881 176.624C239.287 176.624 239.6 176.514 239.82 176.295C240.04 176.068 240.15 175.778 240.15 175.425C240.15 174.959 240 174.629 239.7 174.436C239.407 174.236 238.954 174.136 238.341 174.136H238.081V173.197H238.351C238.891 173.191 239.3 173.101 239.58 172.927C239.866 172.754 240.01 172.481 240.01 172.108C240.01 171.788 239.906 171.535 239.7 171.349C239.493 171.156 239.2 171.059 238.821 171.059C238.448 171.059 238.158 171.156 237.951 171.349C237.745 171.535 237.622 171.768 237.582 172.048H236.473Z" fill="#383838"/>
<path d="M245.992 168.121L243.254 179.232H242.355L245.083 168.121H245.992ZM246.957 171.139V170.31H248.836V177.534H247.916V171.139H246.957ZM255.004 171.099H251.497V173.377C251.65 173.164 251.876 172.991 252.176 172.858C252.476 172.718 252.799 172.648 253.145 172.648C253.698 172.648 254.148 172.764 254.494 172.997C254.84 173.224 255.087 173.52 255.233 173.887C255.387 174.246 255.463 174.629 255.463 175.036C255.463 175.515 255.373 175.945 255.193 176.325C255.014 176.704 254.737 177.004 254.364 177.224C253.998 177.444 253.541 177.554 252.995 177.554C252.296 177.554 251.73 177.374 251.297 177.014C250.864 176.654 250.601 176.175 250.507 175.575H251.397C251.483 175.955 251.666 176.251 251.946 176.465C252.226 176.678 252.579 176.784 253.005 176.784C253.531 176.784 253.928 176.628 254.194 176.315C254.461 175.995 254.594 175.575 254.594 175.056C254.594 174.536 254.461 174.136 254.194 173.857C253.928 173.57 253.535 173.427 253.015 173.427C252.662 173.427 252.352 173.514 252.086 173.687C251.826 173.853 251.636 174.083 251.517 174.376H250.657V170.3H255.004V171.099ZM260.698 172.028C260.552 171.289 260.095 170.919 259.329 170.919C258.736 170.919 258.293 171.149 258 171.609C257.707 172.062 257.564 172.811 257.571 173.857C257.724 173.51 257.977 173.241 258.33 173.047C258.69 172.848 259.089 172.748 259.529 172.748C260.215 172.748 260.761 172.961 261.168 173.387C261.581 173.813 261.787 174.403 261.787 175.156C261.787 175.609 261.697 176.015 261.517 176.375C261.344 176.734 261.078 177.021 260.718 177.234C260.365 177.447 259.935 177.554 259.429 177.554C258.743 177.554 258.207 177.4 257.821 177.094C257.434 176.788 257.164 176.365 257.011 175.825C256.858 175.286 256.781 174.619 256.781 173.827C256.781 171.382 257.634 170.16 259.339 170.16C259.992 170.16 260.505 170.336 260.878 170.689C261.251 171.042 261.471 171.489 261.537 172.028H260.698ZM259.339 173.517C259.053 173.517 258.783 173.577 258.53 173.697C258.277 173.81 258.07 173.987 257.91 174.226C257.757 174.46 257.681 174.746 257.681 175.086C257.681 175.592 257.827 176.005 258.12 176.325C258.413 176.638 258.833 176.794 259.379 176.794C259.846 176.794 260.215 176.651 260.488 176.365C260.768 176.072 260.908 175.679 260.908 175.186C260.908 174.666 260.775 174.26 260.508 173.967C260.242 173.667 259.852 173.517 259.339 173.517Z" fill="#A9A9A9"/>
<rect x="65.6989" y="190.848" width="196.696" height="4.99583" rx="0.832639" fill="#E7E7E7"/>
<rect x="66" y="191" width="149" height="5" rx="0.832639" fill="#0061FE"/>
<path d="M17.5986 228.316C17.5986 223.718 21.3264 219.99 25.9249 219.99H42.5777C47.1763 219.99 50.9041 223.718 50.9041 228.316V243.95C50.9041 248.548 47.1763 252.276 42.5777 252.276H17.5986V228.316Z" fill="#E7E7E7"/>
<path d="M72.1535 230.99H71.0145L67.5873 225.804V230.99H66.4483V224.036H67.5873L71.0145 229.211V224.036H72.1535V230.99ZM78.6951 228.102C78.6951 228.309 78.6818 228.495 78.6551 228.662H74.4486C74.4819 229.102 74.6451 229.455 74.9382 229.721C75.2313 229.987 75.591 230.121 76.0173 230.121C76.6301 230.121 77.0631 229.864 77.3162 229.351H78.5452C78.3787 229.858 78.0756 230.274 77.636 230.6C77.203 230.92 76.6635 231.08 76.0173 231.08C75.4911 231.08 75.0182 230.963 74.5985 230.73C74.1855 230.49 73.8591 230.157 73.6193 229.731C73.3862 229.298 73.2696 228.798 73.2696 228.232C73.2696 227.666 73.3829 227.17 73.6093 226.744C73.8425 226.311 74.1655 225.977 74.5785 225.744C74.9982 225.511 75.4778 225.395 76.0173 225.395C76.5369 225.395 76.9998 225.508 77.4062 225.734C77.8125 225.961 78.1289 226.281 78.3554 226.694C78.5819 227.1 78.6951 227.569 78.6951 228.102ZM77.5061 227.743C77.4994 227.323 77.3495 226.987 77.0565 226.734C76.7634 226.48 76.4003 226.354 75.9674 226.354C75.5744 226.354 75.238 226.48 74.9582 226.734C74.6784 226.98 74.5119 227.316 74.4586 227.743H77.5061ZM81.1449 226.414V229.461C81.1449 229.668 81.1916 229.818 81.2848 229.911C81.3847 229.997 81.5513 230.041 81.7844 230.041H82.4838V230.99H81.5846C81.0717 230.99 80.6786 230.87 80.4055 230.63C80.1324 230.39 79.9959 230.001 79.9959 229.461V226.414H79.3464V225.485H79.9959V224.116H81.1449V225.485H82.4838V226.414H81.1449ZM90.9275 225.485L89.2189 230.99H88.0199L86.9108 226.923L85.8017 230.99H84.6027L82.8842 225.485H84.0432L85.1922 229.911L86.3613 225.485H87.5503L88.6694 229.891L89.8084 225.485H90.9275ZM94.1667 231.08C93.6472 231.08 93.1775 230.963 92.7579 230.73C92.3382 230.49 92.0085 230.157 91.7687 229.731C91.5289 229.298 91.409 228.798 91.409 228.232C91.409 227.673 91.5322 227.176 91.7787 226.744C92.0252 226.311 92.3616 225.977 92.7879 225.744C93.2142 225.511 93.6904 225.395 94.2167 225.395C94.7429 225.395 95.2192 225.511 95.6455 225.744C96.0718 225.977 96.4082 226.311 96.6546 226.744C96.9011 227.176 97.0243 227.673 97.0243 228.232C97.0243 228.792 96.8978 229.288 96.6447 229.721C96.3915 230.154 96.0452 230.49 95.6055 230.73C95.1725 230.963 94.6929 231.08 94.1667 231.08ZM94.1667 230.091C94.4598 230.091 94.7329 230.021 94.986 229.881C95.2458 229.741 95.4556 229.531 95.6155 229.251C95.7754 228.972 95.8553 228.632 95.8553 228.232C95.8553 227.833 95.7787 227.496 95.6255 227.223C95.4723 226.943 95.2691 226.734 95.016 226.594C94.7629 226.454 94.4898 226.384 94.1967 226.384C93.9036 226.384 93.6305 226.454 93.3774 226.594C93.1309 226.734 92.9344 226.943 92.7879 227.223C92.6413 227.496 92.5681 227.833 92.5681 228.232C92.5681 228.825 92.7179 229.285 93.0177 229.611C93.3241 229.931 93.7071 230.091 94.1667 230.091ZM99.2894 226.284C99.4559 226.004 99.6757 225.788 99.9488 225.634C100.229 225.475 100.558 225.395 100.938 225.395V226.574H100.648C100.202 226.574 99.8623 226.687 99.6291 226.913C99.4026 227.14 99.2894 227.533 99.2894 228.092V230.99H98.1503V225.485H99.2894V226.284ZM104.163 228.242L106.701 230.99H105.162L103.124 228.622V230.99H101.985V223.596H103.124V227.893L105.122 225.485H106.701L104.163 228.242ZM111.442 226.414V229.461C111.442 229.668 111.489 229.818 111.582 229.911C111.682 229.997 111.848 230.041 112.081 230.041H112.781V230.99H111.882C111.369 230.99 110.976 230.87 110.703 230.63C110.429 230.39 110.293 230.001 110.293 229.461V226.414H109.643V225.485H110.293V224.116H111.442V225.485H112.781V226.414H111.442ZM118.876 228.102C118.876 228.309 118.863 228.495 118.836 228.662H114.63C114.663 229.102 114.826 229.455 115.12 229.721C115.413 229.987 115.772 230.121 116.199 230.121C116.811 230.121 117.244 229.864 117.498 229.351H118.727C118.56 229.858 118.257 230.274 117.817 230.6C117.384 230.92 116.845 231.08 116.199 231.08C115.672 231.08 115.199 230.963 114.78 230.73C114.367 230.49 114.04 230.157 113.801 229.731C113.568 229.298 113.451 228.798 113.451 228.232C113.451 227.666 113.564 227.17 113.791 226.744C114.024 226.311 114.347 225.977 114.76 225.744C115.18 225.511 115.659 225.395 116.199 225.395C116.718 225.395 117.181 225.508 117.587 225.734C117.994 225.961 118.31 226.281 118.537 226.694C118.763 227.1 118.876 227.569 118.876 228.102ZM117.687 227.743C117.681 227.323 117.531 226.987 117.238 226.734C116.945 226.48 116.582 226.354 116.149 226.354C115.756 226.354 115.419 226.48 115.14 226.734C114.86 226.98 114.693 227.316 114.64 227.743H117.687ZM119.618 228.212C119.618 227.659 119.731 227.17 119.957 226.744C120.191 226.317 120.504 225.987 120.897 225.754C121.296 225.515 121.736 225.395 122.216 225.395C122.648 225.395 123.025 225.481 123.345 225.654C123.671 225.821 123.931 226.031 124.124 226.284V225.485H125.273V230.99H124.124V230.171C123.931 230.43 123.668 230.647 123.335 230.82C123.002 230.993 122.622 231.08 122.196 231.08C121.723 231.08 121.29 230.96 120.897 230.72C120.504 230.474 120.191 230.134 119.957 229.701C119.731 229.261 119.618 228.765 119.618 228.212ZM124.124 228.232C124.124 227.853 124.044 227.523 123.884 227.243C123.731 226.963 123.528 226.75 123.275 226.604C123.022 226.457 122.748 226.384 122.455 226.384C122.162 226.384 121.889 226.457 121.636 226.604C121.383 226.744 121.176 226.953 121.017 227.233C120.863 227.506 120.787 227.833 120.787 228.212C120.787 228.592 120.863 228.925 121.017 229.211C121.176 229.498 121.383 229.718 121.636 229.871C121.896 230.017 122.169 230.091 122.455 230.091C122.748 230.091 123.022 230.017 123.275 229.871C123.528 229.724 123.731 229.511 123.884 229.231C124.044 228.945 124.124 228.612 124.124 228.232ZM133.434 225.395C133.866 225.395 134.253 225.485 134.593 225.664C134.939 225.844 135.209 226.111 135.402 226.464C135.602 226.817 135.702 227.243 135.702 227.743V230.99H134.573V227.913C134.573 227.42 134.449 227.043 134.203 226.783C133.956 226.517 133.62 226.384 133.194 226.384C132.767 226.384 132.428 226.517 132.175 226.783C131.928 227.043 131.805 227.42 131.805 227.913V230.99H130.676V227.913C130.676 227.42 130.553 227.043 130.306 226.783C130.06 226.517 129.723 226.384 129.297 226.384C128.871 226.384 128.531 226.517 128.278 226.783C128.031 227.043 127.908 227.42 127.908 227.913V230.99H126.769V225.485H127.908V226.114C128.095 225.888 128.331 225.711 128.618 225.584C128.904 225.458 129.21 225.395 129.537 225.395C129.976 225.395 130.369 225.488 130.716 225.674C131.062 225.861 131.329 226.131 131.515 226.484C131.682 226.151 131.941 225.888 132.294 225.694C132.647 225.495 133.027 225.395 133.434 225.395Z" fill="#383838"/>
<path d="M250.294 225.227C250.22 224.921 250.087 224.691 249.894 224.538C249.701 224.385 249.431 224.308 249.085 224.308C248.558 224.308 248.165 224.511 247.906 224.918C247.646 225.317 247.509 225.983 247.496 226.916C247.669 226.623 247.922 226.396 248.255 226.236C248.588 226.077 248.948 225.997 249.334 225.997C249.774 225.997 250.16 226.093 250.493 226.286C250.833 226.473 251.096 226.746 251.283 227.106C251.476 227.465 251.573 227.895 251.573 228.395C251.573 228.861 251.479 229.277 251.293 229.644C251.113 230.01 250.843 230.3 250.483 230.513C250.124 230.719 249.691 230.823 249.185 230.823C248.498 230.823 247.959 230.673 247.566 230.373C247.18 230.067 246.906 229.637 246.747 229.084C246.593 228.531 246.517 227.842 246.517 227.016C246.517 224.578 247.376 223.359 249.095 223.359C249.761 223.359 250.284 223.539 250.663 223.898C251.05 224.258 251.276 224.701 251.343 225.227H250.294ZM249.085 226.956C248.678 226.956 248.332 227.079 248.045 227.326C247.766 227.565 247.626 227.915 247.626 228.375C247.626 228.834 247.756 229.201 248.016 229.474C248.282 229.74 248.652 229.873 249.125 229.873C249.544 229.873 249.874 229.744 250.114 229.484C250.36 229.224 250.483 228.878 250.483 228.445C250.483 227.992 250.364 227.632 250.124 227.365C249.891 227.092 249.544 226.956 249.085 226.956Z" fill="#383838"/>
<path d="M256.355 221.41L253.617 232.521H252.718L255.445 221.41H256.355ZM262.006 224.308L259.228 230.823H258.309L261.126 224.398H257.27V223.619H262.006V224.308Z" fill="#A9A9A9"/>
<rect x="65.6989" y="244.136" width="196.696" height="4.99583" rx="0.832639" fill="#E7E7E7"/>
<rect x="66" y="244" width="166" height="5" rx="0.832639" fill="#0061FE"/>
<path d="M24 63H44.565V83.565H24V63Z" fill="white" fill-opacity="0.01"/>
<path d="M34.2825 71.5687C36.1755 71.5687 37.71 70.0342 37.71 68.1412C37.71 66.2483 36.1755 64.7137 34.2825 64.7137C32.3895 64.7137 30.855 66.2483 30.855 68.1412C30.855 70.0342 32.3895 71.5687 34.2825 71.5687Z" stroke="#0061FE" stroke-width="1.71375" stroke-linecap="round" stroke-linejoin="round"/>
<path d="M41.9944 81.8512C41.9944 77.5921 38.5416 74.1394 34.2825 74.1394C30.0234 74.1394 26.5706 77.5921 26.5706 81.8512" stroke="#0061FE" stroke-width="1.71375" stroke-linecap="round" stroke-linejoin="round"/>
<path d="M24 119H44.565V139.565H24V119Z" fill="white" fill-opacity="0.01"/>
<path d="M31.8335 137.496C30.3977 137.069 29.1197 136.275 28.1078 135.224C28.4853 134.776 28.7128 134.198 28.7128 133.567C28.7128 132.147 27.5619 130.996 26.1422 130.996C26.0563 130.996 25.9714 131 25.8877 131.009C25.7736 130.451 25.7137 129.874 25.7137 129.282C25.7137 128.387 25.8512 127.523 26.1061 126.712C26.1181 126.712 26.1301 126.712 26.1422 126.712C27.5619 126.712 28.7128 125.561 28.7128 124.141C28.7128 123.734 28.618 123.348 28.4491 123.006C29.4401 122.084 30.6496 121.395 31.9913 121.024C32.4164 121.857 33.2828 122.428 34.2825 122.428C35.2822 122.428 36.1486 121.857 36.5737 121.024C37.9154 121.395 39.1249 122.084 40.1158 123.006C39.947 123.348 39.8522 123.734 39.8522 124.141C39.8522 125.561 41.0031 126.712 42.4228 126.712C42.4348 126.712 42.4469 126.712 42.4589 126.712C42.7138 127.523 42.8512 128.387 42.8512 129.282C42.8512 129.874 42.7914 130.451 42.6773 131.009C42.5936 131 42.5087 130.996 42.4228 130.996C41.0031 130.996 39.8522 132.147 39.8522 133.567C39.8522 134.198 40.0797 134.776 40.4572 135.224C39.4453 136.275 38.1673 137.069 36.7315 137.496C36.4002 136.46 35.429 135.709 34.2825 135.709C33.136 135.709 32.1648 136.46 31.8335 137.496Z" fill="#D9D9D9" stroke="#0061FE" stroke-width="1.71375" stroke-linejoin="round"/>
<path d="M34.2825 132.282C35.9388 132.282 37.2816 130.939 37.2816 129.283C37.2816 127.626 35.9388 126.283 34.2825 126.283C32.6262 126.283 31.2834 127.626 31.2834 129.283C31.2834 130.939 32.6262 132.282 34.2825 132.282Z" fill="#0061FE" stroke="white" stroke-width="1.71375" stroke-linejoin="round"/>
<path d="M24 173H44.565V193.565H24V173Z" fill="white" fill-opacity="0.01"/>
<path d="M32.1557 191.851C31.7359 190.482 31.1025 189.462 30.2557 188.789C28.9853 187.781 26.9669 188.408 26.2213 187.368C25.4757 186.328 26.7436 184.415 27.1886 183.286C27.6335 182.158 25.4832 181.759 25.7342 181.438C25.9016 181.225 26.9882 180.608 28.9942 179.589C29.5641 176.339 31.6694 174.714 35.31 174.714C40.7708 174.714 42.8512 179.343 42.8512 182.288C42.8512 185.233 40.3321 188.405 36.7435 189.089C36.4226 189.556 36.8854 190.477 38.1319 191.851" stroke="#0061FE" stroke-width="1.99945" stroke-linecap="round" stroke-linejoin="round"/>
<path fill-rule="evenodd" clip-rule="evenodd" d="M32.3544 179.212C32.0745 180.298 32.1578 181.061 32.6043 181.5C33.0507 181.939 33.8117 182.226 34.8871 182.361C34.6431 183.761 34.9406 184.418 35.7795 184.332C36.6185 184.245 37.1226 183.897 37.2918 183.286C38.6029 183.655 39.3135 183.346 39.4236 182.361C39.5888 180.883 38.7918 179.704 38.4651 179.704C38.1383 179.704 37.2918 179.664 37.2918 179.212C37.2918 178.76 36.303 178.505 35.4105 178.505C34.5181 178.505 35.0552 177.904 33.8297 178.141C33.0127 178.3 32.521 178.657 32.3544 179.212Z" fill="#D9D9D9" stroke="#0061FE" stroke-width="1.71375" stroke-linejoin="round"/>
<path d="M37.0674 183.925C36.6318 184.196 36.0339 184.645 35.7821 184.996C35.1528 185.874 34.6423 186.409 34.5306 186.971" stroke="#0061FE" stroke-width="1.71375" stroke-linecap="round"/>
<path d="M24 225H44.565V245.565H24V225Z" fill="white" fill-opacity="0.01"/>
<path d="M25.7138 233.125C25.966 232.886 26.2258 232.66 26.4924 232.446C31.2993 228.588 38.3021 228.814 42.8513 233.125" stroke="#0061FE" stroke-width="1.71375" stroke-linecap="round" stroke-linejoin="round"/>
<path d="M40.2806 236.053C36.9679 232.741 31.5971 232.741 28.2844 236.053" stroke="#0061FE" stroke-width="1.71375" stroke-linecap="round" stroke-linejoin="round"/>
<path d="M37.71 238.844C35.817 236.951 32.748 236.951 30.855 238.844" stroke="#0061FE" stroke-width="1.71375" stroke-linecap="round" stroke-linejoin="round"/>
<path fill-rule="evenodd" clip-rule="evenodd" d="M34.2825 242.138C34.874 242.138 35.3536 241.658 35.3536 241.066C35.3536 240.475 34.874 239.995 34.2825 239.995C33.691 239.995 33.2114 240.475 33.2114 241.066C33.2114 241.658 33.691 242.138 34.2825 242.138Z" fill="#0061FE"/>
</svg>
