<svg width="614" height="298" viewBox="0 0 614 298" fill="none" xmlns="http://www.w3.org/2000/svg">
<rect width="613.655" height="297.252" rx="8.32639" fill="white"/>
<path d="M55.9 271.978V277.124C55.9 277.697 55.7235 278.156 55.3704 278.503C55.0174 278.842 54.5511 279.012 53.9716 279.012C53.3854 279.012 52.9158 278.839 52.5628 278.493C52.2097 278.14 52.0332 277.66 52.0332 277.054H52.9425C52.9491 277.394 53.0357 277.67 53.2022 277.883C53.3754 278.096 53.6319 278.203 53.9716 278.203C54.3113 278.203 54.5644 278.103 54.731 277.903C54.8975 277.697 54.9808 277.437 54.9808 277.124V271.978H55.9ZM57.3515 276.185C57.3515 275.625 57.4648 275.135 57.6912 274.716C57.9177 274.29 58.2275 273.96 58.6205 273.727C59.0201 273.494 59.4631 273.377 59.9494 273.377C60.429 273.377 60.8453 273.48 61.1983 273.687C61.5514 273.893 61.8145 274.153 61.9877 274.466V273.467H62.9069V278.942H61.9877V277.923C61.8078 278.243 61.538 278.509 61.1783 278.723C60.8253 278.929 60.4123 279.032 59.9394 279.032C59.4531 279.032 59.0135 278.912 58.6205 278.673C58.2275 278.433 57.9177 278.096 57.6912 277.663C57.4648 277.23 57.3515 276.737 57.3515 276.185ZM61.9877 276.195C61.9877 275.782 61.9044 275.422 61.7379 275.116C61.5713 274.809 61.3449 274.576 61.0584 274.416C60.7787 274.25 60.4689 274.166 60.1292 274.166C59.7895 274.166 59.4797 274.246 59.2 274.406C58.9202 274.566 58.6971 274.799 58.5305 275.106C58.364 275.412 58.2807 275.772 58.2807 276.185C58.2807 276.604 58.364 276.971 58.5305 277.284C58.6971 277.59 58.9202 277.827 59.2 277.993C59.4797 278.153 59.7895 278.233 60.1292 278.233C60.4689 278.233 60.7787 278.153 61.0584 277.993C61.3449 277.827 61.5713 277.59 61.7379 277.284C61.9044 276.971 61.9877 276.608 61.9877 276.195ZM67.1112 273.367C67.7773 273.367 68.3169 273.57 68.7298 273.976C69.1428 274.376 69.3493 274.956 69.3493 275.715V278.942H68.4501V275.845C68.4501 275.299 68.3135 274.882 68.0404 274.596C67.7673 274.303 67.3943 274.156 66.9214 274.156C66.4418 274.156 66.0587 274.306 65.7723 274.606C65.4925 274.906 65.3527 275.342 65.3527 275.915V278.942H64.4434V273.467H65.3527V274.246C65.5325 273.966 65.7756 273.75 66.0821 273.597C66.3951 273.444 66.7382 273.367 67.1112 273.367Z" fill="#A9A9A9"/>
<path d="M103.639 271.978V272.718H100.612V275.066H103.07V275.805H100.612V278.942H99.7026V271.978H103.639ZM109.733 275.995C109.733 276.168 109.723 276.351 109.703 276.544H105.327C105.36 277.084 105.544 277.507 105.877 277.813C106.216 278.113 106.626 278.263 107.106 278.263C107.499 278.263 107.825 278.173 108.085 277.993C108.351 277.807 108.538 277.56 108.644 277.254H109.623C109.477 277.78 109.184 278.21 108.744 278.543C108.305 278.869 107.758 279.032 107.106 279.032C106.586 279.032 106.12 278.916 105.707 278.683C105.3 278.449 104.981 278.12 104.748 277.693C104.514 277.26 104.398 276.761 104.398 276.195C104.398 275.628 104.511 275.132 104.738 274.706C104.964 274.28 105.28 273.953 105.687 273.727C106.1 273.494 106.573 273.377 107.106 273.377C107.625 273.377 108.085 273.49 108.484 273.717C108.884 273.943 109.19 274.256 109.404 274.656C109.623 275.049 109.733 275.495 109.733 275.995ZM108.794 275.805C108.794 275.459 108.718 275.162 108.564 274.916C108.411 274.663 108.201 274.473 107.935 274.346C107.675 274.213 107.385 274.146 107.066 274.146C106.606 274.146 106.213 274.293 105.887 274.586C105.567 274.879 105.384 275.285 105.337 275.805H108.794ZM111.843 274.486C112.029 274.16 112.302 273.893 112.662 273.687C113.022 273.48 113.431 273.377 113.891 273.377C114.384 273.377 114.827 273.494 115.22 273.727C115.613 273.96 115.923 274.29 116.149 274.716C116.376 275.135 116.489 275.625 116.489 276.185C116.489 276.737 116.376 277.23 116.149 277.663C115.923 278.096 115.61 278.433 115.21 278.673C114.817 278.912 114.377 279.032 113.891 279.032C113.418 279.032 113.002 278.929 112.642 278.723C112.289 278.516 112.023 278.253 111.843 277.933V278.942H110.934V271.548H111.843V274.486ZM115.56 276.185C115.56 275.772 115.476 275.412 115.31 275.106C115.143 274.799 114.917 274.566 114.63 274.406C114.351 274.246 114.041 274.166 113.701 274.166C113.368 274.166 113.058 274.25 112.772 274.416C112.492 274.576 112.266 274.812 112.093 275.126C111.926 275.432 111.843 275.788 111.843 276.195C111.843 276.608 111.926 276.971 112.093 277.284C112.266 277.59 112.492 277.827 112.772 277.993C113.058 278.153 113.368 278.233 113.701 278.233C114.041 278.233 114.351 278.153 114.63 277.993C114.917 277.827 115.143 277.59 115.31 277.284C115.476 276.971 115.56 276.604 115.56 276.185Z" fill="#A9A9A9"/>
<path d="M153.076 272.028V278.942H152.167V273.787L149.869 278.942H149.23L146.922 273.777V278.942H146.012V272.028H146.992L149.549 277.743L152.107 272.028H153.076ZM154.279 276.185C154.279 275.625 154.392 275.135 154.618 274.716C154.845 274.29 155.155 273.96 155.548 273.727C155.947 273.494 156.39 273.377 156.877 273.377C157.356 273.377 157.773 273.48 158.126 273.687C158.479 273.893 158.742 274.153 158.915 274.466V273.467H159.834V278.942H158.915V277.923C158.735 278.243 158.465 278.509 158.106 278.723C157.753 278.929 157.34 279.032 156.867 279.032C156.38 279.032 155.941 278.912 155.548 278.673C155.155 278.433 154.845 278.096 154.618 277.663C154.392 277.23 154.279 276.737 154.279 276.185ZM158.915 276.195C158.915 275.782 158.832 275.422 158.665 275.116C158.499 274.809 158.272 274.576 157.986 274.416C157.706 274.25 157.396 274.166 157.056 274.166C156.717 274.166 156.407 274.246 156.127 274.406C155.847 274.566 155.624 274.799 155.458 275.106C155.291 275.412 155.208 275.772 155.208 276.185C155.208 276.604 155.291 276.971 155.458 277.284C155.624 277.59 155.847 277.827 156.127 277.993C156.407 278.153 156.717 278.233 157.056 278.233C157.396 278.233 157.706 278.153 157.986 277.993C158.272 277.827 158.499 277.59 158.665 277.284C158.832 276.971 158.915 276.608 158.915 276.195ZM162.28 274.356C162.44 274.043 162.666 273.8 162.959 273.627C163.259 273.454 163.622 273.367 164.048 273.367V274.306H163.809C162.789 274.306 162.28 274.859 162.28 275.965V278.942H161.371V273.467H162.28V274.356Z" fill="#A9A9A9"/>
<path d="M198.439 277.394H195.401L194.842 278.942H193.882L196.4 272.018H197.449L199.957 278.942H198.998L198.439 277.394ZM198.179 276.654L196.92 273.137L195.661 276.654H198.179ZM201.964 274.476C202.144 274.163 202.41 273.903 202.763 273.697C203.123 273.484 203.539 273.377 204.012 273.377C204.499 273.377 204.938 273.494 205.331 273.727C205.731 273.96 206.044 274.29 206.27 274.716C206.497 275.135 206.61 275.625 206.61 276.185C206.61 276.737 206.497 277.23 206.27 277.663C206.044 278.096 205.731 278.433 205.331 278.673C204.938 278.912 204.499 279.032 204.012 279.032C203.546 279.032 203.133 278.929 202.773 278.723C202.42 278.509 202.151 278.246 201.964 277.933V281.54H201.055V273.467H201.964V274.476ZM205.681 276.185C205.681 275.772 205.598 275.412 205.431 275.106C205.265 274.799 205.038 274.566 204.752 274.406C204.472 274.246 204.162 274.166 203.822 274.166C203.489 274.166 203.18 274.25 202.893 274.416C202.613 274.576 202.387 274.812 202.214 275.126C202.047 275.432 201.964 275.788 201.964 276.195C201.964 276.608 202.047 276.971 202.214 277.284C202.387 277.59 202.613 277.827 202.893 277.993C203.18 278.153 203.489 278.233 203.822 278.233C204.162 278.233 204.472 278.153 204.752 277.993C205.038 277.827 205.265 277.59 205.431 277.284C205.598 276.971 205.681 276.604 205.681 276.185ZM208.716 274.356C208.876 274.043 209.103 273.8 209.396 273.627C209.695 273.454 210.058 273.367 210.485 273.367V274.306H210.245C209.226 274.306 208.716 274.859 208.716 275.965V278.942H207.807V273.467H208.716V274.356Z" fill="#A9A9A9"/>
<path d="M247.696 272.028V278.942H246.787V273.787L244.489 278.942H243.849L241.541 273.777V278.942H240.632V272.028H241.611L244.169 277.743L246.727 272.028H247.696ZM248.898 276.185C248.898 275.625 249.011 275.135 249.238 274.716C249.464 274.29 249.774 273.96 250.167 273.727C250.567 273.494 251.01 273.377 251.496 273.377C251.976 273.377 252.392 273.48 252.745 273.687C253.098 273.893 253.361 274.153 253.534 274.466V273.467H254.454V278.942H253.534V277.923C253.354 278.243 253.085 278.509 252.725 278.723C252.372 278.929 251.959 279.032 251.486 279.032C251 279.032 250.56 278.912 250.167 278.673C249.774 278.433 249.464 278.096 249.238 277.663C249.011 277.23 248.898 276.737 248.898 276.185ZM253.534 276.195C253.534 275.782 253.451 275.422 253.285 275.116C253.118 274.809 252.892 274.576 252.605 274.416C252.325 274.25 252.016 274.166 251.676 274.166C251.336 274.166 251.026 274.246 250.747 274.406C250.467 274.566 250.244 274.799 250.077 275.106C249.911 275.412 249.827 275.772 249.827 276.185C249.827 276.604 249.911 276.971 250.077 277.284C250.244 277.59 250.467 277.827 250.747 277.993C251.026 278.153 251.336 278.233 251.676 278.233C252.016 278.233 252.325 278.153 252.605 277.993C252.892 277.827 253.118 277.59 253.285 277.284C253.451 276.971 253.534 276.608 253.534 276.195ZM260.706 273.467L257.409 281.52H256.47L257.549 278.882L255.341 273.467H256.35L258.068 277.903L259.767 273.467H260.706Z" fill="#A9A9A9"/>
<path d="M293.449 271.978V277.124C293.449 277.697 293.272 278.156 292.919 278.503C292.566 278.842 292.1 279.012 291.52 279.012C290.934 279.012 290.464 278.839 290.111 278.493C289.758 278.14 289.582 277.66 289.582 277.054H290.491C290.498 277.394 290.584 277.67 290.751 277.883C290.924 278.096 291.181 278.203 291.52 278.203C291.86 278.203 292.113 278.103 292.28 277.903C292.446 277.697 292.529 277.437 292.529 277.124V271.978H293.449ZM300.096 273.467V278.942H299.187V278.133C299.013 278.413 298.77 278.633 298.457 278.792C298.151 278.946 297.811 279.022 297.438 279.022C297.012 279.022 296.629 278.936 296.289 278.762C295.949 278.583 295.679 278.316 295.48 277.963C295.286 277.61 295.19 277.18 295.19 276.674V273.467H296.089V276.554C296.089 277.094 296.226 277.51 296.499 277.803C296.772 278.09 297.145 278.233 297.618 278.233C298.104 278.233 298.487 278.083 298.767 277.783C299.047 277.484 299.187 277.047 299.187 276.474V273.467H300.096ZM304.299 273.367C304.965 273.367 305.504 273.57 305.917 273.976C306.33 274.376 306.537 274.956 306.537 275.715V278.942H305.638V275.845C305.638 275.299 305.501 274.882 305.228 274.596C304.955 274.303 304.582 274.156 304.109 274.156C303.629 274.156 303.246 274.306 302.96 274.606C302.68 274.906 302.54 275.342 302.54 275.915V278.942H301.631V273.467H302.54V274.246C302.72 273.966 302.963 273.75 303.27 273.597C303.583 273.444 303.926 273.367 304.299 273.367Z" fill="#A9A9A9"/>
<path d="M340.758 271.978V277.124C340.758 277.697 340.582 278.156 340.229 278.503C339.876 278.842 339.409 279.012 338.83 279.012C338.244 279.012 337.774 278.839 337.421 278.493C337.068 278.14 336.892 277.66 336.892 277.054H337.801C337.807 277.394 337.894 277.67 338.061 277.883C338.234 278.096 338.49 278.203 338.83 278.203C339.17 278.203 339.423 278.103 339.589 277.903C339.756 277.697 339.839 277.437 339.839 277.124V271.978H340.758ZM347.406 273.467V278.942H346.496V278.133C346.323 278.413 346.08 278.633 345.767 278.792C345.46 278.946 345.121 279.022 344.748 279.022C344.321 279.022 343.938 278.936 343.599 278.762C343.259 278.583 342.989 278.316 342.789 277.963C342.596 277.61 342.5 277.18 342.5 276.674V273.467H343.399V276.554C343.399 277.094 343.535 277.51 343.809 277.803C344.082 278.09 344.455 278.233 344.928 278.233C345.414 278.233 345.797 278.083 346.077 277.783C346.356 277.484 346.496 277.047 346.496 276.474V273.467H347.406ZM349.85 271.548V278.942H348.941V271.548H349.85Z" fill="#A9A9A9"/>
<path d="M384.678 277.394H381.64L381.081 278.942H380.121L382.639 272.018H383.688L386.196 278.942H385.237L384.678 277.394ZM384.418 276.654L383.159 273.137L381.9 276.654H384.418ZM392.15 273.467V278.942H391.24V278.133C391.067 278.413 390.824 278.633 390.511 278.792C390.205 278.946 389.865 279.022 389.492 279.022C389.066 279.022 388.682 278.936 388.343 278.762C388.003 278.583 387.733 278.316 387.533 277.963C387.34 277.61 387.244 277.18 387.244 276.674V273.467H388.143V276.554C388.143 277.094 388.279 277.51 388.553 277.803C388.826 278.09 389.199 278.233 389.672 278.233C390.158 278.233 390.541 278.083 390.821 277.783C391.1 277.484 391.24 277.047 391.24 276.474V273.467H392.15ZM395.943 273.377C396.416 273.377 396.829 273.48 397.182 273.687C397.542 273.893 397.808 274.153 397.981 274.466V273.467H398.9V279.062C398.9 279.562 398.794 280.005 398.581 280.391C398.368 280.784 398.061 281.091 397.661 281.31C397.268 281.53 396.809 281.64 396.283 281.64C395.563 281.64 394.964 281.47 394.484 281.13C394.005 280.791 393.721 280.328 393.635 279.742H394.534C394.634 280.075 394.841 280.341 395.154 280.541C395.467 280.747 395.843 280.851 396.283 280.851C396.782 280.851 397.189 280.694 397.502 280.381C397.821 280.068 397.981 279.628 397.981 279.062V277.913C397.801 278.233 397.535 278.499 397.182 278.713C396.829 278.926 396.416 279.032 395.943 279.032C395.457 279.032 395.014 278.912 394.614 278.673C394.221 278.433 393.911 278.096 393.685 277.663C393.458 277.23 393.345 276.737 393.345 276.185C393.345 275.625 393.458 275.135 393.685 274.716C393.911 274.29 394.221 273.96 394.614 273.727C395.014 273.494 395.457 273.377 395.943 273.377ZM397.981 276.195C397.981 275.782 397.898 275.422 397.731 275.116C397.565 274.809 397.338 274.576 397.052 274.416C396.772 274.25 396.462 274.166 396.123 274.166C395.783 274.166 395.473 274.246 395.194 274.406C394.914 274.566 394.691 274.799 394.524 275.106C394.358 275.412 394.274 275.772 394.274 276.185C394.274 276.604 394.358 276.971 394.524 277.284C394.691 277.59 394.914 277.827 395.194 277.993C395.473 278.153 395.783 278.233 396.123 278.233C396.462 278.233 396.772 278.153 397.052 277.993C397.338 277.827 397.565 277.59 397.731 277.284C397.898 276.971 397.981 276.608 397.981 276.195Z" fill="#A9A9A9"/>
<path d="M431.079 279.012C430.619 279.012 430.206 278.932 429.84 278.772C429.48 278.606 429.197 278.379 428.991 278.093C428.784 277.8 428.678 277.464 428.671 277.084H429.64C429.673 277.41 429.807 277.687 430.04 277.913C430.28 278.133 430.626 278.243 431.079 278.243C431.512 278.243 431.852 278.136 432.098 277.923C432.351 277.703 432.478 277.424 432.478 277.084C432.478 276.817 432.404 276.601 432.258 276.434C432.111 276.268 431.928 276.141 431.708 276.055C431.489 275.968 431.192 275.875 430.819 275.775C430.359 275.655 429.99 275.535 429.71 275.415C429.437 275.295 429.2 275.109 429.001 274.856C428.807 274.596 428.711 274.25 428.711 273.817C428.711 273.437 428.807 273.101 429.001 272.807C429.194 272.514 429.464 272.288 429.81 272.128C430.163 271.968 430.566 271.888 431.019 271.888C431.672 271.888 432.205 272.051 432.618 272.378C433.037 272.704 433.274 273.137 433.327 273.677H432.328C432.295 273.41 432.155 273.177 431.908 272.977C431.662 272.771 431.335 272.668 430.929 272.668C430.549 272.668 430.24 272.767 430 272.967C429.76 273.16 429.64 273.434 429.64 273.787C429.64 274.04 429.71 274.246 429.85 274.406C429.996 274.566 430.173 274.689 430.379 274.776C430.593 274.856 430.889 274.949 431.269 275.056C431.728 275.182 432.098 275.309 432.378 275.435C432.658 275.555 432.897 275.745 433.097 276.005C433.297 276.258 433.397 276.604 433.397 277.044C433.397 277.384 433.307 277.703 433.127 278.003C432.947 278.303 432.681 278.546 432.328 278.732C431.975 278.919 431.558 279.012 431.079 279.012ZM439.731 275.995C439.731 276.168 439.721 276.351 439.701 276.544H435.324C435.358 277.084 435.541 277.507 435.874 277.813C436.214 278.113 436.623 278.263 437.103 278.263C437.496 278.263 437.822 278.173 438.082 277.993C438.349 277.807 438.535 277.56 438.642 277.254H439.621C439.474 277.78 439.181 278.21 438.742 278.543C438.302 278.869 437.756 279.032 437.103 279.032C436.583 279.032 436.117 278.916 435.704 278.683C435.298 278.449 434.978 278.12 434.745 277.693C434.512 277.26 434.395 276.761 434.395 276.195C434.395 275.628 434.508 275.132 434.735 274.706C434.961 274.28 435.278 273.953 435.684 273.727C436.097 273.494 436.57 273.377 437.103 273.377C437.623 273.377 438.082 273.49 438.482 273.717C438.881 273.943 439.188 274.256 439.401 274.656C439.621 275.049 439.731 275.495 439.731 275.995ZM438.792 275.805C438.792 275.459 438.715 275.162 438.562 274.916C438.409 274.663 438.199 274.473 437.932 274.346C437.673 274.213 437.383 274.146 437.063 274.146C436.603 274.146 436.21 274.293 435.884 274.586C435.564 274.879 435.381 275.285 435.334 275.805H438.792ZM441.84 274.476C442.02 274.163 442.286 273.903 442.64 273.697C442.999 273.484 443.416 273.377 443.888 273.377C444.375 273.377 444.814 273.494 445.207 273.727C445.607 273.96 445.92 274.29 446.147 274.716C446.373 275.135 446.486 275.625 446.486 276.185C446.486 276.737 446.373 277.23 446.147 277.663C445.92 278.096 445.607 278.433 445.207 278.673C444.814 278.912 444.375 279.032 443.888 279.032C443.422 279.032 443.009 278.929 442.65 278.723C442.296 278.509 442.027 278.246 441.84 277.933V281.54H440.931V273.467H441.84V274.476ZM445.557 276.185C445.557 275.772 445.474 275.412 445.307 275.106C445.141 274.799 444.914 274.566 444.628 274.406C444.348 274.246 444.038 274.166 443.699 274.166C443.366 274.166 443.056 274.25 442.769 274.416C442.49 274.576 442.263 274.812 442.09 275.126C441.923 275.432 441.84 275.788 441.84 276.195C441.84 276.608 441.923 276.971 442.09 277.284C442.263 277.59 442.49 277.827 442.769 277.993C443.056 278.153 443.366 278.233 443.699 278.233C444.038 278.233 444.348 278.153 444.628 277.993C444.914 277.827 445.141 277.59 445.307 277.284C445.474 276.971 445.557 276.604 445.557 276.185Z" fill="#A9A9A9"/>
<path d="M479.338 279.012C478.692 279.012 478.102 278.862 477.569 278.563C477.036 278.256 476.613 277.833 476.3 277.294C475.994 276.747 475.841 276.135 475.841 275.455C475.841 274.776 475.994 274.166 476.3 273.627C476.613 273.081 477.036 272.658 477.569 272.358C478.102 272.051 478.692 271.898 479.338 271.898C479.991 271.898 480.583 272.051 481.116 272.358C481.649 272.658 482.069 273.077 482.375 273.617C482.682 274.156 482.835 274.769 482.835 275.455C482.835 276.141 482.682 276.754 482.375 277.294C482.069 277.833 481.649 278.256 481.116 278.563C480.583 278.862 479.991 279.012 479.338 279.012ZM479.338 278.223C479.824 278.223 480.26 278.11 480.647 277.883C481.04 277.657 481.346 277.334 481.566 276.914C481.792 276.494 481.906 276.008 481.906 275.455C481.906 274.896 481.792 274.409 481.566 273.996C481.346 273.577 481.043 273.254 480.657 273.027C480.27 272.801 479.831 272.688 479.338 272.688C478.845 272.688 478.405 272.801 478.019 273.027C477.633 273.254 477.326 273.577 477.1 273.996C476.88 274.409 476.77 274.896 476.77 275.455C476.77 276.008 476.88 276.494 477.1 276.914C477.326 277.334 477.633 277.657 478.019 277.883C478.412 278.11 478.852 278.223 479.338 278.223ZM483.695 276.195C483.695 275.628 483.809 275.135 484.035 274.716C484.262 274.29 484.575 273.96 484.974 273.727C485.381 273.494 485.844 273.377 486.363 273.377C487.036 273.377 487.589 273.54 488.022 273.867C488.462 274.193 488.751 274.646 488.891 275.225H487.912C487.819 274.892 487.636 274.629 487.362 274.436C487.096 274.243 486.763 274.146 486.363 274.146C485.844 274.146 485.424 274.326 485.104 274.686C484.785 275.039 484.625 275.542 484.625 276.195C484.625 276.854 484.785 277.364 485.104 277.723C485.424 278.083 485.844 278.263 486.363 278.263C486.763 278.263 487.096 278.17 487.362 277.983C487.629 277.797 487.812 277.53 487.912 277.184H488.891C488.745 277.743 488.452 278.193 488.012 278.533C487.572 278.866 487.023 279.032 486.363 279.032C485.844 279.032 485.381 278.916 484.974 278.683C484.575 278.449 484.262 278.12 484.035 277.693C483.809 277.267 483.695 276.767 483.695 276.195ZM491.213 274.216V277.444C491.213 277.71 491.27 277.9 491.383 278.013C491.497 278.12 491.693 278.173 491.973 278.173H492.642V278.942H491.823C491.317 278.942 490.937 278.826 490.684 278.593C490.431 278.359 490.304 277.976 490.304 277.444V274.216H489.595V273.467H490.304V272.088H491.213V273.467H492.642V274.216H491.213Z" fill="#A9A9A9"/>
<path d="M527.966 278.942H527.056L523.399 273.397V278.942H522.49V271.968H523.399L527.056 277.504V271.968H527.966V278.942ZM531.904 279.032C531.391 279.032 530.924 278.916 530.505 278.683C530.092 278.449 529.765 278.12 529.526 277.693C529.292 277.26 529.176 276.761 529.176 276.195C529.176 275.635 529.296 275.142 529.536 274.716C529.782 274.283 530.115 273.953 530.535 273.727C530.954 273.494 531.424 273.377 531.944 273.377C532.463 273.377 532.933 273.494 533.352 273.727C533.772 273.953 534.102 274.28 534.342 274.706C534.588 275.132 534.711 275.628 534.711 276.195C534.711 276.761 534.585 277.26 534.332 277.693C534.085 278.12 533.749 278.449 533.322 278.683C532.896 278.916 532.423 279.032 531.904 279.032ZM531.904 278.233C532.23 278.233 532.536 278.156 532.823 278.003C533.109 277.85 533.339 277.62 533.512 277.314C533.692 277.007 533.782 276.634 533.782 276.195C533.782 275.755 533.695 275.382 533.522 275.076C533.349 274.769 533.123 274.543 532.843 274.396C532.563 274.243 532.26 274.166 531.934 274.166C531.6 274.166 531.294 274.243 531.014 274.396C530.741 274.543 530.521 274.769 530.355 275.076C530.188 275.382 530.105 275.755 530.105 276.195C530.105 276.641 530.185 277.017 530.345 277.324C530.511 277.63 530.731 277.86 531.004 278.013C531.277 278.16 531.577 278.233 531.904 278.233ZM537.945 278.103L539.644 273.467H540.613L538.465 278.942H537.405L535.257 273.467H536.236L537.945 278.103Z" fill="#A9A9A9"/>
<path d="M572.968 271.978C573.727 271.978 574.384 272.121 574.936 272.408C575.496 272.688 575.922 273.091 576.215 273.617C576.515 274.143 576.665 274.762 576.665 275.475C576.665 276.188 576.515 276.807 576.215 277.334C575.922 277.853 575.496 278.253 574.936 278.533C574.384 278.806 573.727 278.942 572.968 278.942H570.8V271.978H572.968ZM572.968 278.193C573.867 278.193 574.553 277.956 575.026 277.484C575.499 277.004 575.736 276.334 575.736 275.475C575.736 274.609 575.496 273.933 575.016 273.447C574.543 272.961 573.861 272.718 572.968 272.718H571.709V278.193H572.968ZM582.86 275.995C582.86 276.168 582.85 276.351 582.83 276.544H578.454C578.487 277.084 578.67 277.507 579.003 277.813C579.343 278.113 579.753 278.263 580.232 278.263C580.625 278.263 580.952 278.173 581.211 277.993C581.478 277.807 581.664 277.56 581.771 277.254H582.75C582.604 277.78 582.311 278.21 581.871 278.543C581.431 278.869 580.885 279.032 580.232 279.032C579.713 279.032 579.246 278.916 578.833 278.683C578.427 278.449 578.107 278.12 577.874 277.693C577.641 277.26 577.525 276.761 577.525 276.195C577.525 275.628 577.638 275.132 577.864 274.706C578.091 274.28 578.407 273.953 578.813 273.727C579.226 273.494 579.699 273.377 580.232 273.377C580.752 273.377 581.211 273.49 581.611 273.717C582.011 273.943 582.317 274.256 582.53 274.656C582.75 275.049 582.86 275.495 582.86 275.995ZM581.921 275.805C581.921 275.459 581.844 275.162 581.691 274.916C581.538 274.663 581.328 274.473 581.062 274.346C580.802 274.213 580.512 274.146 580.192 274.146C579.733 274.146 579.34 274.293 579.013 274.586C578.694 274.879 578.51 275.285 578.464 275.805H581.921ZM583.721 276.195C583.721 275.628 583.834 275.135 584.06 274.716C584.287 274.29 584.6 273.96 584.999 273.727C585.406 273.494 585.869 273.377 586.388 273.377C587.061 273.377 587.614 273.54 588.047 273.867C588.487 274.193 588.776 274.646 588.916 275.225H587.937C587.844 274.892 587.661 274.629 587.387 274.436C587.121 274.243 586.788 274.146 586.388 274.146C585.869 274.146 585.449 274.326 585.129 274.686C584.81 275.039 584.65 275.542 584.65 276.195C584.65 276.854 584.81 277.364 585.129 277.723C585.449 278.083 585.869 278.263 586.388 278.263C586.788 278.263 587.121 278.17 587.387 277.983C587.654 277.797 587.837 277.53 587.937 277.184H588.916C588.77 277.743 588.477 278.193 588.037 278.533C587.597 278.866 587.048 279.032 586.388 279.032C585.869 279.032 585.406 278.916 584.999 278.683C584.6 278.449 584.287 278.12 584.06 277.693C583.834 277.267 583.721 276.767 583.721 276.195Z" fill="#A9A9A9"/>
<path d="M383.027 25.6844V32.6486H382.118V25.6844H383.027ZM387.245 27.0732C387.911 27.0732 388.45 27.2764 388.863 27.6827C389.276 28.0824 389.483 28.6619 389.483 29.4213V32.6486H388.583V29.5511C388.583 29.0049 388.447 28.5886 388.174 28.3022C387.901 28.0091 387.528 27.8626 387.055 27.8626C386.575 27.8626 386.192 28.0124 385.906 28.3122C385.626 28.6119 385.486 29.0482 385.486 29.6211V32.6486H384.577L384.577 27.1731H385.486V27.9525C385.666 27.6727 385.909 27.4562 386.215 27.303C386.529 27.1498 386.872 27.0732 387.245 27.0732ZM390.628 29.9009C390.628 29.3347 390.741 28.8417 390.968 28.4221C391.194 27.9958 391.508 27.666 391.907 27.4329C392.314 27.1998 392.776 27.0832 393.296 27.0832C393.969 27.0832 394.522 27.2464 394.955 27.5728C395.394 27.8992 395.684 28.3521 395.824 28.9317H394.845C394.751 28.5986 394.568 28.3355 394.295 28.1423C394.029 27.9491 393.696 27.8526 393.296 27.8526C392.776 27.8526 392.357 28.0324 392.037 28.3921C391.717 28.7451 391.557 29.2481 391.557 29.9009C391.557 30.5603 391.717 31.0699 392.037 31.4296C392.357 31.7893 392.776 31.9691 393.296 31.9691C393.696 31.9691 394.029 31.8759 394.295 31.6894C394.562 31.5028 394.745 31.2364 394.845 30.89H395.824C395.677 31.4496 395.384 31.8992 394.945 32.2389C394.505 32.572 393.955 32.7385 393.296 32.7385C392.776 32.7385 392.314 32.6219 391.907 32.3888C391.508 32.1556 391.194 31.8259 390.968 31.3996C390.741 30.9733 390.628 30.4737 390.628 29.9009ZM399.425 32.7385C398.912 32.7385 398.446 32.6219 398.026 32.3888C397.613 32.1556 397.287 31.8259 397.047 31.3996C396.814 30.9666 396.697 30.467 396.697 29.9009C396.697 29.3413 396.817 28.8484 397.057 28.4221C397.304 27.9891 397.637 27.6594 398.056 27.4329C398.476 27.1998 398.946 27.0832 399.465 27.0832C399.985 27.0832 400.454 27.1998 400.874 27.4329C401.294 27.6594 401.623 27.9858 401.863 28.4121C402.11 28.8384 402.233 29.3347 402.233 29.9009C402.233 30.467 402.106 30.9666 401.853 31.3996C401.607 31.8259 401.27 32.1556 400.844 32.3888C400.418 32.6219 399.945 32.7385 399.425 32.7385ZM399.425 31.9392C399.752 31.9392 400.058 31.8625 400.344 31.7093C400.631 31.5561 400.861 31.3263 401.034 31.0199C401.214 30.7135 401.304 30.3405 401.304 29.9009C401.304 29.4612 401.217 29.0882 401.044 28.7818C400.871 28.4754 400.644 28.2489 400.364 28.1024C400.085 27.9491 399.782 27.8725 399.455 27.8725C399.122 27.8725 398.816 27.9491 398.536 28.1024C398.263 28.2489 398.043 28.4754 397.876 28.7818C397.71 29.0882 397.627 29.4612 397.627 29.9009C397.627 30.3471 397.707 30.7235 397.866 31.0299C398.033 31.3363 398.253 31.5661 398.526 31.7193C398.799 31.8659 399.099 31.9392 399.425 31.9392ZM410.013 27.0732C410.439 27.0732 410.819 27.1631 411.152 27.343C411.485 27.5162 411.748 27.7793 411.941 28.1323C412.134 28.4854 412.231 28.915 412.231 29.4213V32.6486H411.332V29.5511C411.332 29.0049 411.195 28.5886 410.922 28.3022C410.656 28.0091 410.293 27.8626 409.833 27.8626C409.36 27.8626 408.984 28.0158 408.704 28.3222C408.424 28.6219 408.284 29.0582 408.284 29.6311V32.6486H407.385V29.5511C407.385 29.0049 407.248 28.5886 406.975 28.3022C406.709 28.0091 406.346 27.8626 405.886 27.8626C405.413 27.8626 405.037 28.0158 404.757 28.3222C404.477 28.6219 404.338 29.0582 404.338 29.6311V32.6486H403.428V27.1731H404.338V27.9625C404.517 27.676 404.757 27.4562 405.057 27.303C405.363 27.1498 405.7 27.0732 406.066 27.0732C406.526 27.0732 406.932 27.1765 407.285 27.383C407.638 27.5894 407.901 27.8925 408.074 28.2922C408.228 27.9058 408.481 27.6061 408.834 27.3929C409.187 27.1798 409.58 27.0732 410.013 27.0732ZM418.718 29.701C418.718 29.8742 418.708 30.0574 418.688 30.2506H414.312C414.345 30.7901 414.528 31.2131 414.861 31.5195C415.201 31.8193 415.611 31.9691 416.09 31.9691C416.483 31.9691 416.81 31.8792 417.07 31.6994C417.336 31.5128 417.523 31.2664 417.629 30.96H418.608C418.462 31.4862 418.169 31.9158 417.729 32.2489C417.289 32.5753 416.743 32.7385 416.09 32.7385C415.571 32.7385 415.105 32.6219 414.692 32.3888C414.285 32.1556 413.966 31.8259 413.732 31.3996C413.499 30.9666 413.383 30.467 413.383 29.9009C413.383 29.3347 413.496 28.8384 413.722 28.4121C413.949 27.9858 414.265 27.6594 414.672 27.4329C415.085 27.1998 415.558 27.0832 416.09 27.0832C416.61 27.0832 417.07 27.1964 417.469 27.4229C417.869 27.6494 418.175 27.9625 418.389 28.3621C418.608 28.7551 418.718 29.2014 418.718 29.701ZM417.779 29.5112C417.779 29.1648 417.702 28.8684 417.549 28.6219C417.396 28.3688 417.186 28.179 416.92 28.0524C416.66 27.9192 416.37 27.8526 416.05 27.8526C415.591 27.8526 415.198 27.9991 414.871 28.2922C414.552 28.5853 414.369 28.9916 414.322 29.5112H417.779Z" fill="#9A9A9A"/>
<circle cx="368.859" cy="29.1423" r="4.16319" fill="#FB4E0B"/>
<circle cx="436.303" cy="29.1423" r="4.16319" fill="#BABABA"/>
<path d="M450.471 26.4238V28.7518H453.009V29.5012H450.471V31.8992H453.308V32.6486H449.562V25.6744H453.308V26.4238H450.471ZM457.542 32.6486L456.243 30.6103L454.994 32.6486H454.045L455.813 29.9308L454.045 27.1731H455.074L456.373 29.2014L457.612 27.1731H458.561L456.802 29.8809L458.571 32.6486H457.542ZM460.375 28.1823C460.554 27.8692 460.821 27.6094 461.174 27.4029C461.534 27.1898 461.95 27.0832 462.423 27.0832C462.909 27.0832 463.349 27.1998 463.742 27.4329C464.142 27.666 464.455 27.9958 464.681 28.4221C464.908 28.8417 465.021 29.3313 465.021 29.8909C465.021 30.4437 464.908 30.9367 464.681 31.3696C464.455 31.8026 464.142 32.139 463.742 32.3788C463.349 32.6186 462.909 32.7385 462.423 32.7385C461.957 32.7385 461.544 32.6352 461.184 32.4287C460.831 32.2156 460.561 31.9525 460.375 31.6394V35.2464H459.465V27.1731H460.375V28.1823ZM464.092 29.8909C464.092 29.4779 464.008 29.1182 463.842 28.8118C463.675 28.5053 463.449 28.2722 463.162 28.1123C462.883 27.9525 462.573 27.8725 462.233 27.8725C461.9 27.8725 461.59 27.9558 461.304 28.1223C461.024 28.2822 460.798 28.5187 460.624 28.8317C460.458 29.1382 460.375 29.4945 460.375 29.9009C460.375 30.3138 460.458 30.6769 460.624 30.9899C460.798 31.2964 461.024 31.5328 461.304 31.6994C461.59 31.8592 461.9 31.9392 462.233 31.9392C462.573 31.9392 462.883 31.8592 463.162 31.6994C463.449 31.5328 463.675 31.2964 463.842 30.9899C464.008 30.6769 464.092 30.3105 464.092 29.8909ZM471.213 29.701C471.213 29.8742 471.203 30.0574 471.183 30.2506H466.807C466.84 30.7901 467.024 31.2131 467.357 31.5195C467.696 31.8193 468.106 31.9691 468.586 31.9691C468.979 31.9691 469.305 31.8792 469.565 31.6994C469.831 31.5128 470.018 31.2664 470.124 30.96H471.104C470.957 31.4862 470.664 31.9158 470.224 32.2489C469.785 32.5753 469.238 32.7385 468.586 32.7385C468.066 32.7385 467.6 32.6219 467.187 32.3888C466.78 32.1556 466.461 31.8259 466.228 31.3996C465.994 30.9666 465.878 30.467 465.878 29.9009C465.878 29.3347 465.991 28.8384 466.218 28.4121C466.444 27.9858 466.76 27.6594 467.167 27.4329C467.58 27.1998 468.053 27.0832 468.586 27.0832C469.105 27.0832 469.565 27.1964 469.964 27.4229C470.364 27.6494 470.671 27.9625 470.884 28.3621C471.104 28.7551 471.213 29.2014 471.213 29.701ZM470.274 29.5112C470.274 29.1648 470.198 28.8684 470.044 28.6219C469.891 28.3688 469.681 28.179 469.415 28.0524C469.155 27.9192 468.865 27.8526 468.546 27.8526C468.086 27.8526 467.693 27.9991 467.367 28.2922C467.047 28.5853 466.864 28.9916 466.817 29.5112H470.274ZM475.081 27.0732C475.747 27.0732 476.287 27.2764 476.7 27.6827C477.113 28.0824 477.32 28.6619 477.32 29.4213V32.6486H476.42V29.5511C476.42 29.0049 476.284 28.5886 476.011 28.3022C475.737 28.0091 475.364 27.8626 474.892 27.8626C474.412 27.8626 474.029 28.0124 473.742 28.3122C473.463 28.6119 473.323 29.0482 473.323 29.6211V32.6486H472.414V27.1731H473.323V27.9525C473.503 27.6727 473.746 27.4562 474.052 27.303C474.365 27.1498 474.708 27.0732 475.081 27.0732ZM480.743 32.7385C480.323 32.7385 479.947 32.6685 479.614 32.5287C479.281 32.3821 479.018 32.1823 478.825 31.9292C478.632 31.6694 478.525 31.373 478.505 31.0399H479.444C479.471 31.313 479.597 31.5362 479.824 31.7093C480.057 31.8825 480.36 31.9691 480.733 31.9691C481.08 31.9691 481.353 31.8925 481.552 31.7393C481.752 31.5861 481.852 31.3929 481.852 31.1598C481.852 30.92 481.746 30.7435 481.532 30.6302C481.319 30.5103 480.99 30.3938 480.543 30.2805C480.137 30.174 479.804 30.0674 479.544 29.9608C479.291 29.8476 479.071 29.6844 478.885 29.4712C478.705 29.2514 478.615 28.965 478.615 28.6119C478.615 28.3322 478.698 28.0757 478.865 27.8426C479.031 27.6094 479.268 27.4262 479.574 27.293C479.881 27.1531 480.23 27.0832 480.623 27.0832C481.229 27.0832 481.719 27.2364 482.092 27.5428C482.465 27.8492 482.665 28.2689 482.692 28.8018H481.782C481.762 28.5153 481.646 28.2855 481.433 28.1123C481.226 27.9392 480.946 27.8526 480.593 27.8526C480.267 27.8526 480.007 27.9225 479.814 28.0624C479.621 28.2023 479.524 28.3854 479.524 28.6119C479.524 28.7918 479.581 28.9417 479.694 29.0616C479.814 29.1748 479.96 29.268 480.134 29.3413C480.313 29.4079 480.56 29.4845 480.873 29.5711C481.266 29.6777 481.586 29.7843 481.832 29.8909C482.079 29.9908 482.289 30.144 482.462 30.3505C482.642 30.557 482.735 30.8267 482.741 31.1598C482.741 31.4596 482.658 31.7293 482.492 31.9691C482.325 32.2089 482.089 32.3988 481.782 32.5387C481.483 32.6719 481.136 32.7385 480.743 32.7385ZM489.021 29.701C489.021 29.8742 489.011 30.0574 488.991 30.2506H484.615C484.648 30.7901 484.831 31.2131 485.164 31.5195C485.504 31.8193 485.913 31.9691 486.393 31.9691C486.786 31.9691 487.112 31.8792 487.372 31.6994C487.639 31.5128 487.825 31.2664 487.932 30.96H488.911C488.764 31.4862 488.471 31.9158 488.032 32.2489C487.592 32.5753 487.046 32.7385 486.393 32.7385C485.873 32.7385 485.407 32.6219 484.994 32.3888C484.588 32.1556 484.268 31.8259 484.035 31.3996C483.802 30.9666 483.685 30.467 483.685 29.9009C483.685 29.3347 483.799 28.8384 484.025 28.4121C484.251 27.9858 484.568 27.6594 484.974 27.4329C485.387 27.1998 485.86 27.0832 486.393 27.0832C486.913 27.0832 487.372 27.1964 487.772 27.4229C488.172 27.6494 488.478 27.9625 488.691 28.3621C488.911 28.7551 489.021 29.2014 489.021 29.701ZM488.082 29.5112C488.082 29.1648 488.005 28.8684 487.852 28.6219C487.699 28.3688 487.489 28.179 487.222 28.0524C486.963 27.9192 486.673 27.8526 486.353 27.8526C485.893 27.8526 485.5 27.9991 485.174 28.2922C484.854 28.5853 484.671 28.9916 484.625 29.5112H488.082ZM492.159 32.7385C491.74 32.7385 491.363 32.6685 491.03 32.5287C490.697 32.3821 490.434 32.1823 490.241 31.9292C490.048 31.6694 489.941 31.373 489.921 31.0399H490.86C490.887 31.313 491.014 31.5362 491.24 31.7093C491.473 31.8825 491.776 31.9691 492.149 31.9691C492.496 31.9691 492.769 31.8925 492.969 31.7393C493.169 31.5861 493.268 31.3929 493.268 31.1598C493.268 30.92 493.162 30.7435 492.949 30.6302C492.736 30.5103 492.406 30.3938 491.96 30.2805C491.553 30.174 491.22 30.0674 490.96 29.9608C490.707 29.8476 490.487 29.6844 490.301 29.4712C490.121 29.2514 490.031 28.965 490.031 28.6119C490.031 28.3322 490.114 28.0757 490.281 27.8426C490.447 27.6094 490.684 27.4262 490.99 27.293C491.297 27.1531 491.646 27.0832 492.039 27.0832C492.646 27.0832 493.135 27.2364 493.508 27.5428C493.881 27.8492 494.081 28.2689 494.108 28.8018H493.199C493.179 28.5153 493.062 28.2855 492.849 28.1123C492.642 27.9392 492.363 27.8526 492.01 27.8526C491.683 27.8526 491.423 27.9225 491.23 28.0624C491.037 28.2023 490.94 28.3854 490.94 28.6119C490.94 28.7918 490.997 28.9417 491.11 29.0616C491.23 29.1748 491.377 29.268 491.55 29.3413C491.73 29.4079 491.976 29.4845 492.289 29.5711C492.682 29.6777 493.002 29.7843 493.248 29.8909C493.495 29.9908 493.705 30.144 493.878 30.3505C494.058 30.557 494.151 30.8267 494.158 31.1598C494.158 31.4596 494.074 31.7293 493.908 31.9691C493.741 32.2089 493.505 32.3988 493.199 32.5387C492.899 32.6719 492.552 32.7385 492.159 32.7385Z" fill="#9A9A9A"/>
<path d="M21.0857 65.711C21.0857 66.0307 21.0058 66.3371 20.8459 66.6302C20.686 66.9167 20.4496 67.1565 20.1365 67.3496C19.8301 67.5428 19.4604 67.6527 19.0274 67.6794V68.4887H18.4879V67.6794C17.8817 67.6261 17.3888 67.4329 17.0091 67.0998C16.6294 66.7601 16.4363 66.3305 16.4296 65.8109H17.3988C17.4254 66.0907 17.5287 66.3338 17.7085 66.5403C17.895 66.7468 18.1548 66.8767 18.4879 66.93V64.4321C18.0416 64.3188 17.6819 64.2022 17.4088 64.0823C17.1357 63.9624 16.9025 63.7759 16.7094 63.5228C16.5162 63.2697 16.4196 62.93 16.4196 62.5037C16.4196 61.9641 16.6061 61.5178 16.9791 61.1648C17.3588 60.8117 17.8617 60.6152 18.4879 60.5753V59.746H19.0274V60.5753C19.5936 60.6219 20.0499 60.8051 20.3963 61.1248C20.7427 61.4379 20.9425 61.8475 20.9958 62.3538H20.0266C19.9933 62.1207 19.89 61.9108 19.7168 61.7243C19.5437 61.5311 19.3139 61.4046 19.0274 61.3446V63.7826C19.4671 63.8958 19.8234 64.0124 20.0965 64.1323C20.3763 64.2455 20.6094 64.4287 20.7959 64.6818C20.9891 64.935 21.0857 65.278 21.0857 65.711ZM17.3488 62.4537C17.3488 62.7801 17.4454 63.0299 17.6386 63.2031C17.8318 63.3763 18.1149 63.5195 18.4879 63.6327V61.3246C18.1415 61.358 17.8651 61.4712 17.6586 61.6644C17.4521 61.8509 17.3488 62.114 17.3488 62.4537ZM19.0274 66.94C19.3871 66.9 19.6669 66.7701 19.8667 66.5503C20.0732 66.3305 20.1765 66.0674 20.1765 65.7609C20.1765 65.4346 20.0765 65.1848 19.8767 65.0116C19.6769 64.8317 19.3938 64.6885 19.0274 64.5819V66.94ZM22.4153 61.2247V60.3954H24.2937V67.6194H23.3745V61.2247H22.4153ZM25.6158 61.2247V60.3954H27.4942V67.6194H26.575V61.2247H25.6158ZM29.056 63.9325C29.056 62.7868 29.2425 61.8942 29.6155 61.2547C29.9886 60.6086 30.6414 60.2855 31.5739 60.2855C32.4998 60.2855 33.1493 60.6086 33.5223 61.2547C33.8953 61.8942 34.0818 62.7868 34.0818 63.9325C34.0818 65.0982 33.8953 66.0041 33.5223 66.6502C33.1493 67.2963 32.4998 67.6194 31.5739 67.6194C30.6414 67.6194 29.9886 67.2963 29.6155 66.6502C29.2425 66.0041 29.056 65.0982 29.056 63.9325ZM33.1826 63.9325C33.1826 63.353 33.1426 62.8634 33.0627 62.4637C32.9894 62.0574 32.8329 61.731 32.5931 61.4845C32.3599 61.2381 32.0202 61.1148 31.5739 61.1148C31.121 61.1148 30.7746 61.2381 30.5348 61.4845C30.3016 61.731 30.1451 62.0574 30.0652 62.4637C29.9919 62.8634 29.9553 63.353 29.9553 63.9325C29.9553 64.532 29.9919 65.0349 30.0652 65.4412C30.1451 65.8475 30.3016 66.1739 30.5348 66.4204C30.7746 66.6669 31.121 66.7901 31.5739 66.7901C32.0202 66.7901 32.3599 66.6669 32.5931 66.4204C32.8329 66.1739 32.9894 65.8475 33.0627 65.4412C33.1426 65.0349 33.1826 64.532 33.1826 63.9325ZM35.3301 63.9325C35.3301 62.7868 35.5166 61.8942 35.8896 61.2547C36.2626 60.6086 36.9154 60.2855 37.848 60.2855C38.7739 60.2855 39.4233 60.6086 39.7964 61.2547C40.1694 61.8942 40.3559 62.7868 40.3559 63.9325C40.3559 65.0982 40.1694 66.0041 39.7964 66.6502C39.4233 67.2963 38.7739 67.6194 37.848 67.6194C36.9154 67.6194 36.2626 67.2963 35.8896 66.6502C35.5166 66.0041 35.3301 65.0982 35.3301 63.9325ZM39.4566 63.9325C39.4566 63.353 39.4167 62.8634 39.3367 62.4637C39.2635 62.0574 39.1069 61.731 38.8671 61.4845C38.634 61.2381 38.2943 61.1148 37.848 61.1148C37.395 61.1148 37.0486 61.2381 36.8088 61.4845C36.5757 61.731 36.4192 62.0574 36.3392 62.4637C36.266 62.8634 36.2293 63.353 36.2293 63.9325C36.2293 64.532 36.266 65.0349 36.3392 65.4412C36.4192 65.8475 36.5757 66.1739 36.8088 66.4204C37.0486 66.6669 37.395 66.7901 37.848 66.7901C38.2943 66.7901 38.634 66.6669 38.8671 66.4204C39.1069 66.1739 39.2635 65.8475 39.3367 65.4412C39.4167 65.0349 39.4566 64.532 39.4566 63.9325Z" fill="#A9A9A9"/>
<path d="M21.0855 114.004C21.0855 114.324 21.0056 114.63 20.8457 114.923C20.6858 115.21 20.4494 115.45 20.1363 115.643C19.8299 115.836 19.4602 115.946 19.0272 115.972V116.782H18.4877V115.972C17.8815 115.919 17.3886 115.726 17.0089 115.393C16.6292 115.053 16.436 114.624 16.4294 114.104H17.3986C17.4252 114.384 17.5285 114.627 17.7083 114.833C17.8948 115.04 18.1546 115.17 18.4877 115.223V112.725C18.0414 112.612 17.6817 112.495 17.4086 112.375C17.1355 112.256 16.9023 112.069 16.7091 111.816C16.516 111.563 16.4194 111.223 16.4194 110.797C16.4194 110.257 16.6059 109.811 16.9789 109.458C17.3586 109.105 17.8615 108.908 18.4877 108.868V108.039H19.0272V108.868C19.5934 108.915 20.0497 109.098 20.3961 109.418C20.7424 109.731 20.9423 110.141 20.9956 110.647H20.0264C19.9931 110.414 19.8898 110.204 19.7166 110.017C19.5434 109.824 19.3136 109.698 19.0272 109.638V112.076C19.4668 112.189 19.8232 112.305 20.0963 112.425C20.3761 112.539 20.6092 112.722 20.7957 112.975C20.9889 113.228 21.0855 113.571 21.0855 114.004ZM17.3486 110.747C17.3486 111.073 17.4452 111.323 17.6384 111.496C17.8315 111.669 18.1146 111.813 18.4877 111.926V109.618C18.1413 109.651 17.8648 109.764 17.6584 109.957C17.4519 110.144 17.3486 110.407 17.3486 110.747ZM19.0272 115.233C19.3869 115.193 19.6667 115.063 19.8665 114.843C20.073 114.624 20.1763 114.36 20.1763 114.054C20.1763 113.728 20.0763 113.478 19.8765 113.305C19.6767 113.125 19.3936 112.982 19.0272 112.875V115.233ZM23.8239 113.974C23.8905 114.354 24.0437 114.647 24.2835 114.853C24.53 115.06 24.8597 115.163 25.2727 115.163C25.8256 115.163 26.2319 114.947 26.4917 114.514C26.7581 114.081 26.8847 113.351 26.8714 112.325C26.7315 112.625 26.4983 112.862 26.172 113.035C25.8456 113.201 25.4825 113.285 25.0829 113.285C24.6366 113.285 24.2369 113.195 23.8839 113.015C23.5375 112.828 23.2644 112.559 23.0645 112.206C22.8647 111.853 22.7648 111.426 22.7648 110.927C22.7648 110.214 22.9713 109.641 23.3843 109.208C23.7973 108.768 24.3834 108.549 25.1428 108.549C26.0754 108.549 26.7282 108.852 27.1012 109.458C27.4809 110.064 27.6707 110.967 27.6707 112.166C27.6707 113.005 27.5941 113.698 27.4409 114.244C27.2944 114.79 27.0412 115.206 26.6815 115.493C26.3285 115.779 25.8422 115.922 25.2227 115.922C24.5433 115.922 24.0138 115.739 23.6341 115.373C23.2544 115.007 23.0379 114.54 22.9846 113.974H23.8239ZM25.2327 112.515C25.679 112.515 26.0454 112.379 26.3318 112.106C26.6182 111.826 26.7615 111.45 26.7615 110.977C26.7615 110.477 26.6216 110.074 26.3418 109.768C26.062 109.461 25.669 109.308 25.1628 109.308C24.6965 109.308 24.3235 109.455 24.0437 109.748C23.7706 110.041 23.6341 110.427 23.6341 110.907C23.6341 111.393 23.7706 111.783 24.0437 112.076C24.3168 112.369 24.7132 112.515 25.2327 112.515ZM28.9485 112.226C28.9485 111.08 29.135 110.187 29.508 109.548C29.881 108.902 30.5338 108.579 31.4664 108.579C32.3923 108.579 33.0417 108.902 33.4147 109.548C33.7878 110.187 33.9743 111.08 33.9743 112.226C33.9743 113.391 33.7878 114.297 33.4147 114.943C33.0417 115.589 32.3923 115.912 31.4664 115.912C30.5338 115.912 29.881 115.589 29.508 114.943C29.135 114.297 28.9485 113.391 28.9485 112.226ZM33.075 112.226C33.075 111.646 33.0351 111.156 32.9551 110.757C32.8819 110.35 32.7253 110.024 32.4855 109.778C32.2524 109.531 31.9127 109.408 31.4664 109.408C31.0134 109.408 30.667 109.531 30.4272 109.778C30.1941 110.024 30.0376 110.35 29.9576 110.757C29.8844 111.156 29.8477 111.646 29.8477 112.226C29.8477 112.825 29.8844 113.328 29.9576 113.734C30.0376 114.141 30.1941 114.467 30.4272 114.713C30.667 114.96 31.0134 115.083 31.4664 115.083C31.9127 115.083 32.2524 114.96 32.4855 114.713C32.7253 114.467 32.8819 114.141 32.9551 113.734C33.0351 113.328 33.075 112.825 33.075 112.226ZM35.2225 112.226C35.2225 111.08 35.409 110.187 35.7821 109.548C36.1551 108.902 36.8079 108.579 37.7404 108.579C38.6663 108.579 39.3158 108.902 39.6888 109.548C40.0618 110.187 40.2483 111.08 40.2483 112.226C40.2483 113.391 40.0618 114.297 39.6888 114.943C39.3158 115.589 38.6663 115.912 37.7404 115.912C36.8079 115.912 36.1551 115.589 35.7821 114.943C35.409 114.297 35.2225 113.391 35.2225 112.226ZM39.3491 112.226C39.3491 111.646 39.3091 111.156 39.2292 110.757C39.1559 110.35 38.9994 110.024 38.7596 109.778C38.5264 109.531 38.1867 109.408 37.7404 109.408C37.2875 109.408 36.9411 109.531 36.7013 109.778C36.4682 110.024 36.3116 110.35 36.2317 110.757C36.1584 111.156 36.1218 111.646 36.1218 112.226C36.1218 112.825 36.1584 113.328 36.2317 113.734C36.3116 114.141 36.4682 114.467 36.7013 114.713C36.9411 114.96 37.2875 115.083 37.7404 115.083C38.1867 115.083 38.5264 114.96 38.7596 114.713C38.9994 114.467 39.1559 114.141 39.2292 113.734C39.3091 113.328 39.3491 112.825 39.3491 112.226Z" fill="#A9A9A9"/>
<path d="M21.0855 162.297C21.0855 162.617 21.0056 162.923 20.8457 163.216C20.6858 163.503 20.4494 163.743 20.1363 163.936C19.8299 164.129 19.4602 164.239 19.0272 164.265V165.075H18.4877V164.265C17.8815 164.212 17.3886 164.019 17.0089 163.686C16.6292 163.346 16.436 162.917 16.4294 162.397H17.3986C17.4252 162.677 17.5285 162.92 17.7083 163.126C17.8948 163.333 18.1546 163.463 18.4877 163.516V161.018C18.0414 160.905 17.6817 160.788 17.4086 160.668C17.1355 160.549 16.9023 160.362 16.7091 160.109C16.516 159.856 16.4194 159.516 16.4194 159.09C16.4194 158.55 16.6059 158.104 16.9789 157.751C17.3586 157.398 17.8615 157.201 18.4877 157.161V156.332H19.0272V157.161C19.5934 157.208 20.0497 157.391 20.3961 157.711C20.7424 158.024 20.9423 158.434 20.9956 158.94H20.0264C19.9931 158.707 19.8898 158.497 19.7166 158.31C19.5434 158.117 19.3136 157.991 19.0272 157.931V160.369C19.4668 160.482 19.8232 160.599 20.0963 160.718C20.3761 160.832 20.6092 161.015 20.7957 161.268C20.9889 161.521 21.0855 161.864 21.0855 162.297ZM17.3486 159.04C17.3486 159.366 17.4452 159.616 17.6384 159.789C17.8315 159.962 18.1146 160.106 18.4877 160.219V157.911C18.1413 157.944 17.8648 158.057 17.6584 158.25C17.4519 158.437 17.3486 158.7 17.3486 159.04ZM19.0272 163.526C19.3869 163.486 19.6667 163.356 19.8665 163.136C20.073 162.917 20.1763 162.653 20.1763 162.347C20.1763 162.021 20.0763 161.771 19.8765 161.598C19.6767 161.418 19.3936 161.275 19.0272 161.168V163.526ZM22.6349 158.8C22.6815 158.187 22.918 157.708 23.3443 157.361C23.7706 157.015 24.3235 156.842 25.0029 156.842C25.4559 156.842 25.8456 156.925 26.172 157.091C26.505 157.251 26.7548 157.471 26.9213 157.751C27.0945 158.031 27.1811 158.347 27.1811 158.7C27.1811 159.113 27.0612 159.469 26.8214 159.769C26.5883 160.069 26.2819 160.262 25.9022 160.349V160.399C26.3352 160.505 26.6782 160.715 26.9313 161.028C27.1844 161.341 27.311 161.751 27.311 162.257C27.311 162.637 27.2244 162.98 27.0512 163.286C26.878 163.586 26.6182 163.823 26.2719 163.996C25.9255 164.169 25.5092 164.255 25.0229 164.255C24.3168 164.255 23.7373 164.072 23.2844 163.706C22.8314 163.333 22.5783 162.807 22.525 162.127H23.4043C23.4509 162.527 23.6141 162.853 23.8939 163.106C24.1736 163.36 24.5466 163.486 25.0129 163.486C25.4792 163.486 25.8322 163.366 26.072 163.126C26.3185 162.88 26.4417 162.564 26.4417 162.177C26.4417 161.678 26.2752 161.318 25.9421 161.098C25.6091 160.878 25.1062 160.768 24.4334 160.768H24.2036V160.009H24.4434C25.0562 160.002 25.5192 159.902 25.8322 159.709C26.1453 159.509 26.3018 159.203 26.3018 158.79C26.3018 158.437 26.1853 158.154 25.9521 157.941C25.7257 157.728 25.3993 157.621 24.973 157.621C24.56 157.621 24.2269 157.728 23.9738 157.941C23.7207 158.154 23.5708 158.44 23.5242 158.8H22.6349ZM28.5387 160.519C28.5387 159.373 28.7252 158.48 29.0982 157.841C29.4712 157.195 30.124 156.872 31.0566 156.872C31.9824 156.872 32.6319 157.195 33.0049 157.841C33.378 158.48 33.5645 159.373 33.5645 160.519C33.5645 161.684 33.378 162.59 33.0049 163.236C32.6319 163.882 31.9824 164.206 31.0566 164.206C30.124 164.206 29.4712 163.882 29.0982 163.236C28.7252 162.59 28.5387 161.684 28.5387 160.519ZM32.6652 160.519C32.6652 159.939 32.6252 159.449 32.5453 159.05C32.472 158.643 32.3155 158.317 32.0757 158.071C31.8426 157.824 31.5028 157.701 31.0566 157.701C30.6036 157.701 30.2572 157.824 30.0174 158.071C29.7843 158.317 29.6277 158.643 29.5478 159.05C29.4745 159.449 29.4379 159.939 29.4379 160.519C29.4379 161.118 29.4745 161.621 29.5478 162.027C29.6277 162.434 29.7843 162.76 30.0174 163.007C30.2572 163.253 30.6036 163.376 31.0566 163.376C31.5028 163.376 31.8426 163.253 32.0757 163.007C32.3155 162.76 32.472 162.434 32.5453 162.027C32.6252 161.621 32.6652 161.118 32.6652 160.519ZM34.8127 160.519C34.8127 159.373 34.9992 158.48 35.3723 157.841C35.7453 157.195 36.3981 156.872 37.3306 156.872C38.2565 156.872 38.906 157.195 39.279 157.841C39.652 158.48 39.8385 159.373 39.8385 160.519C39.8385 161.684 39.652 162.59 39.279 163.236C38.906 163.882 38.2565 164.206 37.3306 164.206C36.3981 164.206 35.7453 163.882 35.3723 163.236C34.9992 162.59 34.8127 161.684 34.8127 160.519ZM38.9393 160.519C38.9393 159.939 38.8993 159.449 38.8194 159.05C38.7461 158.643 38.5896 158.317 38.3498 158.071C38.1166 157.824 37.7769 157.701 37.3306 157.701C36.8777 157.701 36.5313 157.824 36.2915 158.071C36.0583 158.317 35.9018 158.643 35.8219 159.05C35.7486 159.449 35.712 159.939 35.712 160.519C35.712 161.118 35.7486 161.621 35.8219 162.027C35.9018 162.434 36.0583 162.76 36.2915 163.007C36.5313 163.253 36.8777 163.376 37.3306 163.376C37.7769 163.376 38.1166 163.253 38.3498 163.007C38.5896 162.76 38.7461 162.434 38.8194 162.027C38.8993 161.621 38.9393 161.118 38.9393 160.519Z" fill="#A9A9A9"/>
<path d="M21.0855 210.59C21.0855 210.91 21.0056 211.216 20.8457 211.509C20.6858 211.796 20.4494 212.036 20.1363 212.229C19.8299 212.422 19.4602 212.532 19.0272 212.559V213.368H18.4877V212.559C17.8815 212.505 17.3886 212.312 17.0089 211.979C16.6292 211.639 16.436 211.21 16.4294 210.69H17.3986C17.4252 210.97 17.5285 211.213 17.7083 211.419C17.8948 211.626 18.1546 211.756 18.4877 211.809V209.311C18.0414 209.198 17.6817 209.081 17.4086 208.962C17.1355 208.842 16.9023 208.655 16.7091 208.402C16.516 208.149 16.4194 207.809 16.4194 207.383C16.4194 206.843 16.6059 206.397 16.9789 206.044C17.3586 205.691 17.8615 205.494 18.4877 205.454V204.625H19.0272V205.454C19.5934 205.501 20.0497 205.684 20.3961 206.004C20.7424 206.317 20.9423 206.727 20.9956 207.233H20.0264C19.9931 207 19.8898 206.79 19.7166 206.603C19.5434 206.41 19.3136 206.284 19.0272 206.224V208.662C19.4668 208.775 19.8232 208.892 20.0963 209.011C20.3761 209.125 20.6092 209.308 20.7957 209.561C20.9889 209.814 21.0855 210.157 21.0855 210.59ZM17.3486 207.333C17.3486 207.659 17.4452 207.909 17.6384 208.082C17.8315 208.255 18.1146 208.399 18.4877 208.512V206.204C18.1413 206.237 17.8648 206.35 17.6584 206.544C17.4519 206.73 17.3486 206.993 17.3486 207.333ZM19.0272 211.819C19.3869 211.779 19.6667 211.649 19.8665 211.429C20.073 211.21 20.1763 210.947 20.1763 210.64C20.1763 210.314 20.0763 210.064 19.8765 209.891C19.6767 209.711 19.3936 209.568 19.0272 209.461V211.819ZM22.4151 206.104V205.275H24.2935V212.499H23.3743V206.104H22.4151ZM25.8553 208.812C25.8553 207.666 26.0419 206.773 26.4149 206.134C26.7879 205.488 27.4407 205.165 28.3732 205.165C29.2991 205.165 29.9486 205.488 30.3216 206.134C30.6946 206.773 30.8812 207.666 30.8812 208.812C30.8812 209.977 30.6946 210.883 30.3216 211.529C29.9486 212.176 29.2991 212.499 28.3732 212.499C27.4407 212.499 26.7879 212.176 26.4149 211.529C26.0419 210.883 25.8553 209.977 25.8553 208.812ZM29.9819 208.812C29.9819 208.232 29.9419 207.743 29.862 207.343C29.7887 206.937 29.6322 206.61 29.3924 206.364C29.1593 206.117 28.8195 205.994 28.3732 205.994C27.9203 205.994 27.5739 206.117 27.3341 206.364C27.101 206.61 26.9444 206.937 26.8645 207.343C26.7912 207.743 26.7546 208.232 26.7546 208.812C26.7546 209.411 26.7912 209.914 26.8645 210.32C26.9444 210.727 27.101 211.053 27.3341 211.3C27.5739 211.546 27.9203 211.669 28.3732 211.669C28.8195 211.669 29.1593 211.546 29.3924 211.3C29.6322 211.053 29.7887 210.727 29.862 210.32C29.9419 209.914 29.9819 209.411 29.9819 208.812ZM32.1294 208.812C32.1294 207.666 32.3159 206.773 32.6889 206.134C33.062 205.488 33.7148 205.165 34.6473 205.165C35.5732 205.165 36.2227 205.488 36.5957 206.134C36.9687 206.773 37.1552 207.666 37.1552 208.812C37.1552 209.977 36.9687 210.883 36.5957 211.529C36.2227 212.176 35.5732 212.499 34.6473 212.499C33.7148 212.499 33.062 212.176 32.6889 211.529C32.3159 210.883 32.1294 209.977 32.1294 208.812ZM36.256 208.812C36.256 208.232 36.216 207.743 36.1361 207.343C36.0628 206.937 35.9063 206.61 35.6665 206.364C35.4333 206.117 35.0936 205.994 34.6473 205.994C34.1944 205.994 33.848 206.117 33.6082 206.364C33.375 206.61 33.2185 206.937 33.1386 207.343C33.0653 207.743 33.0287 208.232 33.0287 208.812C33.0287 209.411 33.0653 209.914 33.1386 210.32C33.2185 210.727 33.375 211.053 33.6082 211.3C33.848 211.546 34.1944 211.669 34.6473 211.669C35.0936 211.669 35.4333 211.546 35.6665 211.3C35.9063 211.053 36.0628 210.727 36.1361 210.32C36.216 209.914 36.256 209.411 36.256 208.812Z" fill="#A9A9A9"/>
<path d="M16.4394 257.105C16.4394 255.959 16.6259 255.066 16.9989 254.427C17.3719 253.781 18.0247 253.458 18.9573 253.458C19.8832 253.458 20.5326 253.781 20.9056 254.427C21.2787 255.066 21.4652 255.959 21.4652 257.105C21.4652 258.27 21.2787 259.176 20.9056 259.822C20.5326 260.469 19.8832 260.792 18.9573 260.792C18.0247 260.792 17.3719 260.469 16.9989 259.822C16.6259 259.176 16.4394 258.27 16.4394 257.105ZM20.5659 257.105C20.5659 256.525 20.526 256.036 20.446 255.636C20.3728 255.23 20.2162 254.903 19.9764 254.657C19.7433 254.41 19.4036 254.287 18.9573 254.287C18.5043 254.287 18.1579 254.41 17.9181 254.657C17.685 254.903 17.5285 255.23 17.4485 255.636C17.3753 256.036 17.3386 256.525 17.3386 257.105C17.3386 257.704 17.3753 258.207 17.4485 258.613C17.5285 259.02 17.685 259.346 17.9181 259.593C18.1579 259.839 18.5043 259.962 18.9573 259.962C19.4036 259.962 19.7433 259.839 19.9764 259.593C20.2162 259.346 20.3728 259.02 20.446 258.613C20.526 258.207 20.5659 257.704 20.5659 257.105Z" fill="#A9A9A9"/>
<line x1="51.6236" y1="256.869" x2="597.002" y2="256.869" stroke="#383838" stroke-width="0.832639"/>
<line x1="51.6236" y1="208.576" x2="597.002" y2="208.576" stroke="#383838" stroke-width="0.832639" stroke-dasharray="4.16 4.16"/>
<line x1="51.6236" y1="160.283" x2="597.002" y2="160.283" stroke="#383838" stroke-width="0.832639" stroke-dasharray="4.16 4.16"/>
<line x1="51.6236" y1="111.99" x2="597.002" y2="111.99" stroke="#383838" stroke-width="0.832639" stroke-dasharray="4.16 4.16"/>
<line x1="51.6236" y1="63.6968" x2="597.002" y2="63.6969" stroke="#383838" stroke-width="0.832639" stroke-dasharray="4.16 4.16"/>
<rect x="520.816" y="17.069" width="77.4354" height="25.8118" rx="6.24479" stroke="#383838" stroke-width="0.832639"/>
<path d="M586.408 32.4958C586.25 32.4958 586.092 32.4375 585.967 32.3126L583.028 29.3734C582.786 29.1319 582.786 28.7323 583.028 28.4908C583.269 28.2493 583.669 28.2493 583.911 28.4908L586.408 30.9887L588.906 28.4908C589.148 28.2493 589.548 28.2493 589.789 28.4908C590.03 28.7323 590.03 29.1319 589.789 29.3734L586.85 32.3126C586.725 32.4375 586.567 32.4958 586.408 32.4958Z" fill="#A9A9A9"/>
<path d="M539.057 26.567V33.4812H538.148V28.3255L535.85 33.4812H535.21L532.902 28.3155V33.4812H531.993V26.567H532.972L535.53 32.2822L538.088 26.567H539.057ZM542.987 33.5711C542.474 33.5711 542.008 33.4546 541.588 33.2214C541.175 32.9883 540.849 32.6586 540.609 32.2323C540.376 31.7993 540.259 31.2997 540.259 30.7335C540.259 30.174 540.379 29.6811 540.619 29.2547C540.865 28.8218 541.198 28.492 541.618 28.2656C542.038 28.0324 542.507 27.9159 543.027 27.9159C543.546 27.9159 544.016 28.0324 544.436 28.2656C544.855 28.492 545.185 28.8184 545.425 29.2447C545.671 29.6711 545.795 30.1673 545.795 30.7335C545.795 31.2997 545.668 31.7993 545.415 32.2323C545.168 32.6586 544.832 32.9883 544.406 33.2214C543.979 33.4546 543.506 33.5711 542.987 33.5711ZM542.987 32.7718C543.313 32.7718 543.62 32.6952 543.906 32.542C544.193 32.3888 544.422 32.159 544.596 31.8526C544.775 31.5462 544.865 31.1731 544.865 30.7335C544.865 30.2939 544.779 29.9209 544.606 29.6144C544.432 29.308 544.206 29.0816 543.926 28.935C543.646 28.7818 543.343 28.7052 543.017 28.7052C542.684 28.7052 542.377 28.7818 542.098 28.935C541.825 29.0816 541.605 29.308 541.438 29.6144C541.272 29.9209 541.188 30.2939 541.188 30.7335C541.188 31.1798 541.268 31.5562 541.428 31.8626C541.595 32.169 541.815 32.3988 542.088 32.552C542.361 32.6985 542.661 32.7718 542.987 32.7718ZM549.658 27.9059C550.324 27.9059 550.863 28.109 551.276 28.5154C551.689 28.915 551.896 29.4945 551.896 30.2539V33.4812H550.997V30.3838C550.997 29.8376 550.86 29.4213 550.587 29.1348C550.314 28.8418 549.941 28.6952 549.468 28.6952C548.988 28.6952 548.605 28.8451 548.319 29.1448C548.039 29.4446 547.899 29.8809 547.899 30.4537V33.4812H546.99V28.0058H547.899V28.7851C548.079 28.5054 548.322 28.2889 548.629 28.1357C548.942 27.9825 549.285 27.9059 549.658 27.9059ZM554.49 28.7552V31.9825C554.49 32.2489 554.547 32.4388 554.66 32.552C554.773 32.6586 554.97 32.7119 555.25 32.7119H555.919V33.4812H555.1C554.594 33.4812 554.214 33.3646 553.961 33.1315C553.708 32.8984 553.581 32.5154 553.581 31.9825V28.7552H552.872V28.0058H553.581V26.6269H554.49V28.0058H555.919V28.7552H554.49ZM559.738 27.9059C560.151 27.9059 560.525 27.9958 560.858 28.1756C561.191 28.3488 561.45 28.6119 561.637 28.965C561.83 29.318 561.927 29.7477 561.927 30.2539V33.4812H561.027V30.3838C561.027 29.8376 560.891 29.4213 560.618 29.1348C560.345 28.8418 559.972 28.6952 559.499 28.6952C559.019 28.6952 558.636 28.8451 558.35 29.1448C558.07 29.4446 557.93 29.8809 557.93 30.4537V33.4812H557.021V26.0874H557.93V28.7851C558.11 28.5054 558.356 28.2889 558.669 28.1357C558.989 27.9825 559.345 27.9059 559.738 27.9059ZM564.321 26.0874V33.4812H563.412V26.0874H564.321ZM570.587 28.0058L567.29 36.0591H566.35L567.429 33.4213L565.221 28.0058H566.23L567.949 32.4421L569.648 28.0058H570.587Z" fill="#9A9A9A"/>
<path d="M51.6236 151.124C82.0149 151.124 80.7659 120.316 104.08 120.316C127.394 120.316 137.385 240.216 156.952 240.216C176.519 240.216 186.511 185.262 203.164 185.262C219.817 185.262 219.4 142.381 246.045 142.381C272.689 142.381 277.685 151.124 299.334 151.124C320.982 151.124 320.982 180.683 342.215 180.683C363.447 180.683 360.949 219.4 388.426 219.4C415.903 219.4 418.817 180.683 434.637 180.683C450.458 180.683 454.621 87.0107 483.347 87.0107C512.073 87.0107 503.746 228.143 533.305 228.143C562.864 228.143 552.872 151.124 590.757 151.124" stroke="#FB4E0B" stroke-width="1.66528"/>
<path d="M51.6236 175.998C82.0384 175.998 80.7884 224.812 104.12 224.812C127.452 224.812 137.452 175.998 157.034 175.998C176.616 175.998 186.615 214.821 203.281 214.821C219.947 214.821 219.53 209.409 246.195 209.409C272.86 209.409 271.233 182.625 292.898 182.625C314.564 182.625 321.19 152.373 342.439 152.373C363.688 152.373 361.188 115.737 388.686 115.737C416.184 115.737 419.101 228.143 434.933 228.143C450.766 228.143 454.932 144.879 483.68 144.879C512.428 144.879 504.096 148.626 533.677 148.626C563.259 148.626 553.259 121.982 591.174 121.982" stroke="#BABABA" stroke-width="1.66528"/>
<line x1="342.631" y1="63.2805" x2="342.631" y2="257.285" stroke="#1FCB4F" stroke-width="0.832639" stroke-dasharray="1.67 1.67"/>
<circle cx="342.215" cy="179.85" r="5.82847" fill="#FB4E0B" stroke="white" stroke-width="1.66528"/>
<g filter="url(#filter0_d_19_298)">
<path d="M299.75 120.733C299.75 116.134 303.478 112.406 308.076 112.406H376.353C380.951 112.406 384.679 116.134 384.679 120.733V155.703C384.679 160.302 380.951 164.03 376.353 164.03H308.076C303.478 164.03 299.75 160.302 299.75 155.703V120.733Z" fill="#FB4E0B"/>
</g>
<path d="M315.841 148.916C315.841 149.415 315.716 149.885 315.466 150.325C315.226 150.764 314.867 151.134 314.387 151.434C313.917 151.733 313.358 151.913 312.708 151.973V153.187H311.734V151.973C310.795 151.883 310.036 151.588 309.456 151.089C308.877 150.589 308.587 149.93 308.587 149.111H310.415C310.445 149.5 310.57 149.825 310.79 150.085C311.01 150.335 311.325 150.494 311.734 150.564V147.267C311.065 147.097 310.52 146.927 310.101 146.757C309.681 146.578 309.321 146.298 309.021 145.918C308.732 145.539 308.587 145.019 308.587 144.359C308.587 143.53 308.877 142.846 309.456 142.306C310.036 141.757 310.795 141.437 311.734 141.347V140.133H312.708V141.347C313.588 141.427 314.292 141.707 314.822 142.186C315.361 142.656 315.666 143.305 315.736 144.135H313.907C313.877 143.825 313.758 143.55 313.548 143.31C313.338 143.061 313.058 142.891 312.708 142.801V146.038C313.378 146.198 313.922 146.368 314.342 146.548C314.762 146.718 315.116 146.992 315.406 147.372C315.696 147.742 315.841 148.256 315.841 148.916ZM310.325 144.27C310.325 144.679 310.445 144.999 310.685 145.229C310.935 145.459 311.285 145.643 311.734 145.783V142.756C311.305 142.806 310.96 142.961 310.7 143.22C310.45 143.48 310.325 143.83 310.325 144.27ZM312.708 150.564C313.148 150.494 313.493 150.32 313.743 150.04C313.992 149.75 314.117 149.405 314.117 149.006C314.117 148.606 313.992 148.296 313.743 148.076C313.503 147.847 313.158 147.662 312.708 147.522V150.564ZM319.279 149.56C320.238 148.731 320.992 148.051 321.542 147.522C322.101 146.982 322.566 146.423 322.936 145.843C323.305 145.264 323.49 144.684 323.49 144.105C323.49 143.505 323.345 143.036 323.056 142.696C322.776 142.356 322.331 142.186 321.722 142.186C321.132 142.186 320.673 142.376 320.343 142.756C320.023 143.126 319.853 143.625 319.833 144.255H318.185C318.215 143.116 318.554 142.246 319.204 141.647C319.863 141.037 320.698 140.733 321.707 140.733C322.796 140.733 323.645 141.032 324.255 141.632C324.874 142.231 325.184 143.031 325.184 144.03C325.184 144.749 324.999 145.444 324.629 146.113C324.27 146.772 323.835 147.367 323.325 147.897C322.826 148.416 322.186 149.021 321.407 149.71L320.733 150.31H325.484V151.733H318.2V150.489L319.279 149.56ZM327.929 149.56C328.888 148.731 329.642 148.051 330.192 147.522C330.751 146.982 331.216 146.423 331.586 145.843C331.955 145.264 332.14 144.684 332.14 144.105C332.14 143.505 331.995 143.036 331.706 142.696C331.426 142.356 330.981 142.186 330.372 142.186C329.782 142.186 329.323 142.376 328.993 142.756C328.673 143.126 328.503 143.625 328.483 144.255H326.835C326.865 143.116 327.204 142.246 327.854 141.647C328.513 141.037 329.348 140.733 330.357 140.733C331.446 140.733 332.295 141.032 332.905 141.632C333.524 142.231 333.834 143.031 333.834 144.03C333.834 144.749 333.649 145.444 333.279 146.113C332.92 146.772 332.485 147.367 331.975 147.897C331.476 148.416 330.836 149.021 330.057 149.71L329.383 150.31H334.134V151.733H326.85V150.489L327.929 149.56ZM335.425 149.605V148.316L340.461 141.092H342.529V148.121H343.923V149.605H342.529V151.883H340.85V149.605H335.425ZM340.925 142.831L337.388 148.121H340.925V142.831ZM346.253 151.988C345.943 151.988 345.683 151.883 345.473 151.673C345.263 151.464 345.159 151.204 345.159 150.894C345.159 150.584 345.263 150.325 345.473 150.115C345.683 149.905 345.943 149.8 346.253 149.8C346.552 149.8 346.807 149.905 347.017 150.115C347.227 150.325 347.332 150.584 347.332 150.894C347.332 151.204 347.227 151.464 347.017 151.673C346.807 151.883 346.552 151.988 346.253 151.988ZM348.954 146.278C348.954 144.549 349.243 143.2 349.823 142.231C350.412 141.252 351.422 140.762 352.85 140.762C354.279 140.762 355.283 141.252 355.863 142.231C356.452 143.2 356.747 144.549 356.747 146.278C356.747 148.026 356.452 149.395 355.863 150.384C355.283 151.364 354.279 151.853 352.85 151.853C351.422 151.853 350.412 151.364 349.823 150.384C349.243 149.395 348.954 148.026 348.954 146.278ZM355.068 146.278C355.068 145.469 355.014 144.784 354.904 144.225C354.804 143.665 354.594 143.21 354.274 142.861C353.954 142.501 353.48 142.321 352.85 142.321C352.221 142.321 351.746 142.501 351.427 142.861C351.107 143.21 350.892 143.665 350.782 144.225C350.682 144.784 350.632 145.469 350.632 146.278C350.632 147.117 350.682 147.822 350.782 148.391C350.882 148.961 351.092 149.42 351.412 149.77C351.741 150.12 352.221 150.295 352.85 150.295C353.48 150.295 353.954 150.12 354.274 149.77C354.604 149.42 354.819 148.961 354.919 148.391C355.019 147.822 355.068 147.117 355.068 146.278ZM358.555 146.278C358.555 144.549 358.845 143.2 359.424 142.231C360.014 141.252 361.023 140.762 362.452 140.762C363.88 140.762 364.885 141.252 365.464 142.231C366.054 143.2 366.348 144.549 366.348 146.278C366.348 148.026 366.054 149.395 365.464 150.384C364.885 151.364 363.88 151.853 362.452 151.853C361.023 151.853 360.014 151.364 359.424 150.384C358.845 149.395 358.555 148.026 358.555 146.278ZM364.67 146.278C364.67 145.469 364.615 144.784 364.505 144.225C364.405 143.665 364.195 143.21 363.875 142.861C363.556 142.501 363.081 142.321 362.452 142.321C361.822 142.321 361.348 142.501 361.028 142.861C360.708 143.21 360.493 143.665 360.383 144.225C360.283 144.784 360.234 145.469 360.234 146.278C360.234 147.117 360.283 147.822 360.383 148.391C360.483 148.961 360.693 149.42 361.013 149.77C361.343 150.12 361.822 150.295 362.452 150.295C363.081 150.295 363.556 150.12 363.875 149.77C364.205 149.42 364.42 148.961 364.52 148.391C364.62 147.822 364.67 147.117 364.67 146.278ZM374.121 151.883L370.09 147.222V151.883H368.381V141.467H370.09V146.218L374.136 141.467H376.28L371.753 146.683L376.354 151.883H374.121Z" fill="white"/>
<path opacity="0.6" d="M315.583 125.601V132.565H314.674V125.601H315.583ZM319.801 126.99C320.467 126.99 321.006 127.193 321.419 127.599C321.832 127.999 322.039 128.578 322.039 129.338V132.565H321.14V129.468C321.14 128.922 321.003 128.505 320.73 128.219C320.457 127.926 320.084 127.779 319.611 127.779C319.131 127.779 318.748 127.929 318.462 128.229C318.182 128.529 318.042 128.965 318.042 129.538V132.565H317.133L317.133 127.09H318.042V127.869C318.222 127.589 318.465 127.373 318.772 127.22C319.085 127.066 319.428 126.99 319.801 126.99ZM323.184 129.817C323.184 129.251 323.298 128.758 323.524 128.339C323.751 127.912 324.064 127.583 324.463 127.35C324.87 127.116 325.333 127 325.852 127C326.525 127 327.078 127.163 327.511 127.489C327.95 127.816 328.24 128.269 328.38 128.848H327.401C327.308 128.515 327.124 128.252 326.851 128.059C326.585 127.866 326.252 127.769 325.852 127.769C325.333 127.769 324.913 127.949 324.593 128.309C324.274 128.662 324.114 129.165 324.114 129.817C324.114 130.477 324.274 130.986 324.593 131.346C324.913 131.706 325.333 131.886 325.852 131.886C326.252 131.886 326.585 131.792 326.851 131.606C327.118 131.419 327.301 131.153 327.401 130.807H328.38C328.234 131.366 327.94 131.816 327.501 132.156C327.061 132.489 326.512 132.655 325.852 132.655C325.333 132.655 324.87 132.539 324.463 132.305C324.064 132.072 323.751 131.743 323.524 131.316C323.298 130.89 323.184 130.39 323.184 129.817ZM331.981 132.655C331.468 132.655 331.002 132.539 330.582 132.305C330.169 132.072 329.843 131.743 329.603 131.316C329.37 130.883 329.254 130.384 329.254 129.817C329.254 129.258 329.373 128.765 329.613 128.339C329.86 127.906 330.193 127.576 330.612 127.35C331.032 127.116 331.502 127 332.021 127C332.541 127 333.01 127.116 333.43 127.35C333.85 127.576 334.179 127.902 334.419 128.329C334.666 128.755 334.789 129.251 334.789 129.817C334.789 130.384 334.662 130.883 334.409 131.316C334.163 131.743 333.826 132.072 333.4 132.305C332.974 132.539 332.501 132.655 331.981 132.655ZM331.981 131.856C332.308 131.856 332.614 131.779 332.901 131.626C333.187 131.473 333.417 131.243 333.59 130.937C333.77 130.63 333.86 130.257 333.86 129.817C333.86 129.378 333.773 129.005 333.6 128.698C333.427 128.392 333.2 128.166 332.921 128.019C332.641 127.866 332.338 127.789 332.011 127.789C331.678 127.789 331.372 127.866 331.092 128.019C330.819 128.166 330.599 128.392 330.433 128.698C330.266 129.005 330.183 129.378 330.183 129.817C330.183 130.264 330.263 130.64 330.423 130.947C330.589 131.253 330.809 131.483 331.082 131.636C331.355 131.782 331.655 131.856 331.981 131.856ZM342.569 126.99C342.995 126.99 343.375 127.08 343.708 127.26C344.041 127.433 344.304 127.696 344.497 128.049C344.691 128.402 344.787 128.832 344.787 129.338V132.565H343.888V129.468C343.888 128.922 343.751 128.505 343.478 128.219C343.212 127.926 342.849 127.779 342.389 127.779C341.916 127.779 341.54 127.932 341.26 128.239C340.98 128.539 340.84 128.975 340.84 129.548V132.565H339.941V129.468C339.941 128.922 339.805 128.505 339.531 128.219C339.265 127.926 338.902 127.779 338.442 127.779C337.969 127.779 337.593 127.932 337.313 128.239C337.034 128.539 336.894 128.975 336.894 129.548V132.565H335.984V127.09H336.894V127.879C337.074 127.593 337.313 127.373 337.613 127.22C337.92 127.066 338.256 126.99 338.622 126.99C339.082 126.99 339.488 127.093 339.841 127.3C340.194 127.506 340.457 127.809 340.631 128.209C340.784 127.822 341.037 127.523 341.39 127.31C341.743 127.096 342.136 126.99 342.569 126.99ZM351.274 129.618C351.274 129.791 351.264 129.974 351.244 130.167H346.868C346.901 130.707 347.085 131.13 347.418 131.436C347.757 131.736 348.167 131.886 348.647 131.886C349.04 131.886 349.366 131.796 349.626 131.616C349.892 131.429 350.079 131.183 350.185 130.877H351.165C351.018 131.403 350.725 131.832 350.285 132.166C349.846 132.492 349.299 132.655 348.647 132.655C348.127 132.655 347.661 132.539 347.248 132.305C346.841 132.072 346.522 131.743 346.289 131.316C346.055 130.883 345.939 130.384 345.939 129.817C345.939 129.251 346.052 128.755 346.279 128.329C346.505 127.902 346.821 127.576 347.228 127.35C347.641 127.116 348.114 127 348.647 127C349.166 127 349.626 127.113 350.025 127.34C350.425 127.566 350.732 127.879 350.945 128.279C351.165 128.672 351.274 129.118 351.274 129.618ZM350.335 129.428C350.335 129.081 350.259 128.785 350.105 128.539C349.952 128.285 349.742 128.096 349.476 127.969C349.216 127.836 348.926 127.769 348.607 127.769C348.147 127.769 347.754 127.916 347.428 128.209C347.108 128.502 346.925 128.908 346.878 129.428H350.335Z" fill="white"/>
<defs>
<filter id="filter0_d_19_298" x="286.428" y="99.084" width="118.235" height="84.9292" filterUnits="userSpaceOnUse" color-interpolation-filters="sRGB">
<feFlood flood-opacity="0" result="BackgroundImageFix"/>
<feColorMatrix in="SourceAlpha" type="matrix" values="0 0 0 0 0 0 0 0 0 0 0 0 0 0 0 0 0 0 127 0" result="hardAlpha"/>
<feOffset dx="3.33056" dy="3.33056"/>
<feGaussianBlur stdDeviation="8.32639"/>
<feComposite in2="hardAlpha" operator="out"/>
<feColorMatrix type="matrix" values="0 0 0 0 0 0 0 0 0 0 0 0 0 0 0 0 0 0 0.12 0"/>
<feBlend mode="normal" in2="BackgroundImageFix" result="effect1_dropShadow_19_298"/>
<feBlend mode="normal" in="SourceGraphic" in2="effect1_dropShadow_19_298" result="shape"/>
</filter>
</defs>
</svg>
