<svg width="187" height="187" viewBox="0 0 187 187" fill="none" xmlns="http://www.w3.org/2000/svg">
<circle cx="93.5" cy="93.5" r="83.5" stroke="#E7E7E7" stroke-width="19"/>
<path d="M75.98 102.18C75.2467 102.18 74.5133 102.033 73.78 101.74C73.06 101.447 72.4467 101.047 71.94 100.54L72.66 98.9599C73.1533 99.4399 73.6867 99.8066 74.26 100.06C74.8333 100.3 75.4133 100.42 76 100.42C77.2533 100.42 78.2067 99.9733 78.86 99.0799C79.5267 98.1733 79.86 96.8266 79.86 95.0399V94.2199C79.5933 95.0333 79.1267 95.6733 78.46 96.1399C77.8067 96.6066 77.04 96.8399 76.16 96.8399C75.3467 96.8399 74.62 96.6466 73.98 96.2599C73.34 95.8733 72.84 95.3466 72.48 94.6799C72.12 93.9999 71.94 93.2266 71.94 92.3599C71.94 91.4533 72.1333 90.6533 72.52 89.9599C72.9067 89.2533 73.44 88.7066 74.12 88.3199C74.8133 87.9199 75.6067 87.7199 76.5 87.7199C78.2067 87.7199 79.52 88.3266 80.44 89.5399C81.3733 90.7533 81.84 92.4533 81.84 94.6399C81.84 97.0533 81.32 98.9133 80.28 100.22C79.2533 101.527 77.82 102.18 75.98 102.18ZM76.64 95.1399C77.4533 95.1399 78.1133 94.8799 78.62 94.3599C79.1267 93.8266 79.38 93.1333 79.38 92.2799C79.38 91.4266 79.1267 90.7333 78.62 90.1999C78.1133 89.6533 77.4533 89.3799 76.64 89.3799C75.8267 89.3799 75.1667 89.6533 74.66 90.1999C74.1533 90.7333 73.9 91.4266 73.9 92.2799C73.9 93.1333 74.1533 93.8266 74.66 94.3599C75.1667 94.8799 75.8267 95.1399 76.64 95.1399ZM84.9073 102V100.46L89.6073 95.4199C90.2606 94.7133 90.7273 94.0733 91.0073 93.4999C91.3006 92.9266 91.4473 92.3466 91.4473 91.7599C91.4473 90.2399 90.554 89.4799 88.7673 89.4799C87.4073 89.4799 86.1873 89.9933 85.1073 91.0199L84.3673 89.4399C84.9006 88.9199 85.5806 88.5066 86.4073 88.1999C87.234 87.8799 88.094 87.7199 88.9873 87.7199C90.4406 87.7199 91.554 88.0533 92.3273 88.7199C93.114 89.3866 93.5073 90.3399 93.5073 91.5799C93.5073 92.4199 93.3006 93.2399 92.8873 94.0399C92.4873 94.8399 91.854 95.6933 90.9873 96.5999L87.5073 100.26H94.0673V102H84.9073ZM101.335 102.52L99.9746 101.72L108.235 87.3799L109.595 88.1799L101.335 102.52ZM99.8946 96.3399C98.8013 96.3399 97.9479 95.9599 97.3346 95.1999C96.7213 94.4266 96.4146 93.3666 96.4146 92.0199C96.4146 90.6733 96.7213 89.6199 97.3346 88.8599C97.9613 88.0999 98.8146 87.7199 99.8946 87.7199C100.975 87.7199 101.821 88.0999 102.435 88.8599C103.061 89.6199 103.375 90.6733 103.375 92.0199C103.375 93.3666 103.068 94.4266 102.455 95.1999C101.841 95.9599 100.988 96.3399 99.8946 96.3399ZM99.8946 94.9199C100.455 94.9199 100.888 94.6799 101.195 94.1999C101.515 93.7199 101.675 92.9933 101.675 92.0199C101.675 91.0466 101.515 90.3199 101.195 89.8399C100.888 89.3599 100.455 89.1199 99.8946 89.1199C99.3346 89.1199 98.8946 89.3599 98.5746 89.8399C98.2679 90.3199 98.1146 91.0466 98.1146 92.0199C98.1146 93.0066 98.2679 93.7399 98.5746 94.2199C98.8946 94.6866 99.3346 94.9199 99.8946 94.9199ZM109.675 102.18C108.595 102.18 107.748 101.8 107.135 101.04C106.521 100.28 106.215 99.2199 106.215 97.8599C106.215 96.5266 106.521 95.4799 107.135 94.7199C107.748 93.9466 108.595 93.5599 109.675 93.5599C110.768 93.5599 111.621 93.9466 112.235 94.7199C112.848 95.4799 113.155 96.5266 113.155 97.8599C113.155 99.2199 112.848 100.28 112.235 101.04C111.621 101.8 110.768 102.18 109.675 102.18ZM109.675 100.78C110.235 100.78 110.668 100.54 110.975 100.06C111.295 99.5799 111.455 98.8466 111.455 97.8599C111.455 96.8999 111.295 96.1799 110.975 95.6999C110.668 95.2199 110.235 94.9799 109.675 94.9799C109.115 94.9799 108.675 95.2199 108.355 95.6999C108.048 96.1666 107.895 96.8866 107.895 97.8599C107.895 98.8466 108.048 99.5799 108.355 100.06C108.675 100.54 109.115 100.78 109.675 100.78Z" fill="#243465"/>
<path d="M93.5 9.99997C47.3842 9.99997 10 47.3842 10 93.5C10 139.616 47.3842 177 93.5 177C139.616 177 177 139.616 177 93.5C177 66.6901 164.365 42.8314 144.725 27.5536" stroke="#FB4E0B" stroke-width="18" stroke-linecap="round"/>
</svg>
