<svg width="187" height="187" viewBox="0 0 187 187" fill="none" xmlns="http://www.w3.org/2000/svg">
<circle cx="93.5" cy="93.5" r="83.5" stroke="#E7E7E7" stroke-width="19"/>
<path d="M78.28 102V99.1399H71.94V97.5999L78.64 87.8999H80.34V97.3999H82.4V99.1399H80.34V102H78.28ZM78.28 97.3999V91.1399L74 97.3999H78.28ZM85.2073 102L91.6673 89.6399H84.4473V87.8999H93.9873V89.4399L87.4873 102H85.2073ZM101.335 102.52L99.9746 101.72L108.235 87.3799L109.595 88.1799L101.335 102.52ZM99.8946 96.3399C98.8013 96.3399 97.948 95.9599 97.3346 95.1999C96.7213 94.4266 96.4146 93.3666 96.4146 92.0199C96.4146 90.6733 96.7213 89.6199 97.3346 88.8599C97.9613 88.0999 98.8146 87.7199 99.8946 87.7199C100.975 87.7199 101.821 88.0999 102.435 88.8599C103.061 89.6199 103.375 90.6733 103.375 92.0199C103.375 93.3666 103.068 94.4266 102.455 95.1999C101.841 95.9599 100.988 96.3399 99.8946 96.3399ZM99.8946 94.9199C100.455 94.9199 100.888 94.6799 101.195 94.1999C101.515 93.7199 101.675 92.9933 101.675 92.0199C101.675 91.0466 101.515 90.3199 101.195 89.8399C100.888 89.3599 100.455 89.1199 99.8946 89.1199C99.3346 89.1199 98.8946 89.3599 98.5746 89.8399C98.268 90.3199 98.1146 91.0466 98.1146 92.0199C98.1146 93.0066 98.268 93.7399 98.5746 94.2199C98.8946 94.6866 99.3346 94.9199 99.8946 94.9199ZM109.675 102.18C108.595 102.18 107.748 101.8 107.135 101.04C106.521 100.28 106.215 99.2199 106.215 97.8599C106.215 96.5266 106.521 95.4799 107.135 94.7199C107.748 93.9466 108.595 93.5599 109.675 93.5599C110.768 93.5599 111.621 93.9466 112.235 94.7199C112.848 95.4799 113.155 96.5266 113.155 97.8599C113.155 99.2199 112.848 100.28 112.235 101.04C111.621 101.8 110.768 102.18 109.675 102.18ZM109.675 100.78C110.235 100.78 110.668 100.54 110.975 100.06C111.295 99.5799 111.455 98.8466 111.455 97.8599C111.455 96.8999 111.295 96.1799 110.975 95.6999C110.668 95.2199 110.235 94.9799 109.675 94.9799C109.115 94.9799 108.675 95.2199 108.355 95.6999C108.048 96.1666 107.895 96.8866 107.895 97.8599C107.895 98.8466 108.048 99.5799 108.355 100.06C108.675 100.54 109.115 100.78 109.675 100.78Z" fill="#243465"/>
<path d="M93.4998 9.99997C47.3841 9.99997 9.99985 47.3842 9.99985 93.5C9.99985 139.616 47.5 169.5 74.5 174" stroke="#FB4E0B" stroke-width="18" stroke-linecap="round"/>
</svg>
